STARTFONT 2.1
FONT -Adobe-Times-Medium-R-Normal--14-100-100-100-P-74-ISO10646-1
SIZE 10 100 100
FONTBOUNDINGBOX 17 24 -2 -6
COMMENT ISO10646-1 extension by Markus Kuhn <mkuhn@acm.org>, 2001-03-20
COMMENT 
COMMENT +
COMMENT  Copyright 1984-1989, 1994 Adobe Systems Incorporated.
COMMENT  Copyright 1988, 1994 Digital Equipment Corporation.
COMMENT
COMMENT  Adobe is a trademark of Adobe Systems Incorporated which may be
COMMENT  registered in certain jurisdictions.
COMMENT  Permission to use these trademarks is hereby granted only in
COMMENT  association with the images described in this file.
COMMENT
COMMENT  Permission to use, copy, modify, distribute and sell this software
COMMENT  and its documentation for any purpose and without fee is hereby
COMMENT  granted, provided that the above copyright notices appear in all
COMMENT  copies and that both those copyright notices and this permission
COMMENT  notice appear in supporting documentation, and that the names of
COMMENT  Adobe Systems and Digital Equipment Corporation not be used in
COMMENT  advertising or publicity pertaining to distribution of the software
COMMENT  without specific, written prior permission.  Adobe Systems and
COMMENT  Digital Equipment Corporation make no representations about the
COMMENT  suitability of this software for any purpose.  It is provided "as
COMMENT  is" without express or implied warranty.
COMMENT -
STARTPROPERTIES 26
FOUNDRY "Adobe"
FAMILY_NAME "Times"
WEIGHT_NAME "Medium"
SLANT "R"
SETWIDTH_NAME "Normal"
ADD_STYLE_NAME ""
PIXEL_SIZE 14
POINT_SIZE 100
RESOLUTION_X 100
RESOLUTION_Y 100
SPACING "P"
AVERAGE_WIDTH 74
CHARSET_REGISTRY "ISO10646"
CHARSET_ENCODING "1"
CAP_HEIGHT 10
X_HEIGHT 7
FONT_ASCENT 12
FONT_DESCENT 3
FACE_NAME "Times Roman"
COPYRIGHT "Copyright (c) 1984, 1987 Adobe Systems Incorporated. All Rights Reserved. Copyright (c) 1988, 1991 Digital Equipment Corporation. All Rights Reserved."
NOTICE "Times is a trademark of Linotype-Hell AG and/or its subsidiaries."

STARTCHAR char0
ENCODING 0
SWIDTH 722 0
DWIDTH 10 0
BBX 7 9 1 0
BITMAP
AA
00
82
00
82
00
82
00
AA
ENDCHAR
STARTCHAR space
ENCODING 32
SWIDTH 250 0
DWIDTH 3 0
BBX 1 1 0 0
BITMAP
00
ENDCHAR
STARTCHAR exclam
ENCODING 33
SWIDTH 333 0
DWIDTH 5 0
BBX 1 10 2 0
BITMAP
80
80
80
80
80
80
80
00
80
80
ENDCHAR
STARTCHAR quotedbl
ENCODING 34
SWIDTH 408 0
DWIDTH 6 0
BBX 3 3 1 7
BITMAP
A0
A0
A0
ENDCHAR
STARTCHAR numbersign
ENCODING 35
SWIDTH 500 0
DWIDTH 7 0
BBX 7 10 0 0
BITMAP
14
14
7E
28
28
28
FC
50
50
50
ENDCHAR
STARTCHAR dollar
ENCODING 36
SWIDTH 500 0
DWIDTH 7 0
BBX 5 12 1 -1
BITMAP
20
78
A8
A0
A0
70
28
28
28
A8
F0
20
ENDCHAR
STARTCHAR percent
ENCODING 37
SWIDTH 833 0
DWIDTH 12 0
BBX 9 10 1 0
BITMAP
7180
DF00
9200
9400
6800
0B00
1680
2480
4480
4300
ENDCHAR
STARTCHAR ampersand
ENCODING 38
SWIDTH 778 0
DWIDTH 11 0
BBX 10 10 1 0
BITMAP
1800
2400
2400
3800
1380
7900
CA00
8400
CE40
7380
ENDCHAR
STARTCHAR quotesingle
ENCODING 39
SWIDTH 180 0
DWIDTH 3 0
BBX 1 3 1 7
BITMAP
80
80
80
ENDCHAR
STARTCHAR parenleft
ENCODING 40
SWIDTH 333 0
DWIDTH 5 0
BBX 3 13 1 -3
BITMAP
20
20
40
40
80
80
80
80
80
40
40
20
20
ENDCHAR
STARTCHAR parenright
ENCODING 41
SWIDTH 333 0
DWIDTH 5 0
BBX 3 13 1 -3
BITMAP
80
80
40
40
20
20
20
20
20
40
40
80
80
ENDCHAR
STARTCHAR asterisk
ENCODING 42
SWIDTH 500 0
DWIDTH 7 0
BBX 5 6 1 4
BITMAP
20
A8
70
70
A8
20
ENDCHAR
STARTCHAR plus
ENCODING 43
SWIDTH 564 0
DWIDTH 8 0
BBX 7 7 0 0
BITMAP
10
10
10
FE
10
10
10
ENDCHAR
STARTCHAR comma
ENCODING 44
SWIDTH 250 0
DWIDTH 4 0
BBX 2 3 1 -2
BITMAP
C0
40
80
ENDCHAR
STARTCHAR hyphen
ENCODING 45
SWIDTH 333 0
DWIDTH 4 0
BBX 3 1 0 3
BITMAP
E0
ENDCHAR
STARTCHAR period
ENCODING 46
SWIDTH 250 0
DWIDTH 4 0
BBX 2 1 1 0
BITMAP
C0
ENDCHAR
STARTCHAR slash
ENCODING 47
SWIDTH 278 0
DWIDTH 4 0
BBX 4 12 0 -2
BITMAP
10
10
10
20
20
20
40
40
40
80
80
80
ENDCHAR
STARTCHAR zero
ENCODING 48
SWIDTH 500 0
DWIDTH 7 0
BBX 6 10 1 0
BITMAP
78
CC
84
84
84
84
84
84
CC
78
ENDCHAR
STARTCHAR one
ENCODING 49
SWIDTH 500 0
DWIDTH 7 0
BBX 5 10 1 0
BITMAP
20
E0
20
20
20
20
20
20
20
F8
ENDCHAR
STARTCHAR two
ENCODING 50
SWIDTH 500 0
DWIDTH 7 0
BBX 5 10 1 0
BITMAP
70
D8
88
08
18
10
20
40
88
F8
ENDCHAR
STARTCHAR three
ENCODING 51
SWIDTH 500 0
DWIDTH 7 0
BBX 6 10 0 0
BITMAP
78
8C
04
08
30
38
04
04
CC
78
ENDCHAR
STARTCHAR four
ENCODING 52
SWIDTH 500 0
DWIDTH 7 0
BBX 6 10 0 0
BITMAP
08
18
18
28
68
48
88
FC
08
08
ENDCHAR
STARTCHAR five
ENCODING 53
SWIDTH 500 0
DWIDTH 7 0
BBX 5 10 1 0
BITMAP
78
40
80
E0
30
18
08
08
90
E0
ENDCHAR
STARTCHAR six
ENCODING 54
SWIDTH 500 0
DWIDTH 7 0
BBX 6 10 0 0
BITMAP
0C
10
20
40
78
CC
84
84
CC
78
ENDCHAR
STARTCHAR seven
ENCODING 55
SWIDTH 500 0
DWIDTH 7 0
BBX 6 10 0 0
BITMAP
FC
84
08
08
10
10
20
20
40
40
ENDCHAR
STARTCHAR eight
ENCODING 56
SWIDTH 500 0
DWIDTH 7 0
BBX 5 10 1 0
BITMAP
70
98
88
C8
70
98
88
88
88
70
ENDCHAR
STARTCHAR nine
ENCODING 57
SWIDTH 500 0
DWIDTH 7 0
BBX 6 10 1 0
BITMAP
78
CC
84
84
CC
78
08
10
20
C0
ENDCHAR
STARTCHAR colon
ENCODING 58
SWIDTH 278 0
DWIDTH 4 0
BBX 2 7 1 0
BITMAP
C0
00
00
00
00
00
C0
ENDCHAR
STARTCHAR semicolon
ENCODING 59
SWIDTH 278 0
DWIDTH 4 0
BBX 2 9 1 -2
BITMAP
C0
00
00
00
00
00
C0
40
80
ENDCHAR
STARTCHAR less
ENCODING 60
SWIDTH 564 0
DWIDTH 8 0
BBX 7 7 0 0
BITMAP
06
18
60
C0
60
18
06
ENDCHAR
STARTCHAR equal
ENCODING 61
SWIDTH 564 0
DWIDTH 8 0
BBX 7 3 0 2
BITMAP
FE
00
FE
ENDCHAR
STARTCHAR greater
ENCODING 62
SWIDTH 564 0
DWIDTH 8 0
BBX 7 7 0 0
BITMAP
C0
30
0C
06
0C
30
C0
ENDCHAR
STARTCHAR question
ENCODING 63
SWIDTH 444 0
DWIDTH 6 0
BBX 5 10 0 0
BITMAP
70
88
88
08
10
20
20
00
20
20
ENDCHAR
STARTCHAR at
ENCODING 64
SWIDTH 921 0
DWIDTH 13 0
BBX 12 12 0 -2
BITMAP
0F80
3060
6020
4690
8910
9110
9110
9320
CDC0
4000
30C0
0F00
ENDCHAR
STARTCHAR A
ENCODING 65
SWIDTH 722 0
DWIDTH 11 0
BBX 9 10 1 0
BITMAP
0800
0800
1400
1400
2200
2200
3E00
4100
4100
E380
ENDCHAR
STARTCHAR B
ENCODING 66
SWIDTH 667 0
DWIDTH 9 0
BBX 7 10 1 0
BITMAP
FC
46
42
46
7C
46
42
42
46
FC
ENDCHAR
STARTCHAR C
ENCODING 67
SWIDTH 667 0
DWIDTH 10 0
BBX 8 10 1 0
BITMAP
3D
63
41
81
80
80
80
C1
62
3C
ENDCHAR
STARTCHAR D
ENCODING 68
SWIDTH 722 0
DWIDTH 10 0
BBX 9 10 0 0
BITMAP
FE00
2300
2100
2080
2080
2080
2080
2100
2300
FE00
ENDCHAR
STARTCHAR E
ENCODING 69
SWIDTH 611 0
DWIDTH 9 0
BBX 7 10 1 0
BITMAP
FE
42
40
44
7C
44
40
42
42
FE
ENDCHAR
STARTCHAR F
ENCODING 70
SWIDTH 556 0
DWIDTH 8 0
BBX 7 10 1 0
BITMAP
FE
42
40
44
7C
44
40
40
40
E0
ENDCHAR
STARTCHAR G
ENCODING 71
SWIDTH 722 0
DWIDTH 11 0
BBX 9 10 1 0
BITMAP
3D00
6300
4100
8100
8000
8780
8100
C100
6300
3E00
ENDCHAR
STARTCHAR H
ENCODING 72
SWIDTH 722 0
DWIDTH 10 0
BBX 8 10 1 0
BITMAP
E7
42
42
42
7E
42
42
42
42
E7
ENDCHAR
STARTCHAR I
ENCODING 73
SWIDTH 333 0
DWIDTH 5 0
BBX 3 10 1 0
BITMAP
E0
40
40
40
40
40
40
40
40
E0
ENDCHAR
STARTCHAR J
ENCODING 74
SWIDTH 389 0
DWIDTH 6 0
BBX 4 10 1 0
BITMAP
70
20
20
20
20
20
20
20
A0
C0
ENDCHAR
STARTCHAR K
ENCODING 75
SWIDTH 722 0
DWIDTH 10 0
BBX 8 10 1 0
BITMAP
EE
44
48
50
70
50
48
44
46
E7
ENDCHAR
STARTCHAR L
ENCODING 76
SWIDTH 611 0
DWIDTH 9 0
BBX 7 10 1 0
BITMAP
E0
40
40
40
40
40
40
40
42
FE
ENDCHAR
STARTCHAR M
ENCODING 77
SWIDTH 889 0
DWIDTH 13 0
BBX 11 10 1 0
BITMAP
E0E0
60C0
5140
5140
5B40
4A40
4A40
4E40
4440
E4E0
ENDCHAR
STARTCHAR N
ENCODING 78
SWIDTH 722 0
DWIDTH 11 0
BBX 9 10 1 0
BITMAP
E380
6100
5100
5900
4900
4D00
4500
4500
4300
E300
ENDCHAR
STARTCHAR O
ENCODING 79
SWIDTH 722 0
DWIDTH 10 0
BBX 8 10 1 0
BITMAP
3C
66
42
81
81
81
81
42
66
3C
ENDCHAR
STARTCHAR P
ENCODING 80
SWIDTH 556 0
DWIDTH 8 0
BBX 6 10 1 0
BITMAP
F8
4C
44
44
4C
78
40
40
40
E0
ENDCHAR
STARTCHAR Q
ENCODING 81
SWIDTH 722 0
DWIDTH 10 0
BBX 8 13 1 -3
BITMAP
3C
66
42
81
81
81
81
42
66
3C
08
06
03
ENDCHAR
STARTCHAR R
ENCODING 82
SWIDTH 667 0
DWIDTH 9 0
BBX 9 10 0 0
BITMAP
FC00
2600
2200
2200
2600
3C00
2400
2200
2300
F180
ENDCHAR
STARTCHAR S
ENCODING 83
SWIDTH 556 0
DWIDTH 8 0
BBX 6 10 1 0
BITMAP
74
CC
84
C0
70
18
04
84
CC
B8
ENDCHAR
STARTCHAR T
ENCODING 84
SWIDTH 611 0
DWIDTH 9 0
BBX 7 10 1 0
BITMAP
FE
92
92
10
10
10
10
10
10
38
ENDCHAR
STARTCHAR U
ENCODING 85
SWIDTH 722 0
DWIDTH 10 0
BBX 8 10 1 0
BITMAP
E7
42
42
42
42
42
42
42
66
3C
ENDCHAR
STARTCHAR V
ENCODING 86
SWIDTH 722 0
DWIDTH 9 0
BBX 9 10 0 0
BITMAP
E380
4100
6300
2200
2200
3600
1400
1C00
0800
0800
ENDCHAR
STARTCHAR W
ENCODING 87
SWIDTH 944 0
DWIDTH 13 0
BBX 13 10 0 0
BITMAP
E738
4210
6230
2220
2520
3560
1540
18C0
0880
0880
ENDCHAR
STARTCHAR X
ENCODING 88
SWIDTH 722 0
DWIDTH 10 0
BBX 10 10 0 0
BITMAP
7380
2100
1200
1200
0C00
0C00
1200
2100
6180
F3C0
ENDCHAR
STARTCHAR Y
ENCODING 89
SWIDTH 722 0
DWIDTH 9 0
BBX 9 10 0 0
BITMAP
E380
4100
2200
2200
1400
0800
0800
0800
0800
1C00
ENDCHAR
STARTCHAR Z
ENCODING 90
SWIDTH 611 0
DWIDTH 8 0
BBX 8 10 0 0
BITMAP
7F
43
02
04
08
10
20
40
C1
FF
ENDCHAR
STARTCHAR bracketleft
ENCODING 91
SWIDTH 333 0
DWIDTH 5 0
BBX 3 13 1 -3
BITMAP
E0
80
80
80
80
80
80
80
80
80
80
80
E0
ENDCHAR
STARTCHAR backslash
ENCODING 92
SWIDTH 278 0
DWIDTH 4 0
BBX 4 10 0 0
BITMAP
80
80
40
40
40
20
20
20
10
10
ENDCHAR
STARTCHAR bracketright
ENCODING 93
SWIDTH 333 0
DWIDTH 5 0
BBX 3 13 1 -3
BITMAP
E0
20
20
20
20
20
20
20
20
20
20
20
E0
ENDCHAR
STARTCHAR asciicircum
ENCODING 94
SWIDTH 469 0
DWIDTH 7 0
BBX 5 5 1 5
BITMAP
20
50
50
88
88
ENDCHAR
STARTCHAR underscore
ENCODING 95
SWIDTH 500 0
DWIDTH 7 0
BBX 7 1 0 -3
BITMAP
FE
ENDCHAR
STARTCHAR grave
ENCODING 96
SWIDTH 333 0
DWIDTH 5 0
BBX 3 3 1 8
BITMAP
80
C0
20
ENDCHAR
STARTCHAR a
ENCODING 97
SWIDTH 444 0
DWIDTH 7 0
BBX 6 7 1 0
BITMAP
70
C8
18
68
88
C8
74
ENDCHAR
STARTCHAR b
ENCODING 98
SWIDTH 500 0
DWIDTH 7 0
BBX 6 10 0 0
BITMAP
C0
40
40
58
6C
44
44
44
4C
78
ENDCHAR
STARTCHAR c
ENCODING 99
SWIDTH 444 0
DWIDTH 7 0
BBX 6 7 1 0
BITMAP
78
CC
80
80
80
C4
78
ENDCHAR
STARTCHAR d
ENCODING 100
SWIDTH 500 0
DWIDTH 7 0
BBX 6 10 1 0
BITMAP
18
08
08
78
C8
88
88
88
D8
74
ENDCHAR
STARTCHAR e
ENCODING 101
SWIDTH 444 0
DWIDTH 7 0
BBX 6 7 1 0
BITMAP
70
88
F8
80
80
C4
78
ENDCHAR
STARTCHAR f
ENCODING 102
SWIDTH 333 0
DWIDTH 4 0
BBX 5 10 0 0
BITMAP
38
60
40
F8
40
40
40
40
40
F0
ENDCHAR
STARTCHAR g
ENCODING 103
SWIDTH 500 0
DWIDTH 7 0
BBX 6 10 1 -3
BITMAP
78
D0
88
C8
70
40
78
84
CC
70
ENDCHAR
STARTCHAR h
ENCODING 104
SWIDTH 500 0
DWIDTH 7 0
BBX 7 10 0 0
BITMAP
C0
40
40
58
6C
44
44
44
44
EE
ENDCHAR
STARTCHAR i
ENCODING 105
SWIDTH 278 0
DWIDTH 3 0
BBX 3 10 0 0
BITMAP
40
40
00
C0
40
40
40
40
40
E0
ENDCHAR
STARTCHAR j
ENCODING 106
SWIDTH 278 0
DWIDTH 4 0
BBX 3 13 0 -3
BITMAP
20
20
00
60
20
20
20
20
20
20
20
A0
C0
ENDCHAR
STARTCHAR k
ENCODING 107
SWIDTH 500 0
DWIDTH 7 0
BBX 7 10 0 0
BITMAP
C0
40
40
4C
48
70
50
48
4C
E6
ENDCHAR
STARTCHAR l
ENCODING 108
SWIDTH 278 0
DWIDTH 3 0
BBX 3 10 0 0
BITMAP
C0
40
40
40
40
40
40
40
40
E0
ENDCHAR
STARTCHAR m
ENCODING 109
SWIDTH 778 0
DWIDTH 11 0
BBX 11 7 0 0
BITMAP
DB80
6EC0
4440
4440
4440
4440
EEE0
ENDCHAR
STARTCHAR n
ENCODING 110
SWIDTH 500 0
DWIDTH 7 0
BBX 7 7 0 0
BITMAP
D8
6C
44
44
44
44
EE
ENDCHAR
STARTCHAR o
ENCODING 111
SWIDTH 500 0
DWIDTH 7 0
BBX 5 7 1 0
BITMAP
70
D8
88
88
88
D8
70
ENDCHAR
STARTCHAR p
ENCODING 112
SWIDTH 500 0
DWIDTH 7 0
BBX 6 10 0 -3
BITMAP
D8
6C
44
44
44
6C
58
40
40
E0
ENDCHAR
STARTCHAR q
ENCODING 113
SWIDTH 500 0
DWIDTH 7 0
BBX 6 10 1 -3
BITMAP
78
C8
88
88
88
D8
68
08
08
1C
ENDCHAR
STARTCHAR r
ENCODING 114
SWIDTH 333 0
DWIDTH 5 0
BBX 5 7 0 0
BITMAP
B8
60
40
40
40
40
E0
ENDCHAR
STARTCHAR s
ENCODING 115
SWIDTH 389 0
DWIDTH 6 0
BBX 4 7 1 0
BITMAP
70
90
C0
60
30
90
E0
ENDCHAR
STARTCHAR t
ENCODING 116
SWIDTH 278 0
DWIDTH 4 0
BBX 4 8 0 0
BITMAP
40
F0
40
40
40
40
40
30
ENDCHAR
STARTCHAR u
ENCODING 117
SWIDTH 500 0
DWIDTH 7 0
BBX 7 7 0 0
BITMAP
CC
44
44
44
44
6C
36
ENDCHAR
STARTCHAR v
ENCODING 118
SWIDTH 500 0
DWIDTH 7 0
BBX 7 7 0 0
BITMAP
EE
44
44
28
28
10
10
ENDCHAR
STARTCHAR w
ENCODING 119
SWIDTH 722 0
DWIDTH 11 0
BBX 11 7 0 0
BITMAP
EEE0
4440
4440
2480
3B80
1100
1100
ENDCHAR
STARTCHAR x
ENCODING 120
SWIDTH 500 0
DWIDTH 7 0
BBX 7 7 0 0
BITMAP
EE
44
38
10
38
44
EE
ENDCHAR
STARTCHAR y
ENCODING 121
SWIDTH 500 0
DWIDTH 7 0
BBX 7 10 0 -3
BITMAP
EE
44
44
28
28
10
30
20
A0
C0
ENDCHAR
STARTCHAR z
ENCODING 122
SWIDTH 444 0
DWIDTH 6 0
BBX 6 7 0 0
BITMAP
FC
88
18
30
60
C4
FC
ENDCHAR
STARTCHAR braceleft
ENCODING 123
SWIDTH 480 0
DWIDTH 7 0
BBX 5 13 1 -3
BITMAP
18
20
20
20
20
40
80
40
20
20
20
20
18
ENDCHAR
STARTCHAR bar
ENCODING 124
SWIDTH 200 0
DWIDTH 3 0
BBX 1 10 1 0
BITMAP
80
80
80
80
80
80
80
80
80
80
ENDCHAR
STARTCHAR braceright
ENCODING 125
SWIDTH 480 0
DWIDTH 7 0
BBX 5 13 1 -3
BITMAP
C0
20
20
20
20
10
08
10
20
20
20
20
C0
ENDCHAR
STARTCHAR asciitilde
ENCODING 126
SWIDTH 541 0
DWIDTH 8 0
BBX 7 2 0 3
BITMAP
62
9C
ENDCHAR
STARTCHAR space
ENCODING 160
SWIDTH 250 0
DWIDTH 3 0
BBX 1 1 0 0
BITMAP
00
ENDCHAR
STARTCHAR exclamdown
ENCODING 161
SWIDTH 333 0
DWIDTH 5 0
BBX 1 10 2 -3
BITMAP
80
80
00
80
80
80
80
80
80
80
ENDCHAR
STARTCHAR cent
ENCODING 162
SWIDTH 500 0
DWIDTH 7 0
BBX 6 9 0 -1
BITMAP
04
7C
CC
90
90
A0
E4
78
80
ENDCHAR
STARTCHAR sterling
ENCODING 163
SWIDTH 500 0
DWIDTH 8 0
BBX 7 10 0 0
BITMAP
1C
34
20
20
F8
20
20
20
E2
BC
ENDCHAR
STARTCHAR currency
ENCODING 164
SWIDTH 500 0
DWIDTH 7 0
BBX 5 7 1 1
BITMAP
88
70
88
88
88
70
88
ENDCHAR
STARTCHAR yen
ENCODING 165
SWIDTH 500 0
DWIDTH 7 0
BBX 7 10 0 0
BITMAP
EE
44
6C
28
7C
10
7C
10
10
38
ENDCHAR
STARTCHAR brokenbar
ENCODING 166
SWIDTH 200 0
DWIDTH 3 0
BBX 1 10 1 0
BITMAP
80
80
80
80
00
00
80
80
80
80
ENDCHAR
STARTCHAR section
ENCODING 167
SWIDTH 500 0
DWIDTH 7 0
BBX 5 13 1 -3
BITMAP
38
58
40
60
70
98
88
C8
70
30
10
D0
E0
ENDCHAR
STARTCHAR dieresis
ENCODING 168
SWIDTH 333 0
DWIDTH 5 0
BBX 3 2 1 8
BITMAP
A0
A0
ENDCHAR
STARTCHAR copyright
ENCODING 169
SWIDTH 760 0
DWIDTH 12 0
BBX 10 10 1 0
BITMAP
1E00
6180
4E80
9240
9040
9040
9240
4C80
6180
1E00
ENDCHAR
STARTCHAR ordfeminine
ENCODING 170
SWIDTH 276 0
DWIDTH 4 0
BBX 3 6 0 4
BITMAP
E0
20
A0
E0
00
E0
ENDCHAR
STARTCHAR guillemotleft
ENCODING 171
SWIDTH 500 0
DWIDTH 7 0
BBX 6 6 0 0
BITMAP
24
48
90
90
48
24
ENDCHAR
STARTCHAR logicalnot
ENCODING 172
SWIDTH 564 0
DWIDTH 9 0
BBX 7 4 1 2
BITMAP
FE
02
02
02
ENDCHAR
STARTCHAR hyphen
ENCODING 173
SWIDTH 333 0
DWIDTH 4 0
BBX 3 1 0 3
BITMAP
E0
ENDCHAR
STARTCHAR registered
ENCODING 174
SWIDTH 760 0
DWIDTH 12 0
BBX 10 10 1 0
BITMAP
1E00
6180
5C80
9240
9C40
9440
9240
5280
6180
1E00
ENDCHAR
STARTCHAR macron
ENCODING 175
SWIDTH 333 0
DWIDTH 4 0
BBX 4 1 0 8
BITMAP
F0
ENDCHAR
STARTCHAR degree
ENCODING 176
SWIDTH 400 0
DWIDTH 6 0
BBX 4 4 1 6
BITMAP
60
90
90
60
ENDCHAR
STARTCHAR plusminus
ENCODING 177
SWIDTH 564 0
DWIDTH 8 0
BBX 7 7 0 0
BITMAP
10
10
FE
10
10
00
FE
ENDCHAR
STARTCHAR twosuperior
ENCODING 178
SWIDTH 300 0
DWIDTH 4 0
BBX 4 6 0 4
BITMAP
60
90
10
20
40
F0
ENDCHAR
STARTCHAR threesuperior
ENCODING 179
SWIDTH 300 0
DWIDTH 4 0
BBX 4 6 0 4
BITMAP
60
90
20
10
90
60
ENDCHAR
STARTCHAR acute
ENCODING 180
SWIDTH 333 0
DWIDTH 5 0
BBX 3 3 1 8
BITMAP
20
60
80
ENDCHAR
STARTCHAR mu
ENCODING 181
SWIDTH 500 0
DWIDTH 7 0
BBX 7 10 0 -3
BITMAP
CC
44
44
44
44
6C
76
40
40
60
ENDCHAR
STARTCHAR paragraph
ENCODING 182
SWIDTH 453 0
DWIDTH 7 0
BBX 7 13 0 -3
BITMAP
3E
74
F4
F4
F4
74
34
14
14
14
14
14
14
ENDCHAR
STARTCHAR periodcentered
ENCODING 183
SWIDTH 250 0
DWIDTH 4 0
BBX 1 2 2 3
BITMAP
80
80
ENDCHAR
STARTCHAR cedilla
ENCODING 184
SWIDTH 333 0
DWIDTH 5 0
BBX 3 3 1 -3
BITMAP
40
20
C0
ENDCHAR
STARTCHAR onesuperior
ENCODING 185
SWIDTH 300 0
DWIDTH 4 0
BBX 3 6 0 4
BITMAP
40
C0
40
40
40
E0
ENDCHAR
STARTCHAR ordmasculine
ENCODING 186
SWIDTH 310 0
DWIDTH 5 0
BBX 4 6 0 4
BITMAP
60
90
90
60
00
F0
ENDCHAR
STARTCHAR guillemotright
ENCODING 187
SWIDTH 500 0
DWIDTH 7 0
BBX 6 6 1 0
BITMAP
90
48
24
24
48
90
ENDCHAR
STARTCHAR onequarter
ENCODING 188
SWIDTH 750 0
DWIDTH 10 0
BBX 10 10 0 0
BITMAP
4100
C200
4200
4400
4480
E980
0A80
1480
17C0
2080
ENDCHAR
STARTCHAR onehalf
ENCODING 189
SWIDTH 750 0
DWIDTH 10 0
BBX 10 10 0 0
BITMAP
4100
C200
4200
4400
4580
EA40
0840
1080
1100
23C0
ENDCHAR
STARTCHAR threequarters
ENCODING 190
SWIDTH 750 0
DWIDTH 10 0
BBX 10 10 0 0
BITMAP
6100
9200
2200
1400
9480
6980
0A80
1480
17C0
2080
ENDCHAR
STARTCHAR questiondown
ENCODING 191
SWIDTH 444 0
DWIDTH 6 0
BBX 5 10 0 -3
BITMAP
20
20
00
20
20
40
80
88
88
70
ENDCHAR
STARTCHAR Agrave
ENCODING 192
SWIDTH 722 0
DWIDTH 11 0
BBX 9 14 1 0
BITMAP
1000
1800
0400
0000
0800
0800
1400
1400
2200
2200
3E00
4100
4100
E380
ENDCHAR
STARTCHAR Aacute
ENCODING 193
SWIDTH 722 0
DWIDTH 11 0
BBX 9 14 1 0
BITMAP
0400
0C00
1000
0000
0800
0800
1400
1400
2200
2200
3E00
4100
4100
E380
ENDCHAR
STARTCHAR Acircumflex
ENCODING 194
SWIDTH 722 0
DWIDTH 11 0
BBX 9 14 1 0
BITMAP
0800
1C00
2200
0000
0800
0800
1400
1400
2200
2200
3E00
4100
4100
E380
ENDCHAR
STARTCHAR Atilde
ENCODING 195
SWIDTH 722 0
DWIDTH 11 0
BBX 9 14 1 0
BITMAP
1200
2A00
2400
0000
0800
0800
1400
1400
2200
2200
3E00
4100
4100
E380
ENDCHAR
STARTCHAR Adieresis
ENCODING 196
SWIDTH 722 0
DWIDTH 11 0
BBX 9 13 1 0
BITMAP
2400
2400
0000
0800
0800
1400
1400
2200
2200
3E00
4100
4100
E380
ENDCHAR
STARTCHAR Aring
ENCODING 197
SWIDTH 722 0
DWIDTH 11 0
BBX 9 14 1 0
BITMAP
1800
2400
1800
0000
0800
0800
1400
1400
2200
2200
3E00
4100
4100
E380
ENDCHAR
STARTCHAR AE
ENCODING 198
SWIDTH 889 0
DWIDTH 13 0
BBX 11 10 1 0
BITMAP
1FE0
0C20
1400
1440
27C0
2440
3C00
4420
4420
EFE0
ENDCHAR
STARTCHAR Ccedilla
ENCODING 199
SWIDTH 667 0
DWIDTH 10 0
BBX 8 13 1 -3
BITMAP
3D
63
41
81
80
80
80
C1
62
3C
08
04
18
ENDCHAR
STARTCHAR Egrave
ENCODING 200
SWIDTH 611 0
DWIDTH 9 0
BBX 7 14 1 0
BITMAP
20
30
08
00
FE
42
40
44
7C
44
40
42
42
FE
ENDCHAR
STARTCHAR Eacute
ENCODING 201
SWIDTH 611 0
DWIDTH 9 0
BBX 7 14 1 0
BITMAP
04
0C
10
00
FE
42
40
44
7C
44
40
42
42
FE
ENDCHAR
STARTCHAR Ecircumflex
ENCODING 202
SWIDTH 611 0
DWIDTH 9 0
BBX 7 14 1 0
BITMAP
10
38
44
00
FE
42
40
44
7C
44
40
42
42
FE
ENDCHAR
STARTCHAR Edieresis
ENCODING 203
SWIDTH 611 0
DWIDTH 9 0
BBX 7 13 1 0
BITMAP
24
24
00
FE
42
40
44
7C
44
40
42
42
FE
ENDCHAR
STARTCHAR Igrave
ENCODING 204
SWIDTH 333 0
DWIDTH 5 0
BBX 3 14 1 0
BITMAP
80
C0
20
00
E0
40
40
40
40
40
40
40
40
E0
ENDCHAR
STARTCHAR Iacute
ENCODING 205
SWIDTH 333 0
DWIDTH 5 0
BBX 3 14 1 0
BITMAP
20
60
80
00
E0
40
40
40
40
40
40
40
40
E0
ENDCHAR
STARTCHAR Icircumflex
ENCODING 206
SWIDTH 333 0
DWIDTH 5 0
BBX 5 14 0 0
BITMAP
20
70
88
00
70
20
20
20
20
20
20
20
20
70
ENDCHAR
STARTCHAR Idieresis
ENCODING 207
SWIDTH 333 0
DWIDTH 5 0
BBX 3 13 1 0
BITMAP
A0
A0
00
E0
40
40
40
40
40
40
40
40
E0
ENDCHAR
STARTCHAR Eth
ENCODING 208
SWIDTH 722 0
DWIDTH 10 0
BBX 9 10 0 0
BITMAP
FE00
2300
2100
2080
F880
2080
2080
2100
2300
FE00
ENDCHAR
STARTCHAR Ntilde
ENCODING 209
SWIDTH 722 0
DWIDTH 11 0
BBX 9 14 1 0
BITMAP
1200
2A00
2400
0000
E380
6100
5100
5900
4900
4D00
4500
4500
4300
E300
ENDCHAR
STARTCHAR Ograve
ENCODING 210
SWIDTH 722 0
DWIDTH 10 0
BBX 8 14 1 0
BITMAP
20
30
08
00
3C
66
42
81
81
81
81
42
66
3C
ENDCHAR
STARTCHAR Oacute
ENCODING 211
SWIDTH 722 0
DWIDTH 10 0
BBX 8 14 1 0
BITMAP
04
0C
10
00
3C
66
42
81
81
81
81
42
66
3C
ENDCHAR
STARTCHAR Ocircumflex
ENCODING 212
SWIDTH 722 0
DWIDTH 10 0
BBX 8 14 1 0
BITMAP
10
38
44
00
3C
66
42
81
81
81
81
42
66
3C
ENDCHAR
STARTCHAR Otilde
ENCODING 213
SWIDTH 722 0
DWIDTH 10 0
BBX 8 14 1 0
BITMAP
24
54
48
00
3C
66
42
81
81
81
81
42
66
3C
ENDCHAR
STARTCHAR Odieresis
ENCODING 214
SWIDTH 722 0
DWIDTH 10 0
BBX 8 13 1 0
BITMAP
24
24
00
3C
66
42
81
81
81
81
42
66
3C
ENDCHAR
STARTCHAR multiply
ENCODING 215
SWIDTH 564 0
DWIDTH 8 0
BBX 7 7 1 0
BITMAP
82
44
28
10
28
44
82
ENDCHAR
STARTCHAR Oslash
ENCODING 216
SWIDTH 722 0
DWIDTH 10 0
BBX 9 12 0 -1
BITMAP
0080
1F00
3100
2300
4480
4C80
4880
5080
3100
6300
5E00
8000
ENDCHAR
STARTCHAR Ugrave
ENCODING 217
SWIDTH 722 0
DWIDTH 10 0
BBX 8 14 1 0
BITMAP
20
30
08
00
E7
42
42
42
42
42
42
42
66
3C
ENDCHAR
STARTCHAR Uacute
ENCODING 218
SWIDTH 722 0
DWIDTH 10 0
BBX 8 14 1 0
BITMAP
04
0C
10
00
E7
42
42
42
42
42
42
42
66
3C
ENDCHAR
STARTCHAR Ucircumflex
ENCODING 219
SWIDTH 722 0
DWIDTH 10 0
BBX 8 14 1 0
BITMAP
10
38
44
00
E7
42
42
42
42
42
42
42
66
3C
ENDCHAR
STARTCHAR Udieresis
ENCODING 220
SWIDTH 722 0
DWIDTH 10 0
BBX 8 13 1 0
BITMAP
24
24
00
E7
42
42
42
42
42
42
42
66
3C
ENDCHAR
STARTCHAR Yacute
ENCODING 221
SWIDTH 722 0
DWIDTH 9 0
BBX 9 14 0 0
BITMAP
0200
0600
0800
0000
E380
4100
2200
2200
1400
0800
0800
0800
0800
1C00
ENDCHAR
STARTCHAR Thorn
ENCODING 222
SWIDTH 556 0
DWIDTH 8 0
BBX 6 10 1 0
BITMAP
E0
40
78
4C
44
44
4C
78
40
E0
ENDCHAR
STARTCHAR germandbls
ENCODING 223
SWIDTH 500 0
DWIDTH 7 0
BBX 6 10 0 0
BITMAP
38
6C
44
48
70
58
4C
44
54
D8
ENDCHAR
STARTCHAR agrave
ENCODING 224
SWIDTH 444 0
DWIDTH 7 0
BBX 6 11 1 0
BITMAP
40
60
10
00
70
C8
18
68
88
C8
74
ENDCHAR
STARTCHAR aacute
ENCODING 225
SWIDTH 444 0
DWIDTH 7 0
BBX 6 11 1 0
BITMAP
08
18
20
00
70
C8
18
68
88
C8
74
ENDCHAR
STARTCHAR acircumflex
ENCODING 226
SWIDTH 444 0
DWIDTH 7 0
BBX 6 11 1 0
BITMAP
20
70
88
00
70
C8
18
68
88
C8
74
ENDCHAR
STARTCHAR atilde
ENCODING 227
SWIDTH 444 0
DWIDTH 7 0
BBX 6 11 1 0
BITMAP
48
A8
90
00
70
C8
18
68
88
C8
74
ENDCHAR
STARTCHAR adieresis
ENCODING 228
SWIDTH 444 0
DWIDTH 7 0
BBX 6 10 1 0
BITMAP
50
50
00
70
C8
18
68
88
C8
74
ENDCHAR
STARTCHAR aring
ENCODING 229
SWIDTH 444 0
DWIDTH 7 0
BBX 6 11 1 0
BITMAP
30
48
30
00
70
C8
18
68
88
C8
74
ENDCHAR
STARTCHAR ae
ENCODING 230
SWIDTH 667 0
DWIDTH 11 0
BBX 9 7 1 0
BITMAP
7F00
C980
1F00
6800
8800
CC80
7700
ENDCHAR
STARTCHAR ccedilla
ENCODING 231
SWIDTH 444 0
DWIDTH 7 0
BBX 6 10 1 -3
BITMAP
70
C8
80
80
80
C4
78
20
10
60
ENDCHAR
STARTCHAR egrave
ENCODING 232
SWIDTH 444 0
DWIDTH 7 0
BBX 6 11 1 0
BITMAP
40
60
10
00
70
88
F8
80
80
C4
78
ENDCHAR
STARTCHAR eacute
ENCODING 233
SWIDTH 444 0
DWIDTH 7 0
BBX 6 11 1 0
BITMAP
08
18
20
00
70
88
F8
80
80
C4
78
ENDCHAR
STARTCHAR ecircumflex
ENCODING 234
SWIDTH 444 0
DWIDTH 7 0
BBX 6 11 1 0
BITMAP
20
70
88
00
70
88
F8
80
80
C4
78
ENDCHAR
STARTCHAR edieresis
ENCODING 235
SWIDTH 444 0
DWIDTH 7 0
BBX 6 10 1 0
BITMAP
50
50
00
70
88
F8
80
80
C4
78
ENDCHAR
STARTCHAR igrave
ENCODING 236
SWIDTH 278 0
DWIDTH 3 0
BBX 3 11 0 0
BITMAP
80
C0
20
00
C0
40
40
40
40
40
E0
ENDCHAR
STARTCHAR iacute
ENCODING 237
SWIDTH 278 0
DWIDTH 3 0
BBX 3 11 0 0
BITMAP
20
60
80
00
C0
40
40
40
40
40
E0
ENDCHAR
STARTCHAR icircumflex
ENCODING 238
SWIDTH 278 0
DWIDTH 3 0
BBX 5 11 -1 0
BITMAP
20
70
88
00
60
20
20
20
20
20
70
ENDCHAR
STARTCHAR idieresis
ENCODING 239
SWIDTH 278 0
DWIDTH 3 0
BBX 3 10 0 0
BITMAP
A0
A0
00
C0
40
40
40
40
40
E0
ENDCHAR
STARTCHAR eth
ENCODING 240
SWIDTH 500 0
DWIDTH 7 0
BBX 5 10 1 0
BITMAP
D8
60
90
78
D8
88
88
88
D8
70
ENDCHAR
STARTCHAR ntilde
ENCODING 241
SWIDTH 500 0
DWIDTH 7 0
BBX 7 11 0 0
BITMAP
24
54
48
00
D8
6C
44
44
44
44
EE
ENDCHAR
STARTCHAR ograve
ENCODING 242
SWIDTH 500 0
DWIDTH 7 0
BBX 5 11 1 0
BITMAP
40
60
10
00
70
D8
88
88
88
D8
70
ENDCHAR
STARTCHAR oacute
ENCODING 243
SWIDTH 500 0
DWIDTH 7 0
BBX 5 11 1 0
BITMAP
10
30
40
00
70
D8
88
88
88
D8
70
ENDCHAR
STARTCHAR ocircumflex
ENCODING 244
SWIDTH 500 0
DWIDTH 7 0
BBX 5 11 1 0
BITMAP
20
70
88
00
70
D8
88
88
88
D8
70
ENDCHAR
STARTCHAR otilde
ENCODING 245
SWIDTH 500 0
DWIDTH 7 0
BBX 5 11 1 0
BITMAP
48
A8
90
00
70
D8
88
88
88
D8
70
ENDCHAR
STARTCHAR odieresis
ENCODING 246
SWIDTH 500 0
DWIDTH 7 0
BBX 5 10 1 0
BITMAP
50
50
00
70
D8
88
88
88
D8
70
ENDCHAR
STARTCHAR divide
ENCODING 247
SWIDTH 564 0
DWIDTH 8 0
BBX 7 7 1 0
BITMAP
10
10
00
FE
00
10
10
ENDCHAR
STARTCHAR oslash
ENCODING 248
SWIDTH 500 0
DWIDTH 7 0
BBX 7 9 0 -1
BITMAP
02
3C
6C
44
44
44
6C
78
80
ENDCHAR
STARTCHAR ugrave
ENCODING 249
SWIDTH 500 0
DWIDTH 7 0
BBX 7 11 0 0
BITMAP
20
30
08
00
CC
44
44
44
44
6C
36
ENDCHAR
STARTCHAR uacute
ENCODING 250
SWIDTH 500 0
DWIDTH 7 0
BBX 7 11 0 0
BITMAP
08
18
20
00
CC
44
44
44
44
6C
36
ENDCHAR
STARTCHAR ucircumflex
ENCODING 251
SWIDTH 500 0
DWIDTH 7 0
BBX 7 11 0 0
BITMAP
10
38
44
00
CC
44
44
44
44
6C
36
ENDCHAR
STARTCHAR udieresis
ENCODING 252
SWIDTH 500 0
DWIDTH 7 0
BBX 7 10 0 0
BITMAP
28
28
00
CC
44
44
44
44
6C
36
ENDCHAR
STARTCHAR yacute
ENCODING 253
SWIDTH 500 0
DWIDTH 7 0
BBX 7 14 0 -3
BITMAP
04
0C
10
00
EE
44
44
28
28
10
30
20
A0
C0
ENDCHAR
STARTCHAR thorn
ENCODING 254
SWIDTH 500 0
DWIDTH 7 0
BBX 6 13 0 -3
BITMAP
C0
40
40
58
6C
44
44
44
6C
58
40
40
E0
ENDCHAR
STARTCHAR ydieresis
ENCODING 255
SWIDTH 500 0
DWIDTH 7 0
BBX 7 13 0 -3
BITMAP
28
28
00
EE
44
44
28
28
10
30
20
A0
C0
ENDCHAR
STARTCHAR Amacron
ENCODING 256
SWIDTH 722 0
DWIDTH 11 0
BBX 9 12 1 0
BITMAP
1E00
0000
0800
0800
1400
1400
2200
2200
3E00
4100
4100
E380
ENDCHAR
STARTCHAR amacron
ENCODING 257
SWIDTH 444 0
DWIDTH 7 0
BBX 6 9 1 0
BITMAP
78
00
70
C8
18
68
88
C8
74
ENDCHAR
STARTCHAR Abreve
ENCODING 258
SWIDTH 722 0
DWIDTH 11 0
BBX 9 13 1 0
BITMAP
1200
1E00
0000
0800
0800
1400
1400
2200
2200
3E00
4100
4100
E380
ENDCHAR
STARTCHAR abreve
ENCODING 259
SWIDTH 444 0
DWIDTH 7 0
BBX 6 10 1 0
BITMAP
48
78
00
70
C8
18
68
88
C8
74
ENDCHAR
STARTCHAR Aogonek
ENCODING 260
SWIDTH 722 0
DWIDTH 11 0
BBX 9 13 1 -3
BITMAP
0800
0800
1400
1400
2200
2200
3E00
4100
4100
E380
0800
1000
0C00
ENDCHAR
STARTCHAR aogonek
ENCODING 261
SWIDTH 444 0
DWIDTH 7 0
BBX 6 10 1 -3
BITMAP
70
C8
18
68
88
C8
74
20
40
30
ENDCHAR
STARTCHAR Cacute
ENCODING 262
SWIDTH 667 0
DWIDTH 10 0
BBX 8 14 1 0
BITMAP
02
06
08
00
3D
63
41
81
80
80
80
C1
62
3C
ENDCHAR
STARTCHAR cacute
ENCODING 263
SWIDTH 444 0
DWIDTH 7 0
BBX 6 11 1 0
BITMAP
08
18
20
00
78
CC
80
80
80
C4
78
ENDCHAR
STARTCHAR Ccircumflex
ENCODING 264
SWIDTH 667 0
DWIDTH 10 0
BBX 8 14 1 0
BITMAP
08
1C
22
00
3D
63
41
81
80
80
80
C1
62
3C
ENDCHAR
STARTCHAR ccircumflex
ENCODING 265
SWIDTH 444 0
DWIDTH 7 0
BBX 6 11 1 0
BITMAP
10
38
44
00
78
CC
80
80
80
C4
78
ENDCHAR
STARTCHAR Cdotaccent
ENCODING 266
SWIDTH 667 0
DWIDTH 10 0
BBX 8 13 1 0
BITMAP
08
08
00
3D
63
41
81
80
80
80
C1
62
3C
ENDCHAR
STARTCHAR cdotaccent
ENCODING 267
SWIDTH 444 0
DWIDTH 7 0
BBX 6 10 1 0
BITMAP
10
10
00
78
CC
80
80
80
C4
78
ENDCHAR
STARTCHAR Ccaron
ENCODING 268
SWIDTH 667 0
DWIDTH 10 0
BBX 8 14 1 0
BITMAP
22
1C
08
00
3D
63
41
81
80
80
80
C1
62
3C
ENDCHAR
STARTCHAR ccaron
ENCODING 269
SWIDTH 444 0
DWIDTH 7 0
BBX 6 11 1 0
BITMAP
44
38
10
00
78
CC
80
80
80
C4
78
ENDCHAR
STARTCHAR Dcaron
ENCODING 270
SWIDTH 722 0
DWIDTH 10 0
BBX 9 14 0 0
BITMAP
2200
1C00
0800
0000
FE00
2300
2100
2080
2080
2080
2080
2100
2300
FE00
ENDCHAR
STARTCHAR dcaron
ENCODING 271
SWIDTH 808 0
DWIDTH 11 0
BBX 9 10 1 0
BITMAP
1980
0880
0900
7800
C800
8800
8800
8800
D800
7400
ENDCHAR
STARTCHAR Dcroat
ENCODING 272
SWIDTH 722 0
DWIDTH 10 0
BBX 9 10 0 0
BITMAP
FE00
2300
2100
2080
F880
2080
2080
2100
2300
FE00
ENDCHAR
STARTCHAR dcroat
ENCODING 273
SWIDTH 500 0
DWIDTH 7 0
BBX 6 10 1 0
BITMAP
18
1C
08
78
C8
88
88
88
D8
74
ENDCHAR
STARTCHAR Emacron
ENCODING 274
SWIDTH 611 0
DWIDTH 9 0
BBX 7 12 1 0
BITMAP
78
00
FE
42
40
44
7C
44
40
42
42
FE
ENDCHAR
STARTCHAR emacron
ENCODING 275
SWIDTH 444 0
DWIDTH 7 0
BBX 6 9 1 0
BITMAP
78
00
70
88
F8
80
80
C4
78
ENDCHAR
STARTCHAR Ebreve
ENCODING 276
SWIDTH 611 0
DWIDTH 9 0
BBX 7 13 1 0
BITMAP
48
78
00
FE
42
40
44
7C
44
40
42
42
FE
ENDCHAR
STARTCHAR ebreve
ENCODING 277
SWIDTH 444 0
DWIDTH 7 0
BBX 6 10 1 0
BITMAP
48
78
00
70
88
F8
80
80
C4
78
ENDCHAR
STARTCHAR Edotaccent
ENCODING 278
SWIDTH 611 0
DWIDTH 9 0
BBX 7 13 1 0
BITMAP
10
10
00
FE
42
40
44
7C
44
40
42
42
FE
ENDCHAR
STARTCHAR edotaccent
ENCODING 279
SWIDTH 444 0
DWIDTH 7 0
BBX 6 10 1 0
BITMAP
20
20
00
70
88
F8
80
80
C4
78
ENDCHAR
STARTCHAR Eogonek
ENCODING 280
SWIDTH 611 0
DWIDTH 9 0
BBX 7 13 1 -3
BITMAP
FE
42
40
44
7C
44
40
42
42
FE
10
20
18
ENDCHAR
STARTCHAR eogonek
ENCODING 281
SWIDTH 444 0
DWIDTH 7 0
BBX 6 10 1 -3
BITMAP
70
88
F8
80
80
C4
78
20
40
30
ENDCHAR
STARTCHAR Ecaron
ENCODING 282
SWIDTH 611 0
DWIDTH 9 0
BBX 7 14 1 0
BITMAP
44
38
10
00
FE
42
40
44
7C
44
40
42
42
FE
ENDCHAR
STARTCHAR ecaron
ENCODING 283
SWIDTH 444 0
DWIDTH 7 0
BBX 6 11 1 0
BITMAP
88
70
20
00
70
88
F8
80
80
C4
78
ENDCHAR
STARTCHAR Gcircumflex
ENCODING 284
SWIDTH 722 0
DWIDTH 11 0
BBX 9 14 1 0
BITMAP
0800
1C00
2200
0000
3D00
6300
4100
8100
8000
8780
8100
C100
6300
3E00
ENDCHAR
STARTCHAR gcircumflex
ENCODING 285
SWIDTH 500 0
DWIDTH 7 0
BBX 6 14 1 -3
BITMAP
20
70
88
00
78
D0
88
C8
70
40
78
84
CC
70
ENDCHAR
STARTCHAR Gbreve
ENCODING 286
SWIDTH 722 0
DWIDTH 11 0
BBX 9 13 1 0
BITMAP
1200
1E00
0000
3D00
6300
4100
8100
8000
8780
8100
C100
6300
3E00
ENDCHAR
STARTCHAR gbreve
ENCODING 287
SWIDTH 500 0
DWIDTH 7 0
BBX 6 13 1 -3
BITMAP
48
78
00
78
D0
88
C8
70
40
78
84
CC
70
ENDCHAR
STARTCHAR Gdotaccent
ENCODING 288
SWIDTH 722 0
DWIDTH 11 0
BBX 9 13 1 0
BITMAP
0800
0800
0000
3D00
6300
4100
8100
8000
8780
8100
C100
6300
3E00
ENDCHAR
STARTCHAR gdotaccent
ENCODING 289
SWIDTH 500 0
DWIDTH 7 0
BBX 6 13 1 -3
BITMAP
20
20
00
78
D0
88
C8
70
40
78
84
CC
70
ENDCHAR
STARTCHAR Gcommaaccent
ENCODING 290
SWIDTH 722 0
DWIDTH 11 0
BBX 9 14 1 -4
BITMAP
3D00
6300
4100
8100
8000
8780
8100
C100
6300
3E00
0000
1800
0800
1000
ENDCHAR
STARTCHAR gcommaaccent
ENCODING 291
SWIDTH 500 0
DWIDTH 7 0
BBX 6 14 1 -3
BITMAP
10
20
30
00
78
D0
88
C8
70
40
78
84
CC
70
ENDCHAR
STARTCHAR Hcircumflex
ENCODING 292
SWIDTH 722 0
DWIDTH 10 0
BBX 8 14 1 0
BITMAP
08
1C
22
00
E7
42
42
42
7E
42
42
42
42
E7
ENDCHAR
STARTCHAR hcircumflex
ENCODING 293
SWIDTH 500 0
DWIDTH 7 0
BBX 7 14 0 0
BITMAP
20
70
88
00
C0
40
40
58
6C
44
44
44
44
EE
ENDCHAR
STARTCHAR Hbar
ENCODING 294
SWIDTH 722 0
DWIDTH 10 0
BBX 8 10 1 0
BITMAP
E7
42
FF
42
7E
42
42
42
42
E7
ENDCHAR
STARTCHAR hbar
ENCODING 295
SWIDTH 500 0
DWIDTH 7 0
BBX 7 10 0 0
BITMAP
C0
70
40
58
6C
44
44
44
44
EE
ENDCHAR
STARTCHAR Itilde
ENCODING 296
SWIDTH 333 0
DWIDTH 5 0
BBX 5 14 0 0
BITMAP
48
A8
90
00
70
20
20
20
20
20
20
20
20
70
ENDCHAR
STARTCHAR itilde
ENCODING 297
SWIDTH 278 0
DWIDTH 3 0
BBX 5 11 -1 0
BITMAP
48
A8
90
00
60
20
20
20
20
20
70
ENDCHAR
STARTCHAR Imacron
ENCODING 298
SWIDTH 333 0
DWIDTH 5 0
BBX 4 12 1 0
BITMAP
F0
00
E0
40
40
40
40
40
40
40
40
E0
ENDCHAR
STARTCHAR imacron
ENCODING 299
SWIDTH 278 0
DWIDTH 3 0
BBX 4 9 -1 0
BITMAP
F0
00
60
20
20
20
20
20
70
ENDCHAR
STARTCHAR Ibreve
ENCODING 300
SWIDTH 333 0
DWIDTH 5 0
BBX 4 13 1 0
BITMAP
90
F0
00
E0
40
40
40
40
40
40
40
40
E0
ENDCHAR
STARTCHAR ibreve
ENCODING 301
SWIDTH 278 0
DWIDTH 3 0
BBX 4 10 -1 0
BITMAP
90
F0
00
60
20
20
20
20
20
70
ENDCHAR
STARTCHAR Iogonek
ENCODING 302
SWIDTH 333 0
DWIDTH 5 0
BBX 3 13 1 -3
BITMAP
E0
40
40
40
40
40
40
40
40
E0
40
80
60
ENDCHAR
STARTCHAR iogonek
ENCODING 303
SWIDTH 278 0
DWIDTH 3 0
BBX 3 13 0 -3
BITMAP
40
40
00
C0
40
40
40
40
40
E0
40
80
60
ENDCHAR
STARTCHAR Idotaccent
ENCODING 304
SWIDTH 333 0
DWIDTH 5 0
BBX 3 13 1 0
BITMAP
40
40
00
E0
40
40
40
40
40
40
40
40
E0
ENDCHAR
STARTCHAR dotlessi
ENCODING 305
SWIDTH 278 0
DWIDTH 3 0
BBX 3 7 0 0
BITMAP
C0
40
40
40
40
40
E0
ENDCHAR
STARTCHAR IJ
ENCODING 306
SWIDTH 705 0
DWIDTH 11 0
BBX 9 10 1 0
BITMAP
E380
4100
4100
4100
4100
4100
4100
4100
4500
E600
ENDCHAR
STARTCHAR ij
ENCODING 307
SWIDTH 542 0
DWIDTH 7 0
BBX 6 13 0 -3
BITMAP
44
44
00
CC
44
44
44
44
44
E4
04
14
18
ENDCHAR
STARTCHAR Jcircumflex
ENCODING 308
SWIDTH 389 0
DWIDTH 6 0
BBX 5 14 1 0
BITMAP
20
70
88
00
70
20
20
20
20
20
20
20
A0
C0
ENDCHAR
STARTCHAR jcircumflex
ENCODING 309
SWIDTH 278 0
DWIDTH 4 0
BBX 5 14 0 -3
BITMAP
20
70
88
00
60
20
20
20
20
20
20
20
A0
C0
ENDCHAR
STARTCHAR Kcommaaccent
ENCODING 310
SWIDTH 722 0
DWIDTH 10 0
BBX 8 14 1 -4
BITMAP
EE
44
48
50
70
50
48
44
46
E7
00
18
08
10
ENDCHAR
STARTCHAR kcommaaccent
ENCODING 311
SWIDTH 500 0
DWIDTH 7 0
BBX 7 14 0 -4
BITMAP
C0
40
40
4C
48
70
50
48
4C
E6
00
30
10
20
ENDCHAR
STARTCHAR kgreenlandic
ENCODING 312
SWIDTH 500 0
DWIDTH 7 0
BBX 7 7 0 0
BITMAP
4C
48
70
50
48
4C
E6
ENDCHAR
STARTCHAR Lacute
ENCODING 313
SWIDTH 611 0
DWIDTH 9 0
BBX 7 14 1 0
BITMAP
10
30
40
00
E0
40
40
40
40
40
40
40
42
FE
ENDCHAR
STARTCHAR lacute
ENCODING 314
SWIDTH 278 0
DWIDTH 3 0
BBX 4 14 0 0
BITMAP
10
30
40
00
C0
40
40
40
40
40
40
40
40
E0
ENDCHAR
STARTCHAR Lcommaaccent
ENCODING 315
SWIDTH 611 0
DWIDTH 9 0
BBX 7 14 1 -4
BITMAP
E0
40
40
40
40
40
40
40
42
FE
00
30
10
20
ENDCHAR
STARTCHAR lcommaaccent
ENCODING 316
SWIDTH 278 0
DWIDTH 3 0
BBX 3 14 0 -4
BITMAP
C0
40
40
40
40
40
40
40
40
E0
00
60
20
40
ENDCHAR
STARTCHAR Lcaron
ENCODING 317
SWIDTH 913 0
DWIDTH 13 0
BBX 11 10 1 0
BITMAP
E060
4020
4040
4000
4000
4000
4000
4000
4200
FE00
ENDCHAR
STARTCHAR lcaron
ENCODING 318
SWIDTH 597 0
DWIDTH 7 0
BBX 6 10 0 0
BITMAP
CC
44
48
40
40
40
40
40
40
E0
ENDCHAR
STARTCHAR Ldot
ENCODING 319
SWIDTH 830 0
DWIDTH 13 0
BBX 11 10 1 0
BITMAP
E000
4000
4000
4000
4000
4020
4020
4000
4200
FE00
ENDCHAR
STARTCHAR ldot
ENCODING 320
SWIDTH 514 0
DWIDTH 7 0
BBX 6 10 0 0
BITMAP
C0
40
40
40
40
44
44
40
40
E0
ENDCHAR
STARTCHAR Lslash
ENCODING 321
SWIDTH 611 0
DWIDTH 9 0
BBX 7 10 1 0
BITMAP
E0
40
40
40
60
C0
40
40
42
FE
ENDCHAR
STARTCHAR lslash
ENCODING 322
SWIDTH 278 0
DWIDTH 3 0
BBX 3 10 0 0
BITMAP
C0
40
40
40
60
C0
40
40
40
E0
ENDCHAR
STARTCHAR Nacute
ENCODING 323
SWIDTH 722 0
DWIDTH 11 0
BBX 9 14 1 0
BITMAP
0200
0600
0800
0000
E380
6100
5100
5900
4900
4D00
4500
4500
4300
E300
ENDCHAR
STARTCHAR nacute
ENCODING 324
SWIDTH 500 0
DWIDTH 7 0
BBX 7 11 0 0
BITMAP
08
18
20
00
D8
6C
44
44
44
44
EE
ENDCHAR
STARTCHAR Ncommaaccent
ENCODING 325
SWIDTH 722 0
DWIDTH 11 0
BBX 9 14 1 -4
BITMAP
E380
6100
5100
5900
4900
4D00
4500
4500
4300
E300
0000
1800
0800
1000
ENDCHAR
STARTCHAR ncommaaccent
ENCODING 326
SWIDTH 500 0
DWIDTH 7 0
BBX 7 11 0 -4
BITMAP
D8
6C
44
44
44
44
EE
00
18
08
10
ENDCHAR
STARTCHAR Ncaron
ENCODING 327
SWIDTH 722 0
DWIDTH 11 0
BBX 9 14 1 0
BITMAP
2200
1C00
0800
0000
E380
6100
5100
5900
4900
4D00
4500
4500
4300
E300
ENDCHAR
STARTCHAR ncaron
ENCODING 328
SWIDTH 500 0
DWIDTH 7 0
BBX 7 11 0 0
BITMAP
44
38
10
00
D8
6C
44
44
44
44
EE
ENDCHAR
STARTCHAR napostrophe
ENCODING 329
SWIDTH 816 0
DWIDTH 11 0
BBX 10 10 1 0
BITMAP
C000
4000
8000
1B00
0D80
0880
0880
0880
0880
1DC0
ENDCHAR
STARTCHAR Eng
ENCODING 330
SWIDTH 722 0
DWIDTH 11 0
BBX 9 13 1 -3
BITMAP
E380
6100
5100
5900
4900
4D00
4500
4500
4300
E300
0100
0500
0600
ENDCHAR
STARTCHAR eng
ENCODING 331
SWIDTH 500 0
DWIDTH 7 0
BBX 6 10 0 -3
BITMAP
D8
6C
44
44
44
44
E4
04
14
18
ENDCHAR
STARTCHAR Omacron
ENCODING 332
SWIDTH 722 0
DWIDTH 10 0
BBX 8 12 1 0
BITMAP
3C
00
3C
66
42
81
81
81
81
42
66
3C
ENDCHAR
STARTCHAR omacron
ENCODING 333
SWIDTH 500 0
DWIDTH 7 0
BBX 5 9 1 0
BITMAP
78
00
70
D8
88
88
88
D8
70
ENDCHAR
STARTCHAR Obreve
ENCODING 334
SWIDTH 722 0
DWIDTH 10 0
BBX 8 13 1 0
BITMAP
24
3C
00
3C
66
42
81
81
81
81
42
66
3C
ENDCHAR
STARTCHAR obreve
ENCODING 335
SWIDTH 500 0
DWIDTH 7 0
BBX 5 10 1 0
BITMAP
48
78
00
70
D8
88
88
88
D8
70
ENDCHAR
STARTCHAR Ohungarumlaut
ENCODING 336
SWIDTH 722 0
DWIDTH 10 0
BBX 8 14 1 0
BITMAP
09
1B
24
00
3C
66
42
81
81
81
81
42
66
3C
ENDCHAR
STARTCHAR ohungarumlaut
ENCODING 337
SWIDTH 500 0
DWIDTH 7 0
BBX 6 11 1 0
BITMAP
24
6C
90
00
70
D8
88
88
88
D8
70
ENDCHAR
STARTCHAR OE
ENCODING 338
SWIDTH 889 0
DWIDTH 13 0
BBX 11 10 1 0
BITMAP
1FE0
6C20
4400
8440
87C0
8440
8400
4420
6C20
1FE0
ENDCHAR
STARTCHAR oe
ENCODING 339
SWIDTH 722 0
DWIDTH 11 0
BBX 10 7 1 0
BITMAP
7700
D980
8F00
8800
8800
DC40
7780
ENDCHAR
STARTCHAR Racute
ENCODING 340
SWIDTH 667 0
DWIDTH 9 0
BBX 9 14 0 0
BITMAP
0400
0C00
1000
0000
FC00
2600
2200
2200
2600
3C00
2400
2200
2300
F180
ENDCHAR
STARTCHAR racute
ENCODING 341
SWIDTH 333 0
DWIDTH 5 0
BBX 5 11 0 0
BITMAP
08
18
20
00
B8
60
40
40
40
40
E0
ENDCHAR
STARTCHAR Rcommaaccent
ENCODING 342
SWIDTH 667 0
DWIDTH 9 0
BBX 9 14 0 -4
BITMAP
FC00
2600
2200
2200
2600
3C00
2400
2200
2300
F180
0000
0C00
0400
0800
ENDCHAR
STARTCHAR rcommaaccent
ENCODING 343
SWIDTH 333 0
DWIDTH 5 0
BBX 5 11 0 -4
BITMAP
B8
60
40
40
40
40
E0
00
60
20
40
ENDCHAR
STARTCHAR Rcaron
ENCODING 344
SWIDTH 667 0
DWIDTH 9 0
BBX 9 14 0 0
BITMAP
2200
1C00
0800
0000
FC00
2600
2200
2200
2600
3C00
2400
2200
2300
F180
ENDCHAR
STARTCHAR rcaron
ENCODING 345
SWIDTH 333 0
DWIDTH 5 0
BBX 5 11 0 0
BITMAP
88
70
20
00
B8
60
40
40
40
40
E0
ENDCHAR
STARTCHAR Sacute
ENCODING 346
SWIDTH 556 0
DWIDTH 8 0
BBX 6 14 1 0
BITMAP
08
18
20
00
74
CC
84
C0
70
18
04
84
CC
B8
ENDCHAR
STARTCHAR sacute
ENCODING 347
SWIDTH 389 0
DWIDTH 6 0
BBX 4 11 1 0
BITMAP
10
30
40
00
70
90
C0
60
30
90
E0
ENDCHAR
STARTCHAR Scircumflex
ENCODING 348
SWIDTH 556 0
DWIDTH 8 0
BBX 6 14 1 0
BITMAP
10
38
44
00
74
CC
84
C0
70
18
04
84
CC
B8
ENDCHAR
STARTCHAR scircumflex
ENCODING 349
SWIDTH 389 0
DWIDTH 6 0
BBX 5 11 1 0
BITMAP
20
70
88
00
70
90
C0
60
30
90
E0
ENDCHAR
STARTCHAR Scedilla
ENCODING 350
SWIDTH 556 0
DWIDTH 8 0
BBX 6 13 1 -3
BITMAP
74
CC
84
C0
70
18
04
84
CC
B8
20
10
60
ENDCHAR
STARTCHAR scedilla
ENCODING 351
SWIDTH 389 0
DWIDTH 6 0
BBX 4 10 1 -3
BITMAP
70
90
C0
60
30
90
E0
40
20
C0
ENDCHAR
STARTCHAR Scaron
ENCODING 352
SWIDTH 556 0
DWIDTH 8 0
BBX 6 14 1 0
BITMAP
88
70
20
00
74
CC
84
C0
70
18
04
84
CC
B8
ENDCHAR
STARTCHAR scaron
ENCODING 353
SWIDTH 389 0
DWIDTH 6 0
BBX 5 11 1 0
BITMAP
88
70
20
00
70
90
C0
60
30
90
E0
ENDCHAR
STARTCHAR Tcommaaccent
ENCODING 354
SWIDTH 611 0
DWIDTH 9 0
BBX 7 13 1 -3
BITMAP
FE
92
92
10
10
10
10
10
10
38
10
08
30
ENDCHAR
STARTCHAR tcommaaccent
ENCODING 355
SWIDTH 278 0
DWIDTH 4 0
BBX 4 11 0 -3
BITMAP
40
F0
40
40
40
40
40
30
20
10
60
ENDCHAR
STARTCHAR Tcaron
ENCODING 356
SWIDTH 611 0
DWIDTH 9 0
BBX 7 14 1 0
BITMAP
44
38
10
00
FE
92
92
10
10
10
10
10
10
38
ENDCHAR
STARTCHAR tcaron
ENCODING 357
SWIDTH 597 0
DWIDTH 8 0
BBX 7 10 0 0
BITMAP
06
02
44
F0
40
40
40
40
40
30
ENDCHAR
STARTCHAR Tbar
ENCODING 358
SWIDTH 611 0
DWIDTH 9 0
BBX 7 10 1 0
BITMAP
FE
92
92
10
38
10
10
10
10
38
ENDCHAR
STARTCHAR tbar
ENCODING 359
SWIDTH 278 0
DWIDTH 4 0
BBX 4 8 0 0
BITMAP
40
F0
40
70
40
40
40
30
ENDCHAR
STARTCHAR Utilde
ENCODING 360
SWIDTH 722 0
DWIDTH 10 0
BBX 8 14 1 0
BITMAP
12
2A
24
00
E7
42
42
42
42
42
42
42
66
3C
ENDCHAR
STARTCHAR utilde
ENCODING 361
SWIDTH 500 0
DWIDTH 7 0
BBX 7 11 0 0
BITMAP
24
54
48
00
CC
44
44
44
44
6C
36
ENDCHAR
STARTCHAR Umacron
ENCODING 362
SWIDTH 722 0
DWIDTH 10 0
BBX 8 12 1 0
BITMAP
3C
00
E7
42
42
42
42
42
42
42
66
3C
ENDCHAR
STARTCHAR umacron
ENCODING 363
SWIDTH 500 0
DWIDTH 7 0
BBX 7 9 0 0
BITMAP
78
00
CC
44
44
44
44
6C
36
ENDCHAR
STARTCHAR Ubreve
ENCODING 364
SWIDTH 722 0
DWIDTH 10 0
BBX 8 13 1 0
BITMAP
24
3C
00
E7
42
42
42
42
42
42
42
66
3C
ENDCHAR
STARTCHAR ubreve
ENCODING 365
SWIDTH 500 0
DWIDTH 7 0
BBX 7 10 0 0
BITMAP
48
78
00
CC
44
44
44
44
6C
36
ENDCHAR
STARTCHAR Uring
ENCODING 366
SWIDTH 722 0
DWIDTH 10 0
BBX 8 14 1 0
BITMAP
18
24
18
00
E7
42
42
42
42
42
42
42
66
3C
ENDCHAR
STARTCHAR uring
ENCODING 367
SWIDTH 500 0
DWIDTH 7 0
BBX 7 11 0 0
BITMAP
30
48
30
00
CC
44
44
44
44
6C
36
ENDCHAR
STARTCHAR Uhungarumlaut
ENCODING 368
SWIDTH 722 0
DWIDTH 10 0
BBX 8 14 1 0
BITMAP
09
1B
24
00
E7
42
42
42
42
42
42
42
66
3C
ENDCHAR
STARTCHAR uhungarumlaut
ENCODING 369
SWIDTH 500 0
DWIDTH 7 0
BBX 7 11 0 0
BITMAP
12
36
48
00
CC
44
44
44
44
6C
36
ENDCHAR
STARTCHAR Uogonek
ENCODING 370
SWIDTH 722 0
DWIDTH 10 0
BBX 8 13 1 -3
BITMAP
E7
42
42
42
42
42
42
42
66
3C
08
10
0C
ENDCHAR
STARTCHAR uogonek
ENCODING 371
SWIDTH 500 0
DWIDTH 7 0
BBX 7 10 0 -3
BITMAP
CC
44
44
44
44
6C
36
10
20
18
ENDCHAR
STARTCHAR Wcircumflex
ENCODING 372
SWIDTH 944 0
DWIDTH 13 0
BBX 13 14 0 0
BITMAP
0200
0700
0880
0000
E738
4210
6230
2220
2520
3560
1540
18C0
0880
0880
ENDCHAR
STARTCHAR wcircumflex
ENCODING 373
SWIDTH 722 0
DWIDTH 11 0
BBX 11 11 0 0
BITMAP
0400
0E00
1100
0000
EEE0
4440
4440
2480
3B80
1100
1100
ENDCHAR
STARTCHAR Ycircumflex
ENCODING 374
SWIDTH 722 0
DWIDTH 9 0
BBX 9 14 0 0
BITMAP
0800
1C00
2200
0000
E380
4100
2200
2200
1400
0800
0800
0800
0800
1C00
ENDCHAR
STARTCHAR ycircumflex
ENCODING 375
SWIDTH 500 0
DWIDTH 7 0
BBX 7 14 0 -3
BITMAP
10
38
44
00
EE
44
44
28
28
10
30
20
A0
C0
ENDCHAR
STARTCHAR Ydieresis
ENCODING 376
SWIDTH 722 0
DWIDTH 9 0
BBX 9 13 0 0
BITMAP
1400
1400
0000
E380
4100
2200
2200
1400
0800
0800
0800
0800
1C00
ENDCHAR
STARTCHAR Zacute
ENCODING 377
SWIDTH 611 0
DWIDTH 8 0
BBX 8 14 0 0
BITMAP
02
06
08
00
7F
43
02
04
08
10
20
40
C1
FF
ENDCHAR
STARTCHAR zacute
ENCODING 378
SWIDTH 444 0
DWIDTH 6 0
BBX 6 11 0 0
BITMAP
08
18
20
00
FC
88
18
30
60
C4
FC
ENDCHAR
STARTCHAR Zdotaccent
ENCODING 379
SWIDTH 611 0
DWIDTH 8 0
BBX 8 13 0 0
BITMAP
08
08
00
7F
43
02
04
08
10
20
40
C1
FF
ENDCHAR
STARTCHAR zdotaccent
ENCODING 380
SWIDTH 444 0
DWIDTH 6 0
BBX 6 10 0 0
BITMAP
20
20
00
FC
88
18
30
60
C4
FC
ENDCHAR
STARTCHAR Zcaron
ENCODING 381
SWIDTH 611 0
DWIDTH 8 0
BBX 8 14 0 0
BITMAP
44
38
10
00
7F
43
02
04
08
10
20
40
C1
FF
ENDCHAR
STARTCHAR zcaron
ENCODING 382
SWIDTH 444 0
DWIDTH 6 0
BBX 6 11 0 0
BITMAP
88
70
20
00
FC
88
18
30
60
C4
FC
ENDCHAR
STARTCHAR uni0186
ENCODING 390
SWIDTH 667 0
DWIDTH 10 0
BBX 8 10 1 0
BITMAP
3C
46
83
01
01
01
81
82
C6
BC
ENDCHAR
STARTCHAR uni0189
ENCODING 393
SWIDTH 722 0
DWIDTH 10 0
BBX 9 10 0 0
BITMAP
FE00
2300
2100
2080
F880
2080
2080
2100
2300
FE00
ENDCHAR
STARTCHAR uni018E
ENCODING 398
SWIDTH 611 0
DWIDTH 9 0
BBX 7 10 1 0
BITMAP
FE
84
84
04
44
7C
44
04
84
FE
ENDCHAR
STARTCHAR florin
ENCODING 402
SWIDTH 500 0
DWIDTH 7 0
BBX 7 13 0 -3
BITMAP
06
0A
08
08
3C
10
10
10
30
20
20
A0
C0
ENDCHAR
STARTCHAR uni0197
ENCODING 407
SWIDTH 333 0
DWIDTH 5 0
BBX 3 10 1 0
BITMAP
E0
40
40
40
E0
40
40
40
40
E0
ENDCHAR
STARTCHAR uni019A
ENCODING 410
SWIDTH 278 0
DWIDTH 3 0
BBX 3 10 0 0
BITMAP
C0
40
40
40
E0
40
40
40
40
E0
ENDCHAR
STARTCHAR uni019D
ENCODING 413
SWIDTH 722 0
DWIDTH 11 0
BBX 10 13 0 -3
BITMAP
71C0
3080
2880
2C80
2480
2680
2280
2280
2180
2180
2000
A000
C000
ENDCHAR
STARTCHAR uni019F
ENCODING 415
SWIDTH 722 0
DWIDTH 10 0
BBX 8 10 1 0
BITMAP
3C
66
42
81
FF
81
81
42
66
3C
ENDCHAR
STARTCHAR Ohorn
ENCODING 416
SWIDTH 722 0
DWIDTH 10 0
BBX 10 10 1 0
BITMAP
3CC0
6640
4280
8100
8100
8100
8100
4200
6600
3C00
ENDCHAR
STARTCHAR ohorn
ENCODING 417
SWIDTH 500 0
DWIDTH 7 0
BBX 7 7 1 0
BITMAP
76
DA
8C
88
88
D8
70
ENDCHAR
STARTCHAR uni01A7
ENCODING 423
SWIDTH 556 0
DWIDTH 8 0
BBX 6 10 1 0
BITMAP
B8
CC
84
0C
38
60
80
84
CC
74
ENDCHAR
STARTCHAR uni01A8
ENCODING 424
SWIDTH 389 0
DWIDTH 6 0
BBX 4 7 1 0
BITMAP
E0
90
30
60
C0
90
70
ENDCHAR
STARTCHAR uni01A9
ENCODING 425
SWIDTH 592 0
DWIDTH 9 0
BBX 8 10 1 0
BITMAP
FE
C2
60
30
18
10
20
40
C1
FF
ENDCHAR
STARTCHAR uni01AE
ENCODING 430
SWIDTH 611 0
DWIDTH 9 0
BBX 7 13 1 -3
BITMAP
FE
92
92
10
10
10
10
10
10
10
10
14
0C
ENDCHAR
STARTCHAR Uhorn
ENCODING 431
SWIDTH 722 0
DWIDTH 10 0
BBX 10 10 1 0
BITMAP
E7C0
4240
4280
4200
4200
4200
4200
4200
6600
3C00
ENDCHAR
STARTCHAR uhorn
ENCODING 432
SWIDTH 500 0
DWIDTH 7 0
BBX 9 7 0 0
BITMAP
CD80
4480
4500
4400
4400
6C00
3600
ENDCHAR
STARTCHAR uni01B1
ENCODING 433
SWIDTH 768 0
DWIDTH 11 0
BBX 10 10 0 0
BITMAP
F3C0
9240
3300
2100
4080
4080
4080
2100
3300
0C00
ENDCHAR
STARTCHAR uni01B5
ENCODING 437
SWIDTH 611 0
DWIDTH 8 0
BBX 8 10 0 0
BITMAP
7F
43
02
04
1C
10
20
40
C1
FF
ENDCHAR
STARTCHAR uni01B6
ENCODING 438
SWIDTH 444 0
DWIDTH 6 0
BBX 6 7 0 0
BITMAP
FC
88
18
38
60
C4
FC
ENDCHAR
STARTCHAR uni01BB
ENCODING 443
SWIDTH 500 0
DWIDTH 7 0
BBX 5 10 1 0
BITMAP
70
D8
88
08
F8
10
20
40
88
F8
ENDCHAR
STARTCHAR uni01BC
ENCODING 444
SWIDTH 500 0
DWIDTH 7 0
BBX 5 10 1 0
BITMAP
78
40
80
E0
30
18
08
08
90
E0
ENDCHAR
STARTCHAR uni01C0
ENCODING 448
SWIDTH 200 0
DWIDTH 3 0
BBX 1 10 1 0
BITMAP
80
80
80
80
80
80
80
80
80
80
ENDCHAR
STARTCHAR uni01C2
ENCODING 450
SWIDTH 564 0
DWIDTH 8 0
BBX 7 10 0 -1
BITMAP
10
10
10
10
FE
10
FE
10
10
10
ENDCHAR
STARTCHAR uni01C3
ENCODING 451
SWIDTH 333 0
DWIDTH 5 0
BBX 1 10 2 0
BITMAP
80
80
80
80
80
80
80
00
80
80
ENDCHAR
STARTCHAR uni01CD
ENCODING 461
SWIDTH 722 0
DWIDTH 11 0
BBX 9 14 1 0
BITMAP
2200
1C00
0800
0000
0800
0800
1400
1400
2200
2200
3E00
4100
4100
E380
ENDCHAR
STARTCHAR uni01CE
ENCODING 462
SWIDTH 444 0
DWIDTH 7 0
BBX 6 11 1 0
BITMAP
88
70
20
00
70
C8
18
68
88
C8
74
ENDCHAR
STARTCHAR uni01CF
ENCODING 463
SWIDTH 333 0
DWIDTH 5 0
BBX 5 14 0 0
BITMAP
88
70
20
00
70
20
20
20
20
20
20
20
20
70
ENDCHAR
STARTCHAR uni01D0
ENCODING 464
SWIDTH 278 0
DWIDTH 3 0
BBX 5 11 -1 0
BITMAP
88
70
20
00
60
20
20
20
20
20
70
ENDCHAR
STARTCHAR uni01D1
ENCODING 465
SWIDTH 722 0
DWIDTH 10 0
BBX 8 14 1 0
BITMAP
22
1C
08
00
3C
66
42
81
81
81
81
42
66
3C
ENDCHAR
STARTCHAR uni01D2
ENCODING 466
SWIDTH 500 0
DWIDTH 7 0
BBX 5 11 1 0
BITMAP
88
70
20
00
70
D8
88
88
88
D8
70
ENDCHAR
STARTCHAR uni01D3
ENCODING 467
SWIDTH 722 0
DWIDTH 10 0
BBX 8 14 1 0
BITMAP
22
1C
08
00
E7
42
42
42
42
42
42
42
66
3C
ENDCHAR
STARTCHAR uni01D4
ENCODING 468
SWIDTH 500 0
DWIDTH 7 0
BBX 7 11 0 0
BITMAP
44
38
10
00
CC
44
44
44
44
6C
36
ENDCHAR
STARTCHAR uni01D5
ENCODING 469
SWIDTH 722 0
DWIDTH 10 0
BBX 8 15 1 0
BITMAP
3C
00
24
24
00
E7
42
42
42
42
42
42
42
66
3C
ENDCHAR
STARTCHAR uni01D6
ENCODING 470
SWIDTH 500 0
DWIDTH 7 0
BBX 7 12 0 0
BITMAP
3C
00
28
28
00
CC
44
44
44
44
6C
36
ENDCHAR
STARTCHAR uni01D7
ENCODING 471
SWIDTH 722 0
DWIDTH 10 0
BBX 8 17 1 0
BITMAP
04
0C
10
00
24
24
00
E7
42
42
42
42
42
42
42
66
3C
ENDCHAR
STARTCHAR uni01D8
ENCODING 472
SWIDTH 500 0
DWIDTH 7 0
BBX 7 14 0 0
BITMAP
04
0C
10
00
28
28
00
CC
44
44
44
44
6C
36
ENDCHAR
STARTCHAR uni01D9
ENCODING 473
SWIDTH 722 0
DWIDTH 10 0
BBX 8 17 1 0
BITMAP
22
1C
08
00
24
24
00
E7
42
42
42
42
42
42
42
66
3C
ENDCHAR
STARTCHAR uni01DA
ENCODING 474
SWIDTH 500 0
DWIDTH 7 0
BBX 7 14 0 0
BITMAP
44
38
10
00
28
28
00
CC
44
44
44
44
6C
36
ENDCHAR
STARTCHAR uni01DB
ENCODING 475
SWIDTH 722 0
DWIDTH 10 0
BBX 8 17 1 0
BITMAP
20
30
08
00
24
24
00
E7
42
42
42
42
42
42
42
66
3C
ENDCHAR
STARTCHAR uni01DC
ENCODING 476
SWIDTH 500 0
DWIDTH 7 0
BBX 7 14 0 0
BITMAP
40
60
10
00
28
28
00
CC
44
44
44
44
6C
36
ENDCHAR
STARTCHAR uni01DD
ENCODING 477
SWIDTH 444 0
DWIDTH 7 0
BBX 6 7 1 0
BITMAP
78
8C
04
04
7C
44
38
ENDCHAR
STARTCHAR uni01DE
ENCODING 478
SWIDTH 722 0
DWIDTH 11 0
BBX 9 15 1 0
BITMAP
3C00
0000
2400
2400
0000
0800
0800
1400
1400
2200
2200
3E00
4100
4100
E380
ENDCHAR
STARTCHAR uni01DF
ENCODING 479
SWIDTH 444 0
DWIDTH 7 0
BBX 6 12 1 0
BITMAP
78
00
50
50
00
70
C8
18
68
88
C8
74
ENDCHAR
STARTCHAR uni01E0
ENCODING 480
SWIDTH 722 0
DWIDTH 11 0
BBX 9 15 1 0
BITMAP
1E00
0000
0800
0800
0000
0800
0800
1400
1400
2200
2200
3E00
4100
4100
E380
ENDCHAR
STARTCHAR uni01E1
ENCODING 481
SWIDTH 444 0
DWIDTH 7 0
BBX 6 12 1 0
BITMAP
78
00
20
20
00
70
C8
18
68
88
C8
74
ENDCHAR
STARTCHAR uni01E2
ENCODING 482
SWIDTH 889 0
DWIDTH 13 0
BBX 11 12 1 0
BITMAP
0F00
0000
1FE0
0C20
1400
1440
27C0
2440
3C00
4420
4420
EFE0
ENDCHAR
STARTCHAR uni01E3
ENCODING 483
SWIDTH 667 0
DWIDTH 11 0
BBX 9 9 1 0
BITMAP
1E00
0000
7F00
C980
1F00
6800
8800
CC80
7700
ENDCHAR
STARTCHAR uni01E4
ENCODING 484
SWIDTH 722 0
DWIDTH 11 0
BBX 9 10 1 0
BITMAP
3D00
6300
4100
8100
8000
8780
8100
C380
6300
3E00
ENDCHAR
STARTCHAR uni01E5
ENCODING 485
SWIDTH 500 0
DWIDTH 7 0
BBX 6 10 1 -3
BITMAP
78
D0
88
C8
70
40
78
FC
CC
70
ENDCHAR
STARTCHAR Gcaron
ENCODING 486
SWIDTH 722 0
DWIDTH 11 0
BBX 9 14 1 0
BITMAP
2200
1C00
0800
0000
3D00
6300
4100
8100
8000
8780
8100
C100
6300
3E00
ENDCHAR
STARTCHAR gcaron
ENCODING 487
SWIDTH 500 0
DWIDTH 7 0
BBX 6 14 1 -3
BITMAP
88
70
20
00
78
D0
88
C8
70
40
78
84
CC
70
ENDCHAR
STARTCHAR uni01E8
ENCODING 488
SWIDTH 722 0
DWIDTH 10 0
BBX 8 14 1 0
BITMAP
44
38
10
00
EE
44
48
50
70
50
48
44
46
E7
ENDCHAR
STARTCHAR uni01E9
ENCODING 489
SWIDTH 500 0
DWIDTH 7 0
BBX 7 14 0 0
BITMAP
88
70
20
00
C0
40
40
4C
48
70
50
48
4C
E6
ENDCHAR
STARTCHAR uni01EA
ENCODING 490
SWIDTH 722 0
DWIDTH 10 0
BBX 8 13 1 -3
BITMAP
3C
66
42
81
81
81
81
42
66
3C
08
10
0C
ENDCHAR
STARTCHAR uni01EB
ENCODING 491
SWIDTH 500 0
DWIDTH 7 0
BBX 5 10 1 -3
BITMAP
70
D8
88
88
88
D8
70
20
40
30
ENDCHAR
STARTCHAR uni01EC
ENCODING 492
SWIDTH 722 0
DWIDTH 10 0
BBX 8 15 1 -3
BITMAP
3C
00
3C
66
42
81
81
81
81
42
66
3C
08
10
0C
ENDCHAR
STARTCHAR uni01ED
ENCODING 493
SWIDTH 500 0
DWIDTH 7 0
BBX 5 12 1 -3
BITMAP
78
00
70
D8
88
88
88
D8
70
20
40
30
ENDCHAR
STARTCHAR uni01F0
ENCODING 496
SWIDTH 278 0
DWIDTH 4 0
BBX 5 14 0 -3
BITMAP
88
70
20
00
60
20
20
20
20
20
20
20
A0
C0
ENDCHAR
STARTCHAR uni01F4
ENCODING 500
SWIDTH 722 0
DWIDTH 11 0
BBX 9 14 1 0
BITMAP
0200
0600
0800
0000
3D00
6300
4100
8100
8000
8780
8100
C100
6300
3E00
ENDCHAR
STARTCHAR uni01F5
ENCODING 501
SWIDTH 500 0
DWIDTH 7 0
BBX 6 14 1 -3
BITMAP
08
18
20
00
78
D0
88
C8
70
40
78
84
CC
70
ENDCHAR
STARTCHAR uni01F8
ENCODING 504
SWIDTH 722 0
DWIDTH 11 0
BBX 9 14 1 0
BITMAP
2000
3000
0800
0000
E380
6100
5100
5900
4900
4D00
4500
4500
4300
E300
ENDCHAR
STARTCHAR uni01F9
ENCODING 505
SWIDTH 500 0
DWIDTH 7 0
BBX 7 11 0 0
BITMAP
40
60
10
00
D8
6C
44
44
44
44
EE
ENDCHAR
STARTCHAR Aringacute
ENCODING 506
SWIDTH 722 0
DWIDTH 11 0
BBX 9 18 1 0
BITMAP
0400
0C00
1000
0000
1800
2400
1800
0000
0800
0800
1400
1400
2200
2200
3E00
4100
4100
E380
ENDCHAR
STARTCHAR aringacute
ENCODING 507
SWIDTH 444 0
DWIDTH 7 0
BBX 6 15 1 0
BITMAP
08
18
20
00
30
48
30
00
70
C8
18
68
88
C8
74
ENDCHAR
STARTCHAR AEacute
ENCODING 508
SWIDTH 889 0
DWIDTH 13 0
BBX 11 14 1 0
BITMAP
0100
0300
0400
0000
1FE0
0C20
1400
1440
27C0
2440
3C00
4420
4420
EFE0
ENDCHAR
STARTCHAR aeacute
ENCODING 509
SWIDTH 667 0
DWIDTH 11 0
BBX 9 11 1 0
BITMAP
0200
0600
0800
0000
7F00
C980
1F00
6800
8800
CC80
7700
ENDCHAR
STARTCHAR Oslashacute
ENCODING 510
SWIDTH 722 0
DWIDTH 10 0
BBX 9 16 0 -1
BITMAP
0200
0600
0800
0000
0080
1F00
3100
2300
4480
4C80
4880
5080
3100
6300
5E00
8000
ENDCHAR
STARTCHAR oslashacute
ENCODING 511
SWIDTH 500 0
DWIDTH 7 0
BBX 7 13 0 -1
BITMAP
04
0C
10
00
02
3C
6C
44
44
44
6C
78
80
ENDCHAR
STARTCHAR uni0200
ENCODING 512
SWIDTH 722 0
DWIDTH 11 0
BBX 9 14 1 0
BITMAP
4800
6C00
1200
0000
0800
0800
1400
1400
2200
2200
3E00
4100
4100
E380
ENDCHAR
STARTCHAR uni0201
ENCODING 513
SWIDTH 444 0
DWIDTH 7 0
BBX 7 11 0 0
BITMAP
90
D8
24
00
38
64
0C
34
44
64
3A
ENDCHAR
STARTCHAR uni0202
ENCODING 514
SWIDTH 722 0
DWIDTH 11 0
BBX 9 13 1 0
BITMAP
1E00
1200
0000
0800
0800
1400
1400
2200
2200
3E00
4100
4100
E380
ENDCHAR
STARTCHAR uni0203
ENCODING 515
SWIDTH 444 0
DWIDTH 7 0
BBX 6 10 1 0
BITMAP
78
48
00
70
C8
18
68
88
C8
74
ENDCHAR
STARTCHAR uni0204
ENCODING 516
SWIDTH 611 0
DWIDTH 9 0
BBX 7 14 1 0
BITMAP
90
D8
24
00
FE
42
40
44
7C
44
40
42
42
FE
ENDCHAR
STARTCHAR uni0205
ENCODING 517
SWIDTH 444 0
DWIDTH 7 0
BBX 7 11 0 0
BITMAP
90
D8
24
00
38
44
7C
40
40
62
3C
ENDCHAR
STARTCHAR uni0206
ENCODING 518
SWIDTH 611 0
DWIDTH 9 0
BBX 7 13 1 0
BITMAP
78
48
00
FE
42
40
44
7C
44
40
42
42
FE
ENDCHAR
STARTCHAR uni0207
ENCODING 519
SWIDTH 444 0
DWIDTH 7 0
BBX 6 10 1 0
BITMAP
78
48
00
70
88
F8
80
80
C4
78
ENDCHAR
STARTCHAR uni0208
ENCODING 520
SWIDTH 333 0
DWIDTH 5 0
BBX 6 14 -1 0
BITMAP
90
D8
24
00
38
10
10
10
10
10
10
10
10
38
ENDCHAR
STARTCHAR uni0209
ENCODING 521
SWIDTH 278 0
DWIDTH 3 0
BBX 6 11 -2 0
BITMAP
90
D8
24
00
30
10
10
10
10
10
38
ENDCHAR
STARTCHAR uni020A
ENCODING 522
SWIDTH 333 0
DWIDTH 5 0
BBX 4 13 1 0
BITMAP
F0
90
00
E0
40
40
40
40
40
40
40
40
E0
ENDCHAR
STARTCHAR uni020B
ENCODING 523
SWIDTH 278 0
DWIDTH 3 0
BBX 4 10 -1 0
BITMAP
F0
90
00
60
20
20
20
20
20
70
ENDCHAR
STARTCHAR uni020C
ENCODING 524
SWIDTH 722 0
DWIDTH 10 0
BBX 8 14 1 0
BITMAP
90
D8
24
00
3C
66
42
81
81
81
81
42
66
3C
ENDCHAR
STARTCHAR uni020D
ENCODING 525
SWIDTH 500 0
DWIDTH 7 0
BBX 6 11 0 0
BITMAP
90
D8
24
00
38
6C
44
44
44
6C
38
ENDCHAR
STARTCHAR uni020E
ENCODING 526
SWIDTH 722 0
DWIDTH 10 0
BBX 8 13 1 0
BITMAP
3C
24
00
3C
66
42
81
81
81
81
42
66
3C
ENDCHAR
STARTCHAR uni020F
ENCODING 527
SWIDTH 500 0
DWIDTH 7 0
BBX 5 10 1 0
BITMAP
78
48
00
70
D8
88
88
88
D8
70
ENDCHAR
STARTCHAR uni0210
ENCODING 528
SWIDTH 667 0
DWIDTH 9 0
BBX 9 14 0 0
BITMAP
9000
D800
2400
0000
FC00
2600
2200
2200
2600
3C00
2400
2200
2300
F180
ENDCHAR
STARTCHAR uni0211
ENCODING 529
SWIDTH 333 0
DWIDTH 5 0
BBX 6 11 -1 0
BITMAP
90
D8
24
00
5C
30
20
20
20
20
70
ENDCHAR
STARTCHAR uni0212
ENCODING 530
SWIDTH 667 0
DWIDTH 9 0
BBX 9 13 0 0
BITMAP
3C00
2400
0000
FC00
2600
2200
2200
2600
3C00
2400
2200
2300
F180
ENDCHAR
STARTCHAR uni0213
ENCODING 531
SWIDTH 333 0
DWIDTH 5 0
BBX 5 10 0 0
BITMAP
78
48
00
B8
60
40
40
40
40
E0
ENDCHAR
STARTCHAR uni0214
ENCODING 532
SWIDTH 722 0
DWIDTH 10 0
BBX 8 14 1 0
BITMAP
90
D8
24
00
E7
42
42
42
42
42
42
42
66
3C
ENDCHAR
STARTCHAR uni0215
ENCODING 533
SWIDTH 500 0
DWIDTH 7 0
BBX 7 11 0 0
BITMAP
90
D8
24
00
CC
44
44
44
44
6C
36
ENDCHAR
STARTCHAR uni0216
ENCODING 534
SWIDTH 722 0
DWIDTH 10 0
BBX 8 13 1 0
BITMAP
3C
24
00
E7
42
42
42
42
42
42
42
66
3C
ENDCHAR
STARTCHAR uni0217
ENCODING 535
SWIDTH 500 0
DWIDTH 7 0
BBX 7 10 0 0
BITMAP
78
48
00
CC
44
44
44
44
6C
36
ENDCHAR
STARTCHAR Scommaaccent
ENCODING 536
SWIDTH 556 0
DWIDTH 8 0
BBX 6 14 1 -4
BITMAP
74
CC
84
C0
70
18
04
84
CC
B8
00
30
10
20
ENDCHAR
STARTCHAR scommaaccent
ENCODING 537
SWIDTH 389 0
DWIDTH 6 0
BBX 4 11 1 -4
BITMAP
70
90
C0
60
30
90
E0
00
60
20
40
ENDCHAR
STARTCHAR Tcommaaccent
ENCODING 538
SWIDTH 611 0
DWIDTH 9 0
BBX 7 14 1 -4
BITMAP
FE
92
92
10
10
10
10
10
10
38
00
18
08
10
ENDCHAR
STARTCHAR tcommaaccent
ENCODING 539
SWIDTH 278 0
DWIDTH 4 0
BBX 4 12 0 -4
BITMAP
40
F0
40
40
40
40
40
30
00
60
20
40
ENDCHAR
STARTCHAR uni021E
ENCODING 542
SWIDTH 722 0
DWIDTH 10 0
BBX 8 14 1 0
BITMAP
22
1C
08
00
E7
42
42
42
7E
42
42
42
42
E7
ENDCHAR
STARTCHAR uni021F
ENCODING 543
SWIDTH 500 0
DWIDTH 7 0
BBX 7 14 0 0
BITMAP
88
70
20
00
C0
40
40
58
6C
44
44
44
44
EE
ENDCHAR
STARTCHAR uni0226
ENCODING 550
SWIDTH 722 0
DWIDTH 11 0
BBX 9 13 1 0
BITMAP
0800
0800
0000
0800
0800
1400
1400
2200
2200
3E00
4100
4100
E380
ENDCHAR
STARTCHAR uni0227
ENCODING 551
SWIDTH 444 0
DWIDTH 7 0
BBX 6 10 1 0
BITMAP
20
20
00
70
C8
18
68
88
C8
74
ENDCHAR
STARTCHAR uni0228
ENCODING 552
SWIDTH 611 0
DWIDTH 9 0
BBX 7 13 1 -3
BITMAP
FE
42
40
44
7C
44
40
42
42
FE
10
08
30
ENDCHAR
STARTCHAR uni0229
ENCODING 553
SWIDTH 444 0
DWIDTH 7 0
BBX 6 10 1 -3
BITMAP
70
88
F8
80
80
C4
78
20
10
60
ENDCHAR
STARTCHAR uni022A
ENCODING 554
SWIDTH 722 0
DWIDTH 10 0
BBX 8 15 1 0
BITMAP
3C
00
24
24
00
3C
66
42
81
81
81
81
42
66
3C
ENDCHAR
STARTCHAR uni022B
ENCODING 555
SWIDTH 500 0
DWIDTH 7 0
BBX 5 12 1 0
BITMAP
78
00
50
50
00
70
D8
88
88
88
D8
70
ENDCHAR
STARTCHAR uni022C
ENCODING 556
SWIDTH 722 0
DWIDTH 10 0
BBX 8 16 1 0
BITMAP
3C
00
24
54
48
00
3C
66
42
81
81
81
81
42
66
3C
ENDCHAR
STARTCHAR uni022D
ENCODING 557
SWIDTH 500 0
DWIDTH 7 0
BBX 5 13 1 0
BITMAP
78
00
48
A8
90
00
70
D8
88
88
88
D8
70
ENDCHAR
STARTCHAR uni022E
ENCODING 558
SWIDTH 722 0
DWIDTH 10 0
BBX 8 13 1 0
BITMAP
08
08
00
3C
66
42
81
81
81
81
42
66
3C
ENDCHAR
STARTCHAR uni022F
ENCODING 559
SWIDTH 500 0
DWIDTH 7 0
BBX 5 10 1 0
BITMAP
20
20
00
70
D8
88
88
88
D8
70
ENDCHAR
STARTCHAR uni0230
ENCODING 560
SWIDTH 722 0
DWIDTH 10 0
BBX 8 15 1 0
BITMAP
3C
00
08
08
00
3C
66
42
81
81
81
81
42
66
3C
ENDCHAR
STARTCHAR uni0231
ENCODING 561
SWIDTH 500 0
DWIDTH 7 0
BBX 5 12 1 0
BITMAP
78
00
20
20
00
70
D8
88
88
88
D8
70
ENDCHAR
STARTCHAR uni0232
ENCODING 562
SWIDTH 722 0
DWIDTH 9 0
BBX 9 12 0 0
BITMAP
1E00
0000
E380
4100
2200
2200
1400
0800
0800
0800
0800
1C00
ENDCHAR
STARTCHAR uni0233
ENCODING 563
SWIDTH 500 0
DWIDTH 7 0
BBX 7 12 0 -3
BITMAP
3C
00
EE
44
44
28
28
10
30
20
A0
C0
ENDCHAR
STARTCHAR uni0250
ENCODING 592
SWIDTH 444 0
DWIDTH 7 0
BBX 6 7 1 0
BITMAP
B8
4C
44
58
60
4C
38
ENDCHAR
STARTCHAR uni0254
ENCODING 596
SWIDTH 444 0
DWIDTH 7 0
BBX 6 7 1 0
BITMAP
78
CC
04
04
04
8C
78
ENDCHAR
STARTCHAR uni0258
ENCODING 600
SWIDTH 444 0
DWIDTH 7 0
BBX 6 7 1 0
BITMAP
38
44
7C
04
04
8C
78
ENDCHAR
STARTCHAR uni0259
ENCODING 601
SWIDTH 444 0
DWIDTH 7 0
BBX 6 7 1 0
BITMAP
78
8C
04
04
7C
44
38
ENDCHAR
STARTCHAR uni025F
ENCODING 607
SWIDTH 333 0
DWIDTH 4 0
BBX 5 10 0 -3
BITMAP
78
10
10
10
10
10
F8
10
30
E0
ENDCHAR
STARTCHAR uni0265
ENCODING 613
SWIDTH 500 0
DWIDTH 7 0
BBX 7 10 0 -3
BITMAP
EE
44
44
44
44
6C
34
04
04
06
ENDCHAR
STARTCHAR uni0275
ENCODING 629
SWIDTH 500 0
DWIDTH 7 0
BBX 5 7 1 0
BITMAP
70
D8
88
F8
88
D8
70
ENDCHAR
STARTCHAR uni0279
ENCODING 633
SWIDTH 333 0
DWIDTH 5 0
BBX 5 7 0 0
BITMAP
38
10
10
10
10
30
E8
ENDCHAR
STARTCHAR uni0287
ENCODING 647
SWIDTH 278 0
DWIDTH 4 0
BBX 4 8 0 0
BITMAP
C0
20
20
20
20
20
F0
20
ENDCHAR
STARTCHAR uni0288
ENCODING 648
SWIDTH 278 0
DWIDTH 4 0
BBX 4 11 0 -3
BITMAP
40
F0
40
40
40
40
40
40
40
50
30
ENDCHAR
STARTCHAR uni0289
ENCODING 649
SWIDTH 500 0
DWIDTH 7 0
BBX 7 7 0 0
BITMAP
CC
44
44
FE
44
6C
36
ENDCHAR
STARTCHAR uni028C
ENCODING 652
SWIDTH 500 0
DWIDTH 7 0
BBX 7 7 0 0
BITMAP
10
10
28
28
44
44
EE
ENDCHAR
STARTCHAR uni028D
ENCODING 653
SWIDTH 722 0
DWIDTH 11 0
BBX 11 7 0 0
BITMAP
1100
1100
3B80
2480
4440
4440
EEE0
ENDCHAR
STARTCHAR uni028E
ENCODING 654
SWIDTH 500 0
DWIDTH 7 0
BBX 7 10 0 0
BITMAP
06
0A
08
18
10
28
28
44
44
EE
ENDCHAR
STARTCHAR uni029E
ENCODING 670
SWIDTH 500 0
DWIDTH 7 0
BBX 7 10 0 -3
BITMAP
CE
64
24
14
1C
24
64
04
04
06
ENDCHAR
STARTCHAR uni02B9
ENCODING 697
SWIDTH 247 0
DWIDTH 4 0
BBX 4 3 0 7
BITMAP
30
60
80
ENDCHAR
STARTCHAR uni02BA
ENCODING 698
SWIDTH 411 0
DWIDTH 6 0
BBX 7 3 0 7
BITMAP
36
6C
90
ENDCHAR
STARTCHAR uni02BB
ENCODING 699
SWIDTH 333 0
DWIDTH 4 0
BBX 2 3 1 7
BITMAP
40
80
C0
ENDCHAR
STARTCHAR afii57929
ENCODING 700
SWIDTH 333 0
DWIDTH 4 0
BBX 2 3 1 7
BITMAP
C0
40
80
ENDCHAR
STARTCHAR afii64937
ENCODING 701
SWIDTH 333 0
DWIDTH 4 0
BBX 2 3 1 7
BITMAP
C0
80
40
ENDCHAR
STARTCHAR circumflex
ENCODING 710
SWIDTH 333 0
DWIDTH 5 0
BBX 5 3 0 8
BITMAP
20
70
88
ENDCHAR
STARTCHAR caron
ENCODING 711
SWIDTH 333 0
DWIDTH 5 0
BBX 5 3 0 8
BITMAP
88
70
20
ENDCHAR
STARTCHAR uni02C8
ENCODING 712
SWIDTH 180 0
DWIDTH 3 0
BBX 1 3 1 7
BITMAP
80
80
80
ENDCHAR
STARTCHAR macron
ENCODING 713
SWIDTH 333 0
DWIDTH 4 0
BBX 4 1 0 8
BITMAP
F0
ENDCHAR
STARTCHAR uni02CA
ENCODING 714
SWIDTH 333 0
DWIDTH 5 0
BBX 3 3 1 8
BITMAP
20
60
80
ENDCHAR
STARTCHAR uni02CB
ENCODING 715
SWIDTH 333 0
DWIDTH 5 0
BBX 3 3 1 8
BITMAP
80
C0
20
ENDCHAR
STARTCHAR uni02CD
ENCODING 717
SWIDTH 333 0
DWIDTH 4 0
BBX 4 1 0 -2
BITMAP
F0
ENDCHAR
STARTCHAR uni02CE
ENCODING 718
SWIDTH 333 0
DWIDTH 5 0
BBX 3 3 1 -4
BITMAP
80
C0
20
ENDCHAR
STARTCHAR uni02CF
ENCODING 719
SWIDTH 333 0
DWIDTH 5 0
BBX 3 3 1 -4
BITMAP
20
60
80
ENDCHAR
STARTCHAR breve
ENCODING 728
SWIDTH 333 0
DWIDTH 4 0
BBX 4 2 0 8
BITMAP
90
F0
ENDCHAR
STARTCHAR dotaccent
ENCODING 729
SWIDTH 333 0
DWIDTH 5 0
BBX 1 2 2 8
BITMAP
80
80
ENDCHAR
STARTCHAR ring
ENCODING 730
SWIDTH 333 0
DWIDTH 4 0
BBX 4 3 0 8
BITMAP
60
90
60
ENDCHAR
STARTCHAR ogonek
ENCODING 731
SWIDTH 333 0
DWIDTH 5 0
BBX 3 3 2 -3
BITMAP
40
80
60
ENDCHAR
STARTCHAR tilde
ENCODING 732
SWIDTH 333 0
DWIDTH 5 0
BBX 5 3 0 8
BITMAP
48
A8
90
ENDCHAR
STARTCHAR hungarumlaut
ENCODING 733
SWIDTH 333 0
DWIDTH 6 0
BBX 6 3 0 8
BITMAP
24
6C
90
ENDCHAR
STARTCHAR uni02EE
ENCODING 750
SWIDTH 444 0
DWIDTH 7 0
BBX 5 3 1 7
BITMAP
D8
48
90
ENDCHAR
STARTCHAR uni0374
ENCODING 884
SWIDTH 247 0
DWIDTH 4 0
BBX 4 3 0 7
BITMAP
30
60
80
ENDCHAR
STARTCHAR uni0375
ENCODING 885
SWIDTH 247 0
DWIDTH 4 0
BBX 4 3 0 -4
BITMAP
10
60
C0
ENDCHAR
STARTCHAR uni037E
ENCODING 894
SWIDTH 278 0
DWIDTH 4 0
BBX 2 9 1 -2
BITMAP
C0
00
00
00
00
00
C0
40
80
ENDCHAR
STARTCHAR tonos
ENCODING 900
SWIDTH 333 0
DWIDTH 5 0
BBX 3 3 1 8
BITMAP
20
60
80
ENDCHAR
STARTCHAR dieresistonos
ENCODING 901
SWIDTH 333 0
DWIDTH 5 0
BBX 4 6 1 8
BITMAP
10
30
40
00
A0
A0
ENDCHAR
STARTCHAR Alphatonos
ENCODING 902
SWIDTH 722 0
DWIDTH 11 0
BBX 11 10 -1 0
BITMAP
2200
6700
8500
0500
0880
0880
0F80
18C0
1040
38E0
ENDCHAR
STARTCHAR anoteleia
ENCODING 903
SWIDTH 250 0
DWIDTH 4 0
BBX 1 2 2 3
BITMAP
80
80
ENDCHAR
STARTCHAR Epsilontonos
ENCODING 904
SWIDTH 611 0
DWIDTH 9 0
BBX 10 10 -2 0
BITMAP
3FC0
6840
8800
0880
0F80
0880
0800
0840
0840
1FC0
ENDCHAR
STARTCHAR Etatonos
ENCODING 905
SWIDTH 722 0
DWIDTH 11 0
BBX 11 10 -1 0
BITMAP
38E0
7040
9040
1040
1FC0
1040
1040
1040
1040
38E0
ENDCHAR
STARTCHAR Iotatonos
ENCODING 906
SWIDTH 333 0
DWIDTH 5 0
BBX 6 10 -2 0
BITMAP
3C
68
88
08
08
08
08
08
08
1C
ENDCHAR
STARTCHAR Omicrontonos
ENCODING 908
SWIDTH 722 0
DWIDTH 10 0
BBX 11 10 -2 0
BITMAP
2780
6CC0
8840
1020
1020
1020
1020
0840
0CC0
0780
ENDCHAR
STARTCHAR Upsilontonos
ENCODING 910
SWIDTH 690 0
DWIDTH 9 0
BBX 11 10 -2 0
BITMAP
38E0
7040
8880
0880
0500
0200
0200
0200
0200
0700
ENDCHAR
STARTCHAR Omegatonos
ENCODING 911
SWIDTH 768 0
DWIDTH 11 0
BBX 12 10 -2 0
BITMAP
2300
6CC0
8840
1020
1020
1020
0840
0CC0
2490
3CF0
ENDCHAR
STARTCHAR iotadieresistonos
ENCODING 912
SWIDTH 329 0
DWIDTH 5 0
BBX 5 14 0 0
BITMAP
08
18
20
00
50
50
00
60
A0
20
20
20
28
30
ENDCHAR
STARTCHAR Alpha
ENCODING 913
SWIDTH 722 0
DWIDTH 11 0
BBX 9 10 1 0
BITMAP
0800
1C00
1400
1400
2200
2200
3E00
6300
4100
E380
ENDCHAR
STARTCHAR Beta
ENCODING 914
SWIDTH 667 0
DWIDTH 9 0
BBX 7 10 1 0
BITMAP
FC
46
42
46
7C
46
42
42
46
FC
ENDCHAR
STARTCHAR Gamma
ENCODING 915
SWIDTH 603 0
DWIDTH 9 0
BBX 7 10 1 0
BITMAP
FE
42
40
40
40
40
40
40
40
E0
ENDCHAR
STARTCHAR Delta
ENCODING 916
SWIDTH 612 0
DWIDTH 9 0
BBX 7 10 1 0
BITMAP
10
10
28
28
28
44
44
44
82
FE
ENDCHAR
STARTCHAR Epsilon
ENCODING 917
SWIDTH 611 0
DWIDTH 9 0
BBX 7 10 1 0
BITMAP
FE
42
40
44
7C
44
40
42
42
FE
ENDCHAR
STARTCHAR Zeta
ENCODING 918
SWIDTH 611 0
DWIDTH 9 0
BBX 7 10 1 0
BITMAP
FE
86
04
08
10
10
20
40
C2
FE
ENDCHAR
STARTCHAR Eta
ENCODING 919
SWIDTH 722 0
DWIDTH 11 0
BBX 9 10 1 0
BITMAP
E380
4100
4100
4100
7F00
4100
4100
4100
4100
E380
ENDCHAR
STARTCHAR Theta
ENCODING 920
SWIDTH 741 0
DWIDTH 10 0
BBX 8 10 1 0
BITMAP
3C
66
42
A5
BD
A5
81
42
66
3C
ENDCHAR
STARTCHAR Iota
ENCODING 921
SWIDTH 333 0
DWIDTH 5 0
BBX 3 10 1 0
BITMAP
E0
40
40
40
40
40
40
40
40
E0
ENDCHAR
STARTCHAR Kappa
ENCODING 922
SWIDTH 722 0
DWIDTH 10 0
BBX 8 10 1 0
BITMAP
EE
44
48
50
70
50
48
44
46
E7
ENDCHAR
STARTCHAR Lambda
ENCODING 923
SWIDTH 686 0
DWIDTH 10 0
BBX 9 10 0 0
BITMAP
0800
0800
1400
1400
2200
2200
2200
4100
4100
E380
ENDCHAR
STARTCHAR Mu
ENCODING 924
SWIDTH 889 0
DWIDTH 13 0
BBX 11 10 1 0
BITMAP
E0E0
60C0
5140
5140
5B40
4A40
4A40
4E40
4440
E4E0
ENDCHAR
STARTCHAR Nu
ENCODING 925
SWIDTH 722 0
DWIDTH 11 0
BBX 9 10 1 0
BITMAP
E380
6100
5100
5900
4900
4D00
4500
4500
4300
E300
ENDCHAR
STARTCHAR Xi
ENCODING 926
SWIDTH 645 0
DWIDTH 9 0
BBX 9 10 0 0
BITMAP
7F00
4100
0000
2200
3E00
2200
0000
0000
8080
FF80
ENDCHAR
STARTCHAR Omicron
ENCODING 927
SWIDTH 722 0
DWIDTH 10 0
BBX 8 10 1 0
BITMAP
3C
66
42
81
81
81
81
42
66
3C
ENDCHAR
STARTCHAR Pi
ENCODING 928
SWIDTH 768 0
DWIDTH 11 0
BBX 9 10 1 0
BITMAP
FF80
4100
4100
4100
4100
4100
4100
4100
4100
E380
ENDCHAR
STARTCHAR Rho
ENCODING 929
SWIDTH 556 0
DWIDTH 8 0
BBX 6 10 1 0
BITMAP
F8
4C
44
44
4C
78
40
40
40
E0
ENDCHAR
STARTCHAR Sigma
ENCODING 931
SWIDTH 592 0
DWIDTH 9 0
BBX 8 10 1 0
BITMAP
FE
C2
60
30
18
10
20
40
C1
FF
ENDCHAR
STARTCHAR Tau
ENCODING 932
SWIDTH 611 0
DWIDTH 9 0
BBX 7 10 1 0
BITMAP
FE
92
92
10
10
10
10
10
10
38
ENDCHAR
STARTCHAR Upsilon
ENCODING 933
SWIDTH 690 0
DWIDTH 9 0
BBX 9 10 0 0
BITMAP
E380
4100
2200
2200
1400
0800
0800
0800
0800
1C00
ENDCHAR
STARTCHAR Phi
ENCODING 934
SWIDTH 763 0
DWIDTH 11 0
BBX 9 10 1 0
BITMAP
1C00
0800
7F00
C980
8880
8880
C980
7F00
0800
1C00
ENDCHAR
STARTCHAR Chi
ENCODING 935
SWIDTH 722 0
DWIDTH 11 0
BBX 9 10 1 0
BITMAP
E380
4100
2200
1400
0800
1400
2200
2200
4100
E380
ENDCHAR
STARTCHAR Psi
ENCODING 936
SWIDTH 795 0
DWIDTH 11 0
BBX 11 10 0 0
BITMAP
CE60
64C0
2480
2480
1F00
0400
0400
0400
0400
0E00
ENDCHAR
STARTCHAR Omega
ENCODING 937
SWIDTH 768 0
DWIDTH 11 0
BBX 10 10 0 0
BITMAP
0C00
3300
2100
4080
4080
4080
2100
3300
9240
F3C0
ENDCHAR
STARTCHAR Iotadieresis
ENCODING 938
SWIDTH 333 0
DWIDTH 5 0
BBX 3 13 1 0
BITMAP
A0
A0
00
E0
40
40
40
40
40
40
40
40
E0
ENDCHAR
STARTCHAR Upsilondieresis
ENCODING 939
SWIDTH 690 0
DWIDTH 9 0
BBX 9 13 0 0
BITMAP
1400
1400
0000
E380
4100
2200
2200
1400
0800
0800
0800
0800
1C00
ENDCHAR
STARTCHAR alphatonos
ENCODING 940
SWIDTH 631 0
DWIDTH 9 0
BBX 8 11 1 0
BITMAP
04
0C
10
00
76
D4
88
88
88
D5
66
ENDCHAR
STARTCHAR epsilontonos
ENCODING 941
SWIDTH 439 0
DWIDTH 6 0
BBX 5 11 1 0
BITMAP
08
18
20
00
78
C8
80
60
80
C8
70
ENDCHAR
STARTCHAR etatonos
ENCODING 942
SWIDTH 603 0
DWIDTH 8 0
BBX 7 14 0 -3
BITMAP
04
0C
10
00
6C
B2
22
22
22
22
22
02
02
02
ENDCHAR
STARTCHAR iotatonos
ENCODING 943
SWIDTH 329 0
DWIDTH 5 0
BBX 5 11 0 0
BITMAP
10
30
40
00
60
A0
20
20
20
28
30
ENDCHAR
STARTCHAR upsilondieresistonos
ENCODING 944
SWIDTH 576 0
DWIDTH 8 0
BBX 7 14 0 0
BITMAP
04
0C
10
00
28
28
00
64
A2
22
22
22
26
1C
ENDCHAR
STARTCHAR alpha
ENCODING 945
SWIDTH 631 0
DWIDTH 9 0
BBX 8 7 1 0
BITMAP
76
D4
88
88
88
D5
66
ENDCHAR
STARTCHAR beta
ENCODING 946
SWIDTH 549 0
DWIDTH 8 0
BBX 6 14 1 -3
BITMAP
78
CC
84
8C
98
8C
84
84
84
CC
B8
80
80
80
ENDCHAR
STARTCHAR gamma
ENCODING 947
SWIDTH 411 0
DWIDTH 6 0
BBX 6 10 0 -3
BITMAP
C4
A4
24
28
28
18
18
10
30
30
ENDCHAR
STARTCHAR delta
ENCODING 948
SWIDTH 494 0
DWIDTH 7 0
BBX 5 11 1 0
BITMAP
70
98
80
40
70
98
88
88
88
D8
70
ENDCHAR
STARTCHAR epsilon
ENCODING 949
SWIDTH 439 0
DWIDTH 6 0
BBX 5 7 1 0
BITMAP
78
C8
80
60
80
C8
70
ENDCHAR
STARTCHAR zeta
ENCODING 950
SWIDTH 494 0
DWIDTH 7 0
BBX 6 14 1 -3
BITMAP
20
44
3C
10
20
40
40
80
80
C0
78
04
24
38
ENDCHAR
STARTCHAR eta
ENCODING 951
SWIDTH 603 0
DWIDTH 8 0
BBX 7 10 0 -3
BITMAP
6C
B2
22
22
22
22
22
02
02
02
ENDCHAR
STARTCHAR theta
ENCODING 952
SWIDTH 521 0
DWIDTH 7 0
BBX 5 10 1 0
BITMAP
70
D8
88
88
F8
88
88
88
D8
70
ENDCHAR
STARTCHAR iota
ENCODING 953
SWIDTH 329 0
DWIDTH 5 0
BBX 5 7 0 0
BITMAP
60
A0
20
20
20
28
30
ENDCHAR
STARTCHAR kappa
ENCODING 954
SWIDTH 549 0
DWIDTH 8 0
BBX 7 7 0 0
BITMAP
46
CA
50
70
58
4C
46
ENDCHAR
STARTCHAR lambda
ENCODING 955
SWIDTH 549 0
DWIDTH 8 0
BBX 8 10 0 0
BITMAP
60
50
10
10
28
28
48
44
85
83
ENDCHAR
STARTCHAR mu
ENCODING 956
SWIDTH 500 0
DWIDTH 7 0
BBX 7 10 0 -3
BITMAP
CC
44
44
44
44
6C
76
40
40
60
ENDCHAR
STARTCHAR nu
ENCODING 957
SWIDTH 521 0
DWIDTH 8 0
BBX 7 7 0 0
BITMAP
C6
42
22
22
14
14
08
ENDCHAR
STARTCHAR xi
ENCODING 958
SWIDTH 493 0
DWIDTH 7 0
BBX 6 15 1 -3
BITMAP
20
40
38
20
40
78
20
40
80
80
C0
78
04
24
38
ENDCHAR
STARTCHAR omicron
ENCODING 959
SWIDTH 549 0
DWIDTH 8 0
BBX 6 7 1 0
BITMAP
78
CC
84
84
84
CC
78
ENDCHAR
STARTCHAR pi
ENCODING 960
SWIDTH 549 0
DWIDTH 8 0
BBX 8 7 0 0
BITMAP
7E
A4
24
24
24
25
66
ENDCHAR
STARTCHAR rho
ENCODING 961
SWIDTH 549 0
DWIDTH 8 0
BBX 6 10 1 -3
BITMAP
78
CC
84
84
84
CC
B8
80
80
80
ENDCHAR
STARTCHAR sigma1
ENCODING 962
SWIDTH 439 0
DWIDTH 7 0
BBX 6 10 1 -3
BITMAP
38
C0
80
80
80
60
38
04
24
38
ENDCHAR
STARTCHAR sigma
ENCODING 963
SWIDTH 603 0
DWIDTH 8 0
BBX 7 7 1 0
BITMAP
7E
C8
84
84
84
CC
78
ENDCHAR
STARTCHAR tau
ENCODING 964
SWIDTH 439 0
DWIDTH 6 0
BBX 5 7 0 0
BITMAP
78
A0
20
20
20
28
30
ENDCHAR
STARTCHAR upsilon
ENCODING 965
SWIDTH 576 0
DWIDTH 8 0
BBX 7 7 0 0
BITMAP
64
A2
22
22
22
26
1C
ENDCHAR
STARTCHAR phi
ENCODING 966
SWIDTH 603 0
DWIDTH 9 0
BBX 7 10 1 -3
BITMAP
18
54
D2
92
92
54
38
10
10
10
ENDCHAR
STARTCHAR chi
ENCODING 967
SWIDTH 549 0
DWIDTH 8 0
BBX 8 10 0 -3
BITMAP
C3
A6
24
3C
18
38
28
64
45
C3
ENDCHAR
STARTCHAR psi
ENCODING 968
SWIDTH 686 0
DWIDTH 9 0
BBX 9 10 0 -3
BITMAP
8880
4900
4900
4900
6B00
3E00
1C00
0800
0800
0800
ENDCHAR
STARTCHAR omega
ENCODING 969
SWIDTH 686 0
DWIDTH 11 0
BBX 9 7 1 0
BITMAP
6300
8880
8880
8880
8880
C980
7700
ENDCHAR
STARTCHAR iotadieresis
ENCODING 970
SWIDTH 329 0
DWIDTH 5 0
BBX 5 10 0 0
BITMAP
50
50
00
60
A0
20
20
20
28
30
ENDCHAR
STARTCHAR upsilondieresis
ENCODING 971
SWIDTH 576 0
DWIDTH 8 0
BBX 7 10 0 0
BITMAP
28
28
00
64
A2
22
22
22
26
1C
ENDCHAR
STARTCHAR omicrontonos
ENCODING 972
SWIDTH 549 0
DWIDTH 8 0
BBX 6 11 1 0
BITMAP
08
18
20
00
78
CC
84
84
84
CC
78
ENDCHAR
STARTCHAR upsilontonos
ENCODING 973
SWIDTH 576 0
DWIDTH 8 0
BBX 7 11 0 0
BITMAP
08
18
20
00
64
A2
22
22
22
26
1C
ENDCHAR
STARTCHAR omegatonos
ENCODING 974
SWIDTH 686 0
DWIDTH 11 0
BBX 9 11 1 0
BITMAP
0200
0600
0800
0000
6300
8880
8880
8880
8880
C980
7700
ENDCHAR
STARTCHAR theta1
ENCODING 977
SWIDTH 631 0
DWIDTH 9 0
BBX 8 10 0 0
BITMAP
0C
0A
0A
66
A3
22
22
22
36
1C
ENDCHAR
STARTCHAR Upsilon1
ENCODING 978
SWIDTH 620 0
DWIDTH 9 0
BBX 8 10 0 0
BITMAP
C6
69
2B
10
10
10
10
10
10
38
ENDCHAR
STARTCHAR uni03D3
ENCODING 979
SWIDTH 620 0
DWIDTH 9 0
BBX 8 14 0 0
BITMAP
04
0C
10
00
C6
69
2B
10
10
10
10
10
10
38
ENDCHAR
STARTCHAR uni03D4
ENCODING 980
SWIDTH 620 0
DWIDTH 9 0
BBX 8 13 0 0
BITMAP
14
14
00
C6
69
2B
10
10
10
10
10
10
38
ENDCHAR
STARTCHAR phi1
ENCODING 981
SWIDTH 521 0
DWIDTH 9 0
BBX 7 13 1 -3
BITMAP
10
10
10
38
54
92
92
92
54
38
10
10
10
ENDCHAR
STARTCHAR omega1
ENCODING 982
SWIDTH 713 0
DWIDTH 11 0
BBX 10 8 0 0
BITMAP
7FC0
A080
4440
4440
4440
4440
64C0
3B80
ENDCHAR
STARTCHAR uni1E00
ENCODING 7680
SWIDTH 722 0
DWIDTH 11 0
BBX 9 14 1 -4
BITMAP
0800
0800
1400
1400
2200
2200
3E00
4100
4100
E380
0000
0C00
1200
0C00
ENDCHAR
STARTCHAR uni1E01
ENCODING 7681
SWIDTH 444 0
DWIDTH 7 0
BBX 6 11 1 -4
BITMAP
70
C8
18
68
88
C8
74
00
30
48
30
ENDCHAR
STARTCHAR uni1E02
ENCODING 7682
SWIDTH 667 0
DWIDTH 9 0
BBX 7 13 1 0
BITMAP
10
10
00
FC
46
42
46
7C
46
42
42
46
FC
ENDCHAR
STARTCHAR uni1E03
ENCODING 7683
SWIDTH 500 0
DWIDTH 7 0
BBX 6 13 0 0
BITMAP
40
40
00
C0
40
40
58
6C
44
44
44
4C
78
ENDCHAR
STARTCHAR uni1E04
ENCODING 7684
SWIDTH 667 0
DWIDTH 9 0
BBX 7 13 1 -3
BITMAP
FC
46
42
46
7C
46
42
42
46
FC
00
10
10
ENDCHAR
STARTCHAR uni1E05
ENCODING 7685
SWIDTH 500 0
DWIDTH 7 0
BBX 6 13 0 -3
BITMAP
C0
40
40
58
6C
44
44
44
4C
78
00
10
10
ENDCHAR
STARTCHAR uni1E06
ENCODING 7686
SWIDTH 667 0
DWIDTH 9 0
BBX 7 12 1 -2
BITMAP
FC
46
42
46
7C
46
42
42
46
FC
00
3C
ENDCHAR
STARTCHAR uni1E07
ENCODING 7687
SWIDTH 500 0
DWIDTH 7 0
BBX 6 12 0 -2
BITMAP
C0
40
40
58
6C
44
44
44
4C
78
00
78
ENDCHAR
STARTCHAR uni1E08
ENCODING 7688
SWIDTH 667 0
DWIDTH 10 0
BBX 8 17 1 -3
BITMAP
02
06
08
00
3D
63
41
81
80
80
80
C1
62
3C
08
04
18
ENDCHAR
STARTCHAR uni1E09
ENCODING 7689
SWIDTH 444 0
DWIDTH 7 0
BBX 6 14 1 -3
BITMAP
08
18
20
00
70
C8
80
80
80
C4
78
20
10
60
ENDCHAR
STARTCHAR uni1E0A
ENCODING 7690
SWIDTH 722 0
DWIDTH 10 0
BBX 9 13 0 0
BITMAP
0800
0800
0000
FE00
2300
2100
2080
2080
2080
2080
2100
2300
FE00
ENDCHAR
STARTCHAR uni1E0B
ENCODING 7691
SWIDTH 500 0
DWIDTH 7 0
BBX 6 13 1 0
BITMAP
10
10
00
18
08
08
78
C8
88
88
88
D8
74
ENDCHAR
STARTCHAR uni1E0C
ENCODING 7692
SWIDTH 722 0
DWIDTH 10 0
BBX 9 13 0 -3
BITMAP
FE00
2300
2100
2080
2080
2080
2080
2100
2300
FE00
0000
0800
0800
ENDCHAR
STARTCHAR uni1E0D
ENCODING 7693
SWIDTH 500 0
DWIDTH 7 0
BBX 6 13 1 -3
BITMAP
18
08
08
78
C8
88
88
88
D8
74
00
20
20
ENDCHAR
STARTCHAR uni1E0E
ENCODING 7694
SWIDTH 722 0
DWIDTH 10 0
BBX 9 12 0 -2
BITMAP
FE00
2300
2100
2080
2080
2080
2080
2100
2300
FE00
0000
3C00
ENDCHAR
STARTCHAR uni1E0F
ENCODING 7695
SWIDTH 500 0
DWIDTH 7 0
BBX 6 12 1 -2
BITMAP
18
08
08
78
C8
88
88
88
D8
74
00
78
ENDCHAR
STARTCHAR uni1E10
ENCODING 7696
SWIDTH 722 0
DWIDTH 10 0
BBX 9 13 0 -3
BITMAP
FE00
2300
2100
2080
2080
2080
2080
2100
2300
FE00
0800
0400
1800
ENDCHAR
STARTCHAR uni1E11
ENCODING 7697
SWIDTH 500 0
DWIDTH 7 0
BBX 6 13 1 -3
BITMAP
18
08
08
78
C8
88
88
88
D8
74
20
10
60
ENDCHAR
STARTCHAR uni1E12
ENCODING 7698
SWIDTH 722 0
DWIDTH 10 0
BBX 9 14 0 -4
BITMAP
FE00
2300
2100
2080
2080
2080
2080
2100
2300
FE00
0000
0800
1C00
2200
ENDCHAR
STARTCHAR uni1E13
ENCODING 7699
SWIDTH 500 0
DWIDTH 7 0
BBX 6 14 1 -4
BITMAP
18
08
08
78
C8
88
88
88
D8
74
00
20
70
88
ENDCHAR
STARTCHAR uni1E14
ENCODING 7700
SWIDTH 611 0
DWIDTH 9 0
BBX 7 16 1 0
BITMAP
40
60
10
00
78
00
FE
42
40
44
7C
44
40
42
42
FE
ENDCHAR
STARTCHAR uni1E15
ENCODING 7701
SWIDTH 444 0
DWIDTH 7 0
BBX 6 13 1 0
BITMAP
40
60
10
00
78
00
70
88
F8
80
80
C4
78
ENDCHAR
STARTCHAR uni1E16
ENCODING 7702
SWIDTH 611 0
DWIDTH 9 0
BBX 7 16 1 0
BITMAP
04
0C
10
00
78
00
FE
42
40
44
7C
44
40
42
42
FE
ENDCHAR
STARTCHAR uni1E17
ENCODING 7703
SWIDTH 444 0
DWIDTH 7 0
BBX 6 13 1 0
BITMAP
08
18
20
00
78
00
70
88
F8
80
80
C4
78
ENDCHAR
STARTCHAR uni1E18
ENCODING 7704
SWIDTH 611 0
DWIDTH 9 0
BBX 7 14 1 -4
BITMAP
FE
42
40
44
7C
44
40
42
42
FE
00
10
38
44
ENDCHAR
STARTCHAR uni1E19
ENCODING 7705
SWIDTH 444 0
DWIDTH 7 0
BBX 6 11 1 -4
BITMAP
70
88
F8
80
80
C4
78
00
20
70
88
ENDCHAR
STARTCHAR uni1E1A
ENCODING 7706
SWIDTH 611 0
DWIDTH 9 0
BBX 7 14 1 -4
BITMAP
FE
42
40
44
7C
44
40
42
42
FE
00
24
54
48
ENDCHAR
STARTCHAR uni1E1B
ENCODING 7707
SWIDTH 444 0
DWIDTH 7 0
BBX 6 11 1 -4
BITMAP
70
88
F8
80
80
C4
78
00
48
A8
90
ENDCHAR
STARTCHAR uni1E1C
ENCODING 7708
SWIDTH 611 0
DWIDTH 9 0
BBX 7 16 1 -3
BITMAP
48
78
00
FE
42
40
44
7C
44
40
42
42
FE
10
08
30
ENDCHAR
STARTCHAR uni1E1D
ENCODING 7709
SWIDTH 444 0
DWIDTH 7 0
BBX 6 13 1 -3
BITMAP
48
78
00
70
88
F8
80
80
C4
78
20
10
60
ENDCHAR
STARTCHAR uni1E1E
ENCODING 7710
SWIDTH 556 0
DWIDTH 8 0
BBX 7 13 1 0
BITMAP
10
10
00
FE
42
40
44
7C
44
40
40
40
E0
ENDCHAR
STARTCHAR uni1E1F
ENCODING 7711
SWIDTH 333 0
DWIDTH 4 0
BBX 5 13 0 0
BITMAP
20
20
00
38
60
40
F8
40
40
40
40
40
F0
ENDCHAR
STARTCHAR uni1E20
ENCODING 7712
SWIDTH 722 0
DWIDTH 11 0
BBX 9 12 1 0
BITMAP
1E00
0000
3D00
6300
4100
8100
8000
8780
8100
C100
6300
3E00
ENDCHAR
STARTCHAR uni1E21
ENCODING 7713
SWIDTH 500 0
DWIDTH 7 0
BBX 6 12 1 -3
BITMAP
78
00
78
D0
88
C8
70
40
78
84
CC
70
ENDCHAR
STARTCHAR uni1E22
ENCODING 7714
SWIDTH 722 0
DWIDTH 10 0
BBX 8 13 1 0
BITMAP
08
08
00
E7
42
42
42
7E
42
42
42
42
E7
ENDCHAR
STARTCHAR uni1E23
ENCODING 7715
SWIDTH 500 0
DWIDTH 7 0
BBX 7 13 0 0
BITMAP
20
20
00
C0
40
40
58
6C
44
44
44
44
EE
ENDCHAR
STARTCHAR uni1E24
ENCODING 7716
SWIDTH 722 0
DWIDTH 10 0
BBX 8 13 1 -3
BITMAP
E7
42
42
42
7E
42
42
42
42
E7
00
08
08
ENDCHAR
STARTCHAR uni1E25
ENCODING 7717
SWIDTH 500 0
DWIDTH 7 0
BBX 7 13 0 -3
BITMAP
C0
40
40
58
6C
44
44
44
44
EE
00
10
10
ENDCHAR
STARTCHAR uni1E26
ENCODING 7718
SWIDTH 722 0
DWIDTH 10 0
BBX 8 13 1 0
BITMAP
14
14
00
E7
42
42
42
7E
42
42
42
42
E7
ENDCHAR
STARTCHAR uni1E27
ENCODING 7719
SWIDTH 500 0
DWIDTH 7 0
BBX 7 13 0 0
BITMAP
50
50
00
C0
40
40
58
6C
44
44
44
44
EE
ENDCHAR
STARTCHAR uni1E28
ENCODING 7720
SWIDTH 722 0
DWIDTH 10 0
BBX 8 13 1 -3
BITMAP
E7
42
42
42
7E
42
42
42
42
E7
08
04
18
ENDCHAR
STARTCHAR uni1E29
ENCODING 7721
SWIDTH 500 0
DWIDTH 7 0
BBX 7 13 0 -3
BITMAP
C0
40
40
58
6C
44
44
44
44
EE
10
08
30
ENDCHAR
STARTCHAR uni1E2A
ENCODING 7722
SWIDTH 722 0
DWIDTH 10 0
BBX 8 13 1 -3
BITMAP
E7
42
42
42
7E
42
42
42
42
E7
00
24
3C
ENDCHAR
STARTCHAR uni1E2B
ENCODING 7723
SWIDTH 500 0
DWIDTH 7 0
BBX 7 13 0 -3
BITMAP
C0
40
40
58
6C
44
44
44
44
EE
00
24
3C
ENDCHAR
STARTCHAR uni1E2C
ENCODING 7724
SWIDTH 333 0
DWIDTH 5 0
BBX 5 14 0 -4
BITMAP
70
20
20
20
20
20
20
20
20
70
00
48
A8
90
ENDCHAR
STARTCHAR uni1E2D
ENCODING 7725
SWIDTH 278 0
DWIDTH 3 0
BBX 5 14 -1 -4
BITMAP
20
20
00
60
20
20
20
20
20
70
00
48
A8
90
ENDCHAR
STARTCHAR uni1E2E
ENCODING 7726
SWIDTH 333 0
DWIDTH 5 0
BBX 4 17 1 0
BITMAP
10
30
40
00
A0
A0
00
E0
40
40
40
40
40
40
40
40
E0
ENDCHAR
STARTCHAR uni1E2F
ENCODING 7727
SWIDTH 278 0
DWIDTH 3 0
BBX 4 14 0 0
BITMAP
10
30
40
00
A0
A0
00
C0
40
40
40
40
40
E0
ENDCHAR
STARTCHAR uni1E30
ENCODING 7728
SWIDTH 722 0
DWIDTH 10 0
BBX 8 14 1 0
BITMAP
04
0C
10
00
EE
44
48
50
70
50
48
44
46
E7
ENDCHAR
STARTCHAR uni1E31
ENCODING 7729
SWIDTH 500 0
DWIDTH 7 0
BBX 7 14 0 0
BITMAP
10
30
40
00
C0
40
40
4C
48
70
50
48
4C
E6
ENDCHAR
STARTCHAR uni1E32
ENCODING 7730
SWIDTH 722 0
DWIDTH 10 0
BBX 8 13 1 -3
BITMAP
EE
44
48
50
70
50
48
44
46
E7
00
08
08
ENDCHAR
STARTCHAR uni1E33
ENCODING 7731
SWIDTH 500 0
DWIDTH 7 0
BBX 7 13 0 -3
BITMAP
C0
40
40
4C
48
70
50
48
4C
E6
00
10
10
ENDCHAR
STARTCHAR uni1E34
ENCODING 7732
SWIDTH 722 0
DWIDTH 10 0
BBX 8 12 1 -2
BITMAP
EE
44
48
50
70
50
48
44
46
E7
00
3C
ENDCHAR
STARTCHAR uni1E35
ENCODING 7733
SWIDTH 500 0
DWIDTH 7 0
BBX 7 12 0 -2
BITMAP
C0
40
40
4C
48
70
50
48
4C
E6
00
78
ENDCHAR
STARTCHAR uni1E36
ENCODING 7734
SWIDTH 611 0
DWIDTH 9 0
BBX 7 13 1 -3
BITMAP
E0
40
40
40
40
40
40
40
42
FE
00
10
10
ENDCHAR
STARTCHAR uni1E37
ENCODING 7735
SWIDTH 278 0
DWIDTH 3 0
BBX 3 13 0 -3
BITMAP
C0
40
40
40
40
40
40
40
40
E0
00
40
40
ENDCHAR
STARTCHAR uni1E38
ENCODING 7736
SWIDTH 611 0
DWIDTH 9 0
BBX 7 15 1 -3
BITMAP
F0
00
E0
40
40
40
40
40
40
40
42
FE
00
10
10
ENDCHAR
STARTCHAR uni1E39
ENCODING 7737
SWIDTH 278 0
DWIDTH 3 0
BBX 4 15 -1 -3
BITMAP
F0
00
60
20
20
20
20
20
20
20
20
70
00
20
20
ENDCHAR
STARTCHAR uni1E3A
ENCODING 7738
SWIDTH 611 0
DWIDTH 9 0
BBX 7 12 1 -2
BITMAP
E0
40
40
40
40
40
40
40
42
FE
00
78
ENDCHAR
STARTCHAR uni1E3B
ENCODING 7739
SWIDTH 278 0
DWIDTH 3 0
BBX 4 12 0 -2
BITMAP
C0
40
40
40
40
40
40
40
40
E0
00
F0
ENDCHAR
STARTCHAR uni1E3C
ENCODING 7740
SWIDTH 611 0
DWIDTH 9 0
BBX 7 14 1 -4
BITMAP
E0
40
40
40
40
40
40
40
42
FE
00
10
38
44
ENDCHAR
STARTCHAR uni1E3D
ENCODING 7741
SWIDTH 278 0
DWIDTH 3 0
BBX 5 14 -1 -4
BITMAP
60
20
20
20
20
20
20
20
20
70
00
20
70
88
ENDCHAR
STARTCHAR uni1E3E
ENCODING 7742
SWIDTH 889 0
DWIDTH 13 0
BBX 11 14 1 0
BITMAP
0100
0300
0400
0000
E0E0
60C0
5140
5140
5B40
4A40
4A40
4E40
4440
E4E0
ENDCHAR
STARTCHAR uni1E3F
ENCODING 7743
SWIDTH 778 0
DWIDTH 11 0
BBX 11 11 0 0
BITMAP
0200
0600
0800
0000
DB80
6EC0
4440
4440
4440
4440
EEE0
ENDCHAR
STARTCHAR uni1E40
ENCODING 7744
SWIDTH 889 0
DWIDTH 13 0
BBX 11 13 1 0
BITMAP
0400
0400
0000
E0E0
60C0
5140
5140
5B40
4A40
4A40
4E40
4440
E4E0
ENDCHAR
STARTCHAR uni1E41
ENCODING 7745
SWIDTH 778 0
DWIDTH 11 0
BBX 11 10 0 0
BITMAP
0400
0400
0000
DB80
6EC0
4440
4440
4440
4440
EEE0
ENDCHAR
STARTCHAR uni1E42
ENCODING 7746
SWIDTH 889 0
DWIDTH 13 0
BBX 11 13 1 -3
BITMAP
E0E0
60C0
5140
5140
5B40
4A40
4A40
4E40
4440
E4E0
0000
0400
0400
ENDCHAR
STARTCHAR uni1E43
ENCODING 7747
SWIDTH 778 0
DWIDTH 11 0
BBX 11 10 0 -3
BITMAP
DB80
6EC0
4440
4440
4440
4440
EEE0
0000
0400
0400
ENDCHAR
STARTCHAR uni1E44
ENCODING 7748
SWIDTH 722 0
DWIDTH 11 0
BBX 9 13 1 0
BITMAP
0800
0800
0000
E380
6100
5100
5900
4900
4D00
4500
4500
4300
E300
ENDCHAR
STARTCHAR uni1E45
ENCODING 7749
SWIDTH 500 0
DWIDTH 7 0
BBX 7 10 0 0
BITMAP
10
10
00
D8
6C
44
44
44
44
EE
ENDCHAR
STARTCHAR uni1E46
ENCODING 7750
SWIDTH 722 0
DWIDTH 11 0
BBX 9 13 1 -3
BITMAP
E380
6100
5100
5900
4900
4D00
4500
4500
4300
E300
0000
0800
0800
ENDCHAR
STARTCHAR uni1E47
ENCODING 7751
SWIDTH 500 0
DWIDTH 7 0
BBX 7 10 0 -3
BITMAP
D8
6C
44
44
44
44
EE
00
10
10
ENDCHAR
STARTCHAR uni1E48
ENCODING 7752
SWIDTH 722 0
DWIDTH 11 0
BBX 9 12 1 -2
BITMAP
E380
6100
5100
5900
4900
4D00
4500
4500
4300
E300
0000
3C00
ENDCHAR
STARTCHAR uni1E49
ENCODING 7753
SWIDTH 500 0
DWIDTH 7 0
BBX 7 9 0 -2
BITMAP
D8
6C
44
44
44
44
EE
00
3C
ENDCHAR
STARTCHAR uni1E4A
ENCODING 7754
SWIDTH 722 0
DWIDTH 11 0
BBX 9 14 1 -4
BITMAP
E380
6100
5100
5900
4900
4D00
4500
4500
4300
E300
0000
0800
1C00
2200
ENDCHAR
STARTCHAR uni1E4B
ENCODING 7755
SWIDTH 500 0
DWIDTH 7 0
BBX 7 11 0 -4
BITMAP
D8
6C
44
44
44
44
EE
00
10
38
44
ENDCHAR
STARTCHAR uni1E4C
ENCODING 7756
SWIDTH 722 0
DWIDTH 10 0
BBX 8 18 1 0
BITMAP
04
0C
10
00
24
54
48
00
3C
66
42
81
81
81
81
42
66
3C
ENDCHAR
STARTCHAR uni1E4D
ENCODING 7757
SWIDTH 500 0
DWIDTH 7 0
BBX 5 15 1 0
BITMAP
08
18
20
00
48
A8
90
00
70
D8
88
88
88
D8
70
ENDCHAR
STARTCHAR uni1E4E
ENCODING 7758
SWIDTH 722 0
DWIDTH 10 0
BBX 8 17 1 0
BITMAP
28
28
00
24
54
48
00
3C
66
42
81
81
81
81
42
66
3C
ENDCHAR
STARTCHAR uni1E4F
ENCODING 7759
SWIDTH 500 0
DWIDTH 7 0
BBX 5 14 1 0
BITMAP
50
50
00
48
A8
90
00
70
D8
88
88
88
D8
70
ENDCHAR
STARTCHAR uni1E50
ENCODING 7760
SWIDTH 722 0
DWIDTH 10 0
BBX 8 16 1 0
BITMAP
20
30
08
00
3C
00
3C
66
42
81
81
81
81
42
66
3C
ENDCHAR
STARTCHAR uni1E51
ENCODING 7761
SWIDTH 500 0
DWIDTH 7 0
BBX 5 13 1 0
BITMAP
40
60
10
00
78
00
70
D8
88
88
88
D8
70
ENDCHAR
STARTCHAR uni1E52
ENCODING 7762
SWIDTH 722 0
DWIDTH 10 0
BBX 8 16 1 0
BITMAP
04
0C
10
00
3C
00
3C
66
42
81
81
81
81
42
66
3C
ENDCHAR
STARTCHAR uni1E53
ENCODING 7763
SWIDTH 500 0
DWIDTH 7 0
BBX 5 13 1 0
BITMAP
08
18
20
00
78
00
70
D8
88
88
88
D8
70
ENDCHAR
STARTCHAR uni1E54
ENCODING 7764
SWIDTH 556 0
DWIDTH 8 0
BBX 6 14 1 0
BITMAP
08
18
20
00
F8
4C
44
44
4C
78
40
40
40
E0
ENDCHAR
STARTCHAR uni1E55
ENCODING 7765
SWIDTH 500 0
DWIDTH 7 0
BBX 6 14 0 -3
BITMAP
08
18
20
00
D8
6C
44
44
44
6C
58
40
40
E0
ENDCHAR
STARTCHAR uni1E56
ENCODING 7766
SWIDTH 556 0
DWIDTH 8 0
BBX 6 13 1 0
BITMAP
10
10
00
F8
4C
44
44
4C
78
40
40
40
E0
ENDCHAR
STARTCHAR uni1E57
ENCODING 7767
SWIDTH 500 0
DWIDTH 7 0
BBX 6 13 0 -3
BITMAP
10
10
00
D8
6C
44
44
44
6C
58
40
40
E0
ENDCHAR
STARTCHAR uni1E58
ENCODING 7768
SWIDTH 667 0
DWIDTH 9 0
BBX 9 13 0 0
BITMAP
0800
0800
0000
FC00
2600
2200
2200
2600
3C00
2400
2200
2300
F180
ENDCHAR
STARTCHAR uni1E59
ENCODING 7769
SWIDTH 333 0
DWIDTH 5 0
BBX 5 10 0 0
BITMAP
20
20
00
B8
60
40
40
40
40
E0
ENDCHAR
STARTCHAR uni1E5A
ENCODING 7770
SWIDTH 667 0
DWIDTH 9 0
BBX 9 13 0 -3
BITMAP
FC00
2600
2200
2200
2600
3C00
2400
2200
2300
F180
0000
0800
0800
ENDCHAR
STARTCHAR uni1E5B
ENCODING 7771
SWIDTH 333 0
DWIDTH 5 0
BBX 5 10 0 -3
BITMAP
B8
60
40
40
40
40
E0
00
40
40
ENDCHAR
STARTCHAR uni1E5C
ENCODING 7772
SWIDTH 667 0
DWIDTH 9 0
BBX 9 15 0 -3
BITMAP
3C00
0000
FC00
2600
2200
2200
2600
3C00
2400
2200
2300
F180
0000
0800
0800
ENDCHAR
STARTCHAR uni1E5D
ENCODING 7773
SWIDTH 333 0
DWIDTH 5 0
BBX 5 12 0 -3
BITMAP
F0
00
B8
60
40
40
40
40
E0
00
40
40
ENDCHAR
STARTCHAR uni1E5E
ENCODING 7774
SWIDTH 667 0
DWIDTH 9 0
BBX 9 12 0 -2
BITMAP
FC00
2600
2200
2200
2600
3C00
2400
2200
2300
F180
0000
1E00
ENDCHAR
STARTCHAR uni1E5F
ENCODING 7775
SWIDTH 333 0
DWIDTH 5 0
BBX 5 9 0 -2
BITMAP
B8
60
40
40
40
40
E0
00
F0
ENDCHAR
STARTCHAR uni1E60
ENCODING 7776
SWIDTH 556 0
DWIDTH 8 0
BBX 6 13 1 0
BITMAP
10
10
00
74
CC
84
C0
70
18
04
84
CC
B8
ENDCHAR
STARTCHAR uni1E61
ENCODING 7777
SWIDTH 389 0
DWIDTH 6 0
BBX 4 10 1 0
BITMAP
20
20
00
70
90
C0
60
30
90
E0
ENDCHAR
STARTCHAR uni1E62
ENCODING 7778
SWIDTH 556 0
DWIDTH 8 0
BBX 6 13 1 -3
BITMAP
74
CC
84
C0
70
18
04
84
CC
B8
00
20
20
ENDCHAR
STARTCHAR uni1E63
ENCODING 7779
SWIDTH 389 0
DWIDTH 6 0
BBX 4 10 1 -3
BITMAP
70
90
C0
60
30
90
E0
00
40
40
ENDCHAR
STARTCHAR uni1E64
ENCODING 7780
SWIDTH 556 0
DWIDTH 8 0
BBX 6 17 1 0
BITMAP
10
10
00
08
18
20
00
74
CC
84
C0
70
18
04
84
CC
B8
ENDCHAR
STARTCHAR uni1E65
ENCODING 7781
SWIDTH 389 0
DWIDTH 6 0
BBX 4 14 1 0
BITMAP
20
20
00
10
30
40
00
70
90
C0
60
30
90
E0
ENDCHAR
STARTCHAR uni1E66
ENCODING 7782
SWIDTH 556 0
DWIDTH 8 0
BBX 6 17 1 0
BITMAP
20
20
00
88
70
20
00
74
CC
84
C0
70
18
04
84
CC
B8
ENDCHAR
STARTCHAR uni1E67
ENCODING 7783
SWIDTH 389 0
DWIDTH 6 0
BBX 5 14 1 0
BITMAP
20
20
00
88
70
20
00
70
90
C0
60
30
90
E0
ENDCHAR
STARTCHAR uni1E68
ENCODING 7784
SWIDTH 556 0
DWIDTH 8 0
BBX 6 16 1 -3
BITMAP
20
20
00
74
CC
84
C0
70
18
04
84
CC
B8
00
20
20
ENDCHAR
STARTCHAR uni1E69
ENCODING 7785
SWIDTH 389 0
DWIDTH 6 0
BBX 4 13 1 -3
BITMAP
40
40
00
70
90
C0
60
30
90
E0
00
40
40
ENDCHAR
STARTCHAR uni1E6A
ENCODING 7786
SWIDTH 611 0
DWIDTH 9 0
BBX 7 13 1 0
BITMAP
10
10
00
FE
92
92
10
10
10
10
10
10
38
ENDCHAR
STARTCHAR uni1E6B
ENCODING 7787
SWIDTH 278 0
DWIDTH 4 0
BBX 4 11 0 0
BITMAP
40
40
00
40
F0
40
40
40
40
40
30
ENDCHAR
STARTCHAR uni1E6C
ENCODING 7788
SWIDTH 611 0
DWIDTH 9 0
BBX 7 13 1 -3
BITMAP
FE
92
92
10
10
10
10
10
10
38
00
10
10
ENDCHAR
STARTCHAR uni1E6D
ENCODING 7789
SWIDTH 278 0
DWIDTH 4 0
BBX 4 11 0 -3
BITMAP
40
F0
40
40
40
40
40
30
00
20
20
ENDCHAR
STARTCHAR uni1E6E
ENCODING 7790
SWIDTH 611 0
DWIDTH 9 0
BBX 7 12 1 -2
BITMAP
FE
92
92
10
10
10
10
10
10
38
00
3C
ENDCHAR
STARTCHAR uni1E6F
ENCODING 7791
SWIDTH 278 0
DWIDTH 4 0
BBX 4 10 0 -2
BITMAP
40
F0
40
40
40
40
40
30
00
F0
ENDCHAR
STARTCHAR uni1E70
ENCODING 7792
SWIDTH 611 0
DWIDTH 9 0
BBX 7 14 1 -4
BITMAP
FE
92
92
10
10
10
10
10
10
38
00
10
38
44
ENDCHAR
STARTCHAR uni1E71
ENCODING 7793
SWIDTH 278 0
DWIDTH 4 0
BBX 5 12 0 -4
BITMAP
40
F0
40
40
40
40
40
30
00
20
70
88
ENDCHAR
STARTCHAR uni1E72
ENCODING 7794
SWIDTH 722 0
DWIDTH 10 0
BBX 8 13 1 -3
BITMAP
E7
42
42
42
42
42
42
42
66
3C
00
14
14
ENDCHAR
STARTCHAR uni1E73
ENCODING 7795
SWIDTH 500 0
DWIDTH 7 0
BBX 7 10 0 -3
BITMAP
CC
44
44
44
44
6C
36
00
28
28
ENDCHAR
STARTCHAR uni1E74
ENCODING 7796
SWIDTH 722 0
DWIDTH 10 0
BBX 8 14 1 -4
BITMAP
E7
42
42
42
42
42
42
42
66
3C
00
24
54
48
ENDCHAR
STARTCHAR uni1E75
ENCODING 7797
SWIDTH 500 0
DWIDTH 7 0
BBX 7 11 0 -4
BITMAP
CC
44
44
44
44
6C
36
00
24
54
48
ENDCHAR
STARTCHAR uni1E76
ENCODING 7798
SWIDTH 722 0
DWIDTH 10 0
BBX 8 14 1 -4
BITMAP
E7
42
42
42
42
42
42
42
66
3C
00
08
1C
22
ENDCHAR
STARTCHAR uni1E77
ENCODING 7799
SWIDTH 500 0
DWIDTH 7 0
BBX 7 11 0 -4
BITMAP
CC
44
44
44
44
6C
36
00
10
38
44
ENDCHAR
STARTCHAR uni1E78
ENCODING 7800
SWIDTH 722 0
DWIDTH 10 0
BBX 8 18 1 0
BITMAP
02
06
08
00
12
2A
24
00
E7
42
42
42
42
42
42
42
66
3C
ENDCHAR
STARTCHAR uni1E79
ENCODING 7801
SWIDTH 500 0
DWIDTH 7 0
BBX 7 15 0 0
BITMAP
04
0C
10
00
24
54
48
00
CC
44
44
44
44
6C
36
ENDCHAR
STARTCHAR uni1E7A
ENCODING 7802
SWIDTH 722 0
DWIDTH 10 0
BBX 8 15 1 0
BITMAP
14
14
00
3C
00
E7
42
42
42
42
42
42
42
66
3C
ENDCHAR
STARTCHAR uni1E7B
ENCODING 7803
SWIDTH 500 0
DWIDTH 7 0
BBX 7 12 0 0
BITMAP
28
28
00
78
00
CC
44
44
44
44
6C
36
ENDCHAR
STARTCHAR uni1E7C
ENCODING 7804
SWIDTH 722 0
DWIDTH 9 0
BBX 9 14 0 0
BITMAP
1200
2A00
2400
0000
E380
4100
6300
2200
2200
3600
1400
1C00
0800
0800
ENDCHAR
STARTCHAR uni1E7D
ENCODING 7805
SWIDTH 500 0
DWIDTH 7 0
BBX 7 11 0 0
BITMAP
24
54
48
00
EE
44
44
28
28
10
10
ENDCHAR
STARTCHAR uni1E7E
ENCODING 7806
SWIDTH 722 0
DWIDTH 9 0
BBX 9 13 0 -3
BITMAP
E380
4100
6300
2200
2200
3600
1400
1C00
0800
0800
0000
0800
0800
ENDCHAR
STARTCHAR uni1E7F
ENCODING 7807
SWIDTH 500 0
DWIDTH 7 0
BBX 7 10 0 -3
BITMAP
EE
44
44
28
28
10
10
00
10
10
ENDCHAR
STARTCHAR Wgrave
ENCODING 7808
SWIDTH 944 0
DWIDTH 13 0
BBX 13 14 0 0
BITMAP
0800
0C00
0200
0000
E738
4210
6230
2220
2520
3560
1540
18C0
0880
0880
ENDCHAR
STARTCHAR wgrave
ENCODING 7809
SWIDTH 722 0
DWIDTH 11 0
BBX 11 11 0 0
BITMAP
1000
1800
0400
0000
EEE0
4440
4440
2480
3B80
1100
1100
ENDCHAR
STARTCHAR Wacute
ENCODING 7810
SWIDTH 944 0
DWIDTH 13 0
BBX 13 14 0 0
BITMAP
0080
0180
0200
0000
E738
4210
6230
2220
2520
3560
1540
18C0
0880
0880
ENDCHAR
STARTCHAR wacute
ENCODING 7811
SWIDTH 722 0
DWIDTH 11 0
BBX 11 11 0 0
BITMAP
0100
0300
0400
0000
EEE0
4440
4440
2480
3B80
1100
1100
ENDCHAR
STARTCHAR Wdieresis
ENCODING 7812
SWIDTH 944 0
DWIDTH 13 0
BBX 13 13 0 0
BITMAP
0500
0500
0000
E738
4210
6230
2220
2520
3560
1540
18C0
0880
0880
ENDCHAR
STARTCHAR wdieresis
ENCODING 7813
SWIDTH 722 0
DWIDTH 11 0
BBX 11 10 0 0
BITMAP
0A00
0A00
0000
EEE0
4440
4440
2480
3B80
1100
1100
ENDCHAR
STARTCHAR uni1E86
ENCODING 7814
SWIDTH 944 0
DWIDTH 13 0
BBX 13 13 0 0
BITMAP
0200
0200
0000
E738
4210
6230
2220
2520
3560
1540
18C0
0880
0880
ENDCHAR
STARTCHAR uni1E87
ENCODING 7815
SWIDTH 722 0
DWIDTH 11 0
BBX 11 10 0 0
BITMAP
0400
0400
0000
EEE0
4440
4440
2480
3B80
1100
1100
ENDCHAR
STARTCHAR uni1E88
ENCODING 7816
SWIDTH 944 0
DWIDTH 13 0
BBX 13 13 0 -3
BITMAP
E738
4210
6230
2220
2520
3560
1540
18C0
0880
0880
0000
0200
0200
ENDCHAR
STARTCHAR uni1E89
ENCODING 7817
SWIDTH 722 0
DWIDTH 11 0
BBX 11 10 0 -3
BITMAP
EEE0
4440
4440
2480
3B80
1100
1100
0000
0400
0400
ENDCHAR
STARTCHAR uni1E8A
ENCODING 7818
SWIDTH 722 0
DWIDTH 10 0
BBX 10 13 0 0
BITMAP
0400
0400
0000
7380
2100
1200
1200
0C00
0C00
1200
2100
6180
F3C0
ENDCHAR
STARTCHAR uni1E8B
ENCODING 7819
SWIDTH 500 0
DWIDTH 7 0
BBX 7 10 0 0
BITMAP
10
10
00
EE
44
38
10
38
44
EE
ENDCHAR
STARTCHAR uni1E8C
ENCODING 7820
SWIDTH 722 0
DWIDTH 10 0
BBX 10 13 0 0
BITMAP
0A00
0A00
0000
7380
2100
1200
1200
0C00
0C00
1200
2100
6180
F3C0
ENDCHAR
STARTCHAR uni1E8D
ENCODING 7821
SWIDTH 500 0
DWIDTH 7 0
BBX 7 10 0 0
BITMAP
28
28
00
EE
44
38
10
38
44
EE
ENDCHAR
STARTCHAR uni1E8E
ENCODING 7822
SWIDTH 722 0
DWIDTH 9 0
BBX 9 13 0 0
BITMAP
0800
0800
0000
E380
4100
2200
2200
1400
0800
0800
0800
0800
1C00
ENDCHAR
STARTCHAR uni1E8F
ENCODING 7823
SWIDTH 500 0
DWIDTH 7 0
BBX 7 13 0 -3
BITMAP
10
10
00
EE
44
44
28
28
10
30
20
A0
C0
ENDCHAR
STARTCHAR uni1E90
ENCODING 7824
SWIDTH 611 0
DWIDTH 8 0
BBX 8 14 0 0
BITMAP
08
1C
22
00
7F
43
02
04
08
10
20
40
C1
FF
ENDCHAR
STARTCHAR uni1E91
ENCODING 7825
SWIDTH 444 0
DWIDTH 6 0
BBX 6 11 0 0
BITMAP
20
70
88
00
FC
88
18
30
60
C4
FC
ENDCHAR
STARTCHAR uni1E92
ENCODING 7826
SWIDTH 611 0
DWIDTH 8 0
BBX 8 13 0 -3
BITMAP
7F
43
02
04
08
10
20
40
C1
FF
00
10
10
ENDCHAR
STARTCHAR uni1E93
ENCODING 7827
SWIDTH 444 0
DWIDTH 6 0
BBX 6 10 0 -3
BITMAP
FC
88
18
30
60
C4
FC
00
20
20
ENDCHAR
STARTCHAR uni1E94
ENCODING 7828
SWIDTH 611 0
DWIDTH 8 0
BBX 8 12 0 -2
BITMAP
7F
43
02
04
08
10
20
40
C1
FF
00
3C
ENDCHAR
STARTCHAR uni1E95
ENCODING 7829
SWIDTH 444 0
DWIDTH 6 0
BBX 6 9 0 -2
BITMAP
FC
88
18
30
60
C4
FC
00
78
ENDCHAR
STARTCHAR uni1E96
ENCODING 7830
SWIDTH 500 0
DWIDTH 7 0
BBX 7 12 0 -2
BITMAP
C0
40
40
58
6C
44
44
44
44
EE
00
3C
ENDCHAR
STARTCHAR uni1E97
ENCODING 7831
SWIDTH 278 0
DWIDTH 4 0
BBX 4 11 0 0
BITMAP
A0
A0
00
40
F0
40
40
40
40
40
30
ENDCHAR
STARTCHAR uni1E98
ENCODING 7832
SWIDTH 722 0
DWIDTH 11 0
BBX 11 11 0 0
BITMAP
0600
0900
0600
0000
EEE0
4440
4440
2480
3B80
1100
1100
ENDCHAR
STARTCHAR uni1E99
ENCODING 7833
SWIDTH 500 0
DWIDTH 7 0
BBX 7 14 0 -3
BITMAP
18
24
18
00
EE
44
44
28
28
10
30
20
A0
C0
ENDCHAR
STARTCHAR uni1EA0
ENCODING 7840
SWIDTH 722 0
DWIDTH 11 0
BBX 9 13 1 -3
BITMAP
0800
0800
1400
1400
2200
2200
3E00
4100
4100
E380
0000
0800
0800
ENDCHAR
STARTCHAR uni1EA1
ENCODING 7841
SWIDTH 444 0
DWIDTH 7 0
BBX 6 10 1 -3
BITMAP
70
C8
18
68
88
C8
74
00
20
20
ENDCHAR
STARTCHAR uni1EA4
ENCODING 7844
SWIDTH 722 0
DWIDTH 11 0
BBX 9 18 1 0
BITMAP
0200
0600
0800
0000
0800
1C00
2200
0000
0800
0800
1400
1400
2200
2200
3E00
4100
4100
E380
ENDCHAR
STARTCHAR uni1EA5
ENCODING 7845
SWIDTH 444 0
DWIDTH 7 0
BBX 6 15 1 0
BITMAP
08
18
20
00
20
70
88
00
70
C8
18
68
88
C8
74
ENDCHAR
STARTCHAR uni1EA6
ENCODING 7846
SWIDTH 722 0
DWIDTH 11 0
BBX 9 18 1 0
BITMAP
2000
3000
0800
0000
0800
1C00
2200
0000
0800
0800
1400
1400
2200
2200
3E00
4100
4100
E380
ENDCHAR
STARTCHAR uni1EA7
ENCODING 7847
SWIDTH 444 0
DWIDTH 7 0
BBX 6 15 1 0
BITMAP
40
60
10
00
20
70
88
00
70
C8
18
68
88
C8
74
ENDCHAR
STARTCHAR uni1EAA
ENCODING 7850
SWIDTH 722 0
DWIDTH 11 0
BBX 9 18 1 0
BITMAP
1200
2A00
2400
0000
0800
1C00
2200
0000
0800
0800
1400
1400
2200
2200
3E00
4100
4100
E380
ENDCHAR
STARTCHAR uni1EAB
ENCODING 7851
SWIDTH 444 0
DWIDTH 7 0
BBX 6 15 1 0
BITMAP
24
54
48
00
20
70
88
00
70
C8
18
68
88
C8
74
ENDCHAR
STARTCHAR uni1EAC
ENCODING 7852
SWIDTH 722 0
DWIDTH 11 0
BBX 9 17 1 -3
BITMAP
0800
1C00
2200
0000
0800
0800
1400
1400
2200
2200
3E00
4100
4100
E380
0000
0800
0800
ENDCHAR
STARTCHAR uni1EAD
ENCODING 7853
SWIDTH 444 0
DWIDTH 7 0
BBX 6 14 1 -3
BITMAP
20
70
88
00
70
C8
18
68
88
C8
74
00
20
20
ENDCHAR
STARTCHAR uni1EAE
ENCODING 7854
SWIDTH 722 0
DWIDTH 11 0
BBX 9 17 1 0
BITMAP
0200
0600
0800
0000
1200
1E00
0000
0800
0800
1400
1400
2200
2200
3E00
4100
4100
E380
ENDCHAR
STARTCHAR uni1EAF
ENCODING 7855
SWIDTH 444 0
DWIDTH 7 0
BBX 6 14 1 0
BITMAP
08
18
20
00
48
78
00
70
C8
18
68
88
C8
74
ENDCHAR
STARTCHAR uni1EB0
ENCODING 7856
SWIDTH 722 0
DWIDTH 11 0
BBX 9 17 1 0
BITMAP
1000
1800
0400
0000
1200
1E00
0000
0800
0800
1400
1400
2200
2200
3E00
4100
4100
E380
ENDCHAR
STARTCHAR uni1EB1
ENCODING 7857
SWIDTH 444 0
DWIDTH 7 0
BBX 6 14 1 0
BITMAP
40
60
10
00
48
78
00
70
C8
18
68
88
C8
74
ENDCHAR
STARTCHAR uni1EB4
ENCODING 7860
SWIDTH 722 0
DWIDTH 11 0
BBX 9 17 1 0
BITMAP
0900
1500
1200
0000
1200
1E00
0000
0800
0800
1400
1400
2200
2200
3E00
4100
4100
E380
ENDCHAR
STARTCHAR uni1EB5
ENCODING 7861
SWIDTH 444 0
DWIDTH 7 0
BBX 6 14 1 0
BITMAP
24
54
48
00
48
78
00
70
C8
18
68
88
C8
74
ENDCHAR
STARTCHAR uni1EB6
ENCODING 7862
SWIDTH 722 0
DWIDTH 11 0
BBX 9 16 1 -3
BITMAP
1200
1E00
0000
0800
0800
1400
1400
2200
2200
3E00
4100
4100
E380
0000
0800
0800
ENDCHAR
STARTCHAR uni1EB7
ENCODING 7863
SWIDTH 444 0
DWIDTH 7 0
BBX 6 13 1 -3
BITMAP
48
78
00
70
C8
18
68
88
C8
74
00
20
20
ENDCHAR
STARTCHAR uni1EB8
ENCODING 7864
SWIDTH 611 0
DWIDTH 9 0
BBX 7 13 1 -3
BITMAP
FE
42
40
44
7C
44
40
42
42
FE
00
10
10
ENDCHAR
STARTCHAR uni1EB9
ENCODING 7865
SWIDTH 444 0
DWIDTH 7 0
BBX 6 10 1 -3
BITMAP
70
88
F8
80
80
C4
78
00
20
20
ENDCHAR
STARTCHAR uni1EBC
ENCODING 7868
SWIDTH 611 0
DWIDTH 9 0
BBX 7 14 1 0
BITMAP
24
54
48
00
FE
42
40
44
7C
44
40
42
42
FE
ENDCHAR
STARTCHAR uni1EBD
ENCODING 7869
SWIDTH 444 0
DWIDTH 7 0
BBX 6 11 1 0
BITMAP
24
54
48
00
70
88
F8
80
80
C4
78
ENDCHAR
STARTCHAR uni1EBE
ENCODING 7870
SWIDTH 611 0
DWIDTH 9 0
BBX 7 18 1 0
BITMAP
04
0C
10
00
10
38
44
00
FE
42
40
44
7C
44
40
42
42
FE
ENDCHAR
STARTCHAR uni1EBF
ENCODING 7871
SWIDTH 444 0
DWIDTH 7 0
BBX 6 15 1 0
BITMAP
08
18
20
00
20
70
88
00
70
88
F8
80
80
C4
78
ENDCHAR
STARTCHAR uni1EC0
ENCODING 7872
SWIDTH 611 0
DWIDTH 9 0
BBX 7 18 1 0
BITMAP
40
60
10
00
10
38
44
00
FE
42
40
44
7C
44
40
42
42
FE
ENDCHAR
STARTCHAR uni1EC1
ENCODING 7873
SWIDTH 444 0
DWIDTH 7 0
BBX 6 15 1 0
BITMAP
40
60
10
00
20
70
88
00
70
88
F8
80
80
C4
78
ENDCHAR
STARTCHAR uni1EC4
ENCODING 7876
SWIDTH 611 0
DWIDTH 9 0
BBX 7 18 1 0
BITMAP
24
54
48
00
10
38
44
00
FE
42
40
44
7C
44
40
42
42
FE
ENDCHAR
STARTCHAR uni1EC5
ENCODING 7877
SWIDTH 444 0
DWIDTH 7 0
BBX 6 15 1 0
BITMAP
24
54
48
00
20
70
88
00
70
88
F8
80
80
C4
78
ENDCHAR
STARTCHAR uni1EC6
ENCODING 7878
SWIDTH 611 0
DWIDTH 9 0
BBX 7 17 1 -3
BITMAP
10
38
44
00
FE
42
40
44
7C
44
40
42
42
FE
00
10
10
ENDCHAR
STARTCHAR uni1EC7
ENCODING 7879
SWIDTH 444 0
DWIDTH 7 0
BBX 6 14 1 -3
BITMAP
20
70
88
00
70
88
F8
80
80
C4
78
00
20
20
ENDCHAR
STARTCHAR uni1ECA
ENCODING 7882
SWIDTH 333 0
DWIDTH 5 0
BBX 3 13 1 -3
BITMAP
E0
40
40
40
40
40
40
40
40
E0
00
40
40
ENDCHAR
STARTCHAR uni1ECB
ENCODING 7883
SWIDTH 278 0
DWIDTH 3 0
BBX 3 13 0 -3
BITMAP
40
40
00
C0
40
40
40
40
40
E0
00
40
40
ENDCHAR
STARTCHAR uni1ECC
ENCODING 7884
SWIDTH 722 0
DWIDTH 10 0
BBX 8 13 1 -3
BITMAP
3C
66
42
81
81
81
81
42
66
3C
00
08
08
ENDCHAR
STARTCHAR uni1ECD
ENCODING 7885
SWIDTH 500 0
DWIDTH 7 0
BBX 5 10 1 -3
BITMAP
70
D8
88
88
88
D8
70
00
20
20
ENDCHAR
STARTCHAR uni1ED0
ENCODING 7888
SWIDTH 722 0
DWIDTH 10 0
BBX 8 18 1 0
BITMAP
04
0C
10
00
10
38
44
00
3C
66
42
81
81
81
81
42
66
3C
ENDCHAR
STARTCHAR uni1ED1
ENCODING 7889
SWIDTH 500 0
DWIDTH 7 0
BBX 5 15 1 0
BITMAP
08
18
20
00
20
70
88
00
70
D8
88
88
88
D8
70
ENDCHAR
STARTCHAR uni1ED2
ENCODING 7890
SWIDTH 722 0
DWIDTH 10 0
BBX 8 18 1 0
BITMAP
20
30
08
00
10
38
44
00
3C
66
42
81
81
81
81
42
66
3C
ENDCHAR
STARTCHAR uni1ED3
ENCODING 7891
SWIDTH 500 0
DWIDTH 7 0
BBX 5 15 1 0
BITMAP
80
C0
20
00
20
70
88
00
70
D8
88
88
88
D8
70
ENDCHAR
STARTCHAR uni1ED6
ENCODING 7894
SWIDTH 722 0
DWIDTH 10 0
BBX 8 18 1 0
BITMAP
12
2A
24
00
10
38
44
00
3C
66
42
81
81
81
81
42
66
3C
ENDCHAR
STARTCHAR uni1ED7
ENCODING 7895
SWIDTH 500 0
DWIDTH 7 0
BBX 5 15 1 0
BITMAP
48
A8
90
00
20
70
88
00
70
D8
88
88
88
D8
70
ENDCHAR
STARTCHAR uni1ED8
ENCODING 7896
SWIDTH 722 0
DWIDTH 10 0
BBX 8 17 1 -3
BITMAP
08
1C
22
00
3C
66
42
81
81
81
81
42
66
3C
00
08
08
ENDCHAR
STARTCHAR uni1ED9
ENCODING 7897
SWIDTH 500 0
DWIDTH 7 0
BBX 5 14 1 -3
BITMAP
20
70
88
00
70
D8
88
88
88
D8
70
00
20
20
ENDCHAR
STARTCHAR uni1EDA
ENCODING 7898
SWIDTH 722 0
DWIDTH 10 0
BBX 10 14 1 0
BITMAP
0200
0600
0800
0000
3CC0
6640
4280
8100
8100
8100
8100
4200
6600
3C00
ENDCHAR
STARTCHAR uni1EDB
ENCODING 7899
SWIDTH 500 0
DWIDTH 7 0
BBX 7 11 1 0
BITMAP
04
0C
10
00
76
DA
8C
88
88
D8
70
ENDCHAR
STARTCHAR uni1EDC
ENCODING 7900
SWIDTH 722 0
DWIDTH 10 0
BBX 10 14 1 0
BITMAP
1000
1800
0400
0000
3CC0
6640
4280
8100
8100
8100
8100
4200
6600
3C00
ENDCHAR
STARTCHAR uni1EDD
ENCODING 7901
SWIDTH 500 0
DWIDTH 7 0
BBX 7 11 1 0
BITMAP
40
60
10
00
76
DA
8C
88
88
D8
70
ENDCHAR
STARTCHAR uni1EE0
ENCODING 7904
SWIDTH 722 0
DWIDTH 10 0
BBX 10 14 1 0
BITMAP
0900
1500
1200
0000
3CC0
6640
4280
8100
8100
8100
8100
4200
6600
3C00
ENDCHAR
STARTCHAR uni1EE1
ENCODING 7905
SWIDTH 500 0
DWIDTH 7 0
BBX 7 11 1 0
BITMAP
24
54
48
00
76
DA
8C
88
88
D8
70
ENDCHAR
STARTCHAR uni1EE2
ENCODING 7906
SWIDTH 722 0
DWIDTH 10 0
BBX 10 13 1 -3
BITMAP
3CC0
6640
4280
8100
8100
8100
8100
4200
6600
3C00
0000
0800
0800
ENDCHAR
STARTCHAR uni1EE3
ENCODING 7907
SWIDTH 500 0
DWIDTH 7 0
BBX 7 10 1 -3
BITMAP
76
DA
8C
88
88
D8
70
00
20
20
ENDCHAR
STARTCHAR uni1EE4
ENCODING 7908
SWIDTH 722 0
DWIDTH 10 0
BBX 8 13 1 -3
BITMAP
E7
42
42
42
42
42
42
42
66
3C
00
08
08
ENDCHAR
STARTCHAR uni1EE5
ENCODING 7909
SWIDTH 500 0
DWIDTH 7 0
BBX 7 10 0 -3
BITMAP
CC
44
44
44
44
6C
36
00
10
10
ENDCHAR
STARTCHAR uni1EE8
ENCODING 7912
SWIDTH 722 0
DWIDTH 10 0
BBX 10 14 1 0
BITMAP
0200
0600
0800
0000
E7C0
4240
4280
4200
4200
4200
4200
4200
6600
3C00
ENDCHAR
STARTCHAR uni1EE9
ENCODING 7913
SWIDTH 500 0
DWIDTH 7 0
BBX 9 11 0 0
BITMAP
0200
0600
0800
0000
CD80
4480
4500
4400
4400
6C00
3600
ENDCHAR
STARTCHAR uni1EEA
ENCODING 7914
SWIDTH 722 0
DWIDTH 10 0
BBX 10 14 1 0
BITMAP
1000
1800
0400
0000
E7C0
4240
4280
4200
4200
4200
4200
4200
6600
3C00
ENDCHAR
STARTCHAR uni1EEB
ENCODING 7915
SWIDTH 500 0
DWIDTH 7 0
BBX 9 11 0 0
BITMAP
1000
1800
0400
0000
CD80
4480
4500
4400
4400
6C00
3600
ENDCHAR
STARTCHAR uni1EEE
ENCODING 7918
SWIDTH 722 0
DWIDTH 10 0
BBX 10 14 1 0
BITMAP
0900
1500
1200
0000
E7C0
4240
4280
4200
4200
4200
4200
4200
6600
3C00
ENDCHAR
STARTCHAR uni1EEF
ENCODING 7919
SWIDTH 500 0
DWIDTH 7 0
BBX 9 11 0 0
BITMAP
0900
1500
1200
0000
CD80
4480
4500
4400
4400
6C00
3600
ENDCHAR
STARTCHAR uni1EF0
ENCODING 7920
SWIDTH 722 0
DWIDTH 10 0
BBX 10 13 1 -3
BITMAP
E7C0
4240
4280
4200
4200
4200
4200
4200
6600
3C00
0000
0800
0800
ENDCHAR
STARTCHAR uni1EF1
ENCODING 7921
SWIDTH 500 0
DWIDTH 7 0
BBX 9 10 0 -3
BITMAP
CD80
4480
4500
4400
4400
6C00
3600
0000
0800
0800
ENDCHAR
STARTCHAR Ygrave
ENCODING 7922
SWIDTH 722 0
DWIDTH 9 0
BBX 9 14 0 0
BITMAP
2000
3000
0800
0000
E380
4100
2200
2200
1400
0800
0800
0800
0800
1C00
ENDCHAR
STARTCHAR ygrave
ENCODING 7923
SWIDTH 500 0
DWIDTH 7 0
BBX 7 14 0 -3
BITMAP
40
60
10
00
EE
44
44
28
28
10
30
20
A0
C0
ENDCHAR
STARTCHAR uni1EF4
ENCODING 7924
SWIDTH 722 0
DWIDTH 9 0
BBX 9 13 0 -3
BITMAP
E380
4100
2200
2200
1400
0800
0800
0800
0800
1C00
0000
0800
0800
ENDCHAR
STARTCHAR uni1EF5
ENCODING 7925
SWIDTH 500 0
DWIDTH 7 0
BBX 7 13 0 -6
BITMAP
EE
44
44
28
28
10
30
20
A0
C0
00
20
20
ENDCHAR
STARTCHAR uni1EF8
ENCODING 7928
SWIDTH 722 0
DWIDTH 9 0
BBX 9 14 0 0
BITMAP
1200
2A00
2400
0000
E380
4100
2200
2200
1400
0800
0800
0800
0800
1C00
ENDCHAR
STARTCHAR uni1EF9
ENCODING 7929
SWIDTH 500 0
DWIDTH 7 0
BBX 7 14 0 -3
BITMAP
24
54
48
00
EE
44
44
28
28
10
30
20
A0
C0
ENDCHAR
STARTCHAR uni2000
ENCODING 8192
SWIDTH 500 0
DWIDTH 7 0
BBX 1 1 0 0
BITMAP
00
ENDCHAR
STARTCHAR uni2001
ENCODING 8193
SWIDTH 1000 0
DWIDTH 14 0
BBX 1 1 0 0
BITMAP
00
ENDCHAR
STARTCHAR uni2002
ENCODING 8194
SWIDTH 500 0
DWIDTH 7 0
BBX 1 1 0 0
BITMAP
00
ENDCHAR
STARTCHAR uni2003
ENCODING 8195
SWIDTH 1000 0
DWIDTH 14 0
BBX 1 1 0 0
BITMAP
00
ENDCHAR
STARTCHAR uni2004
ENCODING 8196
SWIDTH 333 0
DWIDTH 5 0
BBX 1 1 0 0
BITMAP
00
ENDCHAR
STARTCHAR uni2005
ENCODING 8197
SWIDTH 250 0
DWIDTH 3 0
BBX 1 1 0 0
BITMAP
00
ENDCHAR
STARTCHAR uni2006
ENCODING 8198
SWIDTH 167 0
DWIDTH 2 0
BBX 1 1 0 0
BITMAP
00
ENDCHAR
STARTCHAR uni2007
ENCODING 8199
SWIDTH 500 0
DWIDTH 7 0
BBX 1 1 0 0
BITMAP
00
ENDCHAR
STARTCHAR uni2008
ENCODING 8200
SWIDTH 250 0
DWIDTH 4 0
BBX 1 1 0 0
BITMAP
00
ENDCHAR
STARTCHAR uni2009
ENCODING 8201
SWIDTH 200 0
DWIDTH 3 0
BBX 1 1 0 0
BITMAP
00
ENDCHAR
STARTCHAR uni200A
ENCODING 8202
SWIDTH 100 0
DWIDTH 1 0
BBX 1 1 0 0
BITMAP
00
ENDCHAR
STARTCHAR uni200B
ENCODING 8203
SWIDTH 0 0
DWIDTH 0 0
BBX 1 1 0 0
BITMAP
00
ENDCHAR
STARTCHAR uni2010
ENCODING 8208
SWIDTH 333 0
DWIDTH 4 0
BBX 3 1 0 3
BITMAP
E0
ENDCHAR
STARTCHAR uni2011
ENCODING 8209
SWIDTH 333 0
DWIDTH 4 0
BBX 3 1 0 3
BITMAP
E0
ENDCHAR
STARTCHAR figuredash
ENCODING 8210
SWIDTH 500 0
DWIDTH 7 0
BBX 7 1 0 3
BITMAP
FE
ENDCHAR
STARTCHAR endash
ENCODING 8211
SWIDTH 500 0
DWIDTH 7 0
BBX 7 1 0 3
BITMAP
FE
ENDCHAR
STARTCHAR emdash
ENCODING 8212
SWIDTH 1000 0
DWIDTH 14 0
BBX 14 1 0 3
BITMAP
FFFC
ENDCHAR
STARTCHAR afii00208
ENCODING 8213
SWIDTH 1000 0
DWIDTH 14 0
BBX 14 1 0 3
BITMAP
FFFC
ENDCHAR
STARTCHAR quoteleft
ENCODING 8216
SWIDTH 333 0
DWIDTH 4 0
BBX 2 3 1 7
BITMAP
40
80
C0
ENDCHAR
STARTCHAR quoteright
ENCODING 8217
SWIDTH 333 0
DWIDTH 4 0
BBX 2 3 1 7
BITMAP
C0
40
80
ENDCHAR
STARTCHAR quotesinglbase
ENCODING 8218
SWIDTH 333 0
DWIDTH 5 0
BBX 2 3 1 -2
BITMAP
C0
40
80
ENDCHAR
STARTCHAR quotereversed
ENCODING 8219
SWIDTH 333 0
DWIDTH 4 0
BBX 2 3 1 7
BITMAP
C0
80
40
ENDCHAR
STARTCHAR quotedblleft
ENCODING 8220
SWIDTH 444 0
DWIDTH 7 0
BBX 5 3 1 7
BITMAP
48
90
D8
ENDCHAR
STARTCHAR quotedblright
ENCODING 8221
SWIDTH 444 0
DWIDTH 7 0
BBX 5 3 1 7
BITMAP
D8
48
90
ENDCHAR
STARTCHAR quotedblbase
ENCODING 8222
SWIDTH 444 0
DWIDTH 7 0
BBX 5 3 1 -2
BITMAP
D8
48
90
ENDCHAR
STARTCHAR uni201F
ENCODING 8223
SWIDTH 444 0
DWIDTH 7 0
BBX 5 3 1 7
BITMAP
D8
90
48
ENDCHAR
STARTCHAR dagger
ENCODING 8224
SWIDTH 500 0
DWIDTH 7 0
BBX 5 12 1 -2
BITMAP
20
20
F8
20
20
20
20
20
20
20
20
20
ENDCHAR
STARTCHAR daggerdbl
ENCODING 8225
SWIDTH 500 0
DWIDTH 7 0
BBX 5 12 1 -2
BITMAP
20
20
20
F8
20
20
20
F8
20
20
20
20
ENDCHAR
STARTCHAR bullet
ENCODING 8226
SWIDTH 350 0
DWIDTH 5 0
BBX 3 4 1 2
BITMAP
40
E0
E0
40
ENDCHAR
STARTCHAR ellipsis
ENCODING 8230
SWIDTH 1000 0
DWIDTH 15 0
BBX 12 1 2 0
BITMAP
C630
ENDCHAR
STARTCHAR perthousand
ENCODING 8240
SWIDTH 1000 0
DWIDTH 14 0
BBX 13 10 0 0
BITMAP
7180
DF00
9200
9400
6400
0B30
16E8
34C8
64C8
4330
ENDCHAR
STARTCHAR minute
ENCODING 8242
SWIDTH 247 0
DWIDTH 4 0
BBX 4 3 0 7
BITMAP
30
60
80
ENDCHAR
STARTCHAR second
ENCODING 8243
SWIDTH 411 0
DWIDTH 6 0
BBX 7 3 0 7
BITMAP
36
6C
90
ENDCHAR
STARTCHAR guilsinglleft
ENCODING 8249
SWIDTH 333 0
DWIDTH 5 0
BBX 3 6 1 0
BITMAP
20
40
80
80
40
20
ENDCHAR
STARTCHAR guilsinglright
ENCODING 8250
SWIDTH 333 0
DWIDTH 5 0
BBX 3 6 1 0
BITMAP
80
40
20
20
40
80
ENDCHAR
STARTCHAR fraction
ENCODING 8260
SWIDTH 167 0
DWIDTH 5 0
BBX 6 10 -1 0
BITMAP
0C
08
18
10
30
20
60
40
C0
80
ENDCHAR
STARTCHAR oneinferior
ENCODING 8321
SWIDTH 300 0
DWIDTH 4 0
BBX 3 6 0 -3
BITMAP
40
C0
40
40
40
E0
ENDCHAR
STARTCHAR twoinferior
ENCODING 8322
SWIDTH 300 0
DWIDTH 4 0
BBX 4 6 0 -3
BITMAP
60
90
10
20
40
F0
ENDCHAR
STARTCHAR threeinferior
ENCODING 8323
SWIDTH 300 0
DWIDTH 4 0
BBX 4 6 0 -3
BITMAP
60
90
20
10
90
60
ENDCHAR
STARTCHAR uni20A5
ENCODING 8357
SWIDTH 778 0
DWIDTH 11 0
BBX 11 12 0 -2
BITMAP
0100
0100
0100
DB80
6EC0
4640
4440
4440
4440
EEE0
0800
0800
ENDCHAR
STARTCHAR uni20A6
ENCODING 8358
SWIDTH 722 0
DWIDTH 11 0
BBX 9 10 1 0
BITMAP
E380
6100
5100
7F00
4900
7F00
4500
4500
4300
E300
ENDCHAR
STARTCHAR uni20A9
ENCODING 8361
SWIDTH 944 0
DWIDTH 13 0
BBX 13 10 0 0
BITMAP
E738
4210
6230
3FE0
2520
3FE0
1540
18C0
0880
0880
ENDCHAR
STARTCHAR Euro
ENCODING 8364
SWIDTH 667 0
DWIDTH 10 0
BBX 9 10 0 0
BITMAP
1E80
3180
2080
FE80
4000
FE00
4000
6080
3100
1E00
ENDCHAR
STARTCHAR uni20AD
ENCODING 8365
SWIDTH 722 0
DWIDTH 10 0
BBX 8 10 1 0
BITMAP
EE
44
48
50
FF
50
48
44
46
E7
ENDCHAR
STARTCHAR uni2103
ENCODING 8451
SWIDTH 1047 0
DWIDTH 16 0
BBX 14 10 1 0
BITMAP
60F4
918C
9104
6204
0200
0200
0200
0304
0188
00F0
ENDCHAR
STARTCHAR uni2109
ENCODING 8457
SWIDTH 936 0
DWIDTH 14 0
BBX 13 10 1 0
BITMAP
63F8
9108
9100
6110
01F0
0110
0100
0100
0100
0380
ENDCHAR
STARTCHAR Ifraktur
ENCODING 8465
SWIDTH 686 0
DWIDTH 10 0
BBX 8 12 1 -1
BITMAP
3F
61
42
46
24
06
03
01
61
F1
1A
0C
ENDCHAR
STARTCHAR weierstrass
ENCODING 8472
SWIDTH 987 0
DWIDTH 12 0
BBX 9 12 1 -3
BITMAP
1000
2300
4580
4880
9080
D480
6900
6B00
B600
9000
9000
6000
ENDCHAR
STARTCHAR Rfraktur
ENCODING 8476
SWIDTH 795 0
DWIDTH 12 0
BBX 10 11 1 0
BITMAP
7300
9D80
8980
8B00
CE00
6A00
2900
0900
0900
6900
B0C0
ENDCHAR
STARTCHAR trademark
ENCODING 8482
SWIDTH 980 0
DWIDTH 15 0
BBX 13 6 1 4
BITMAP
FB18
A9B0
21B0
2150
2150
7358
ENDCHAR
STARTCHAR Omega
ENCODING 8486
SWIDTH 768 0
DWIDTH 11 0
BBX 10 10 0 0
BITMAP
0C00
3300
2100
4080
4080
4080
2100
3300
9240
F3C0
ENDCHAR
STARTCHAR uni2127
ENCODING 8487
SWIDTH 768 0
DWIDTH 11 0
BBX 10 10 0 0
BITMAP
F3C0
9240
3300
2100
4080
4080
4080
2100
3300
0C00
ENDCHAR
STARTCHAR uni212A
ENCODING 8490
SWIDTH 722 0
DWIDTH 10 0
BBX 8 10 1 0
BITMAP
EE
44
48
50
70
50
48
44
46
E7
ENDCHAR
STARTCHAR uni212B
ENCODING 8491
SWIDTH 722 0
DWIDTH 11 0
BBX 9 14 1 0
BITMAP
1800
2400
1800
0000
0800
0800
1400
1400
2200
2200
3E00
4100
4100
E380
ENDCHAR
STARTCHAR uni2132
ENCODING 8498
SWIDTH 556 0
DWIDTH 8 0
BBX 7 10 1 0
BITMAP
0E
04
04
04
44
7C
44
04
84
FE
ENDCHAR
STARTCHAR aleph
ENCODING 8501
SWIDTH 823 0
DWIDTH 12 0
BBX 8 10 2 0
BITMAP
88
CE
66
24
74
9C
8C
46
63
E1
ENDCHAR
STARTCHAR arrowleft
ENCODING 8592
SWIDTH 987 0
DWIDTH 14 0
BBX 14 7 0 0
BITMAP
1000
2000
4000
FFFC
4000
2000
1000
ENDCHAR
STARTCHAR arrowup
ENCODING 8593
SWIDTH 603 0
DWIDTH 9 0
BBX 7 15 1 -3
BITMAP
10
38
54
92
10
10
10
10
10
10
10
10
10
10
10
ENDCHAR
STARTCHAR arrowright
ENCODING 8594
SWIDTH 987 0
DWIDTH 14 0
BBX 14 7 0 0
BITMAP
0020
0010
0008
FFFC
0008
0010
0020
ENDCHAR
STARTCHAR arrowdown
ENCODING 8595
SWIDTH 603 0
DWIDTH 9 0
BBX 7 15 1 -3
BITMAP
10
10
10
10
10
10
10
10
10
10
10
92
54
38
10
ENDCHAR
STARTCHAR arrowboth
ENCODING 8596
SWIDTH 1042 0
DWIDTH 15 0
BBX 13 7 1 0
BITMAP
1040
2020
4010
FFF8
4010
2020
1040
ENDCHAR
STARTCHAR uni219A
ENCODING 8602
SWIDTH 987 0
DWIDTH 14 0
BBX 14 12 0 -2
BITMAP
0080
0080
0080
1100
2100
4100
FFFC
4200
2200
1400
0400
0400
ENDCHAR
STARTCHAR uni219B
ENCODING 8603
SWIDTH 987 0
DWIDTH 14 0
BBX 14 12 0 -2
BITMAP
0080
0080
0080
0120
0110
0108
FFFC
0208
0210
0420
0400
0400
ENDCHAR
STARTCHAR uni21AE
ENCODING 8622
SWIDTH 1042 0
DWIDTH 15 0
BBX 13 12 1 -2
BITMAP
0080
0080
0080
1140
2120
4110
FFF8
4210
2220
1440
0400
0400
ENDCHAR
STARTCHAR carriagereturn
ENCODING 8629
SWIDTH 658 0
DWIDTH 10 0
BBX 8 9 0 0
BITMAP
01
01
01
01
01
01
41
FF
40
ENDCHAR
STARTCHAR uni21CD
ENCODING 8653
SWIDTH 987 0
DWIDTH 14 0
BBX 13 12 0 -2
BITMAP
0080
0080
0080
1100
2100
7FF8
C200
7FF8
2200
1400
0400
0400
ENDCHAR
STARTCHAR uni21CE
ENCODING 8654
SWIDTH 1042 0
DWIDTH 15 0
BBX 13 12 1 -2
BITMAP
0080
0080
0080
1140
2120
7FF0
C218
7FF0
2220
1440
0400
0400
ENDCHAR
STARTCHAR uni21CF
ENCODING 8655
SWIDTH 987 0
DWIDTH 14 0
BBX 13 12 1 -2
BITMAP
0080
0080
0080
0140
0120
FFF0
0218
FFF0
0220
0440
0400
0400
ENDCHAR
STARTCHAR arrowdblleft
ENCODING 8656
SWIDTH 987 0
DWIDTH 14 0
BBX 13 7 0 0
BITMAP
1000
2000
7FF8
C000
7FF8
2000
1000
ENDCHAR
STARTCHAR arrowdblup
ENCODING 8657
SWIDTH 603 0
DWIDTH 9 0
BBX 7 12 1 0
BITMAP
10
38
6C
AA
28
28
28
28
28
28
28
28
ENDCHAR
STARTCHAR arrowdblright
ENCODING 8658
SWIDTH 987 0
DWIDTH 14 0
BBX 13 7 1 0
BITMAP
0040
0020
FFF0
0018
FFF0
0020
0040
ENDCHAR
STARTCHAR arrowdbldown
ENCODING 8659
SWIDTH 603 0
DWIDTH 9 0
BBX 7 12 1 0
BITMAP
28
28
28
28
28
28
28
28
AA
6C
38
10
ENDCHAR
STARTCHAR arrowdblboth
ENCODING 8660
SWIDTH 1042 0
DWIDTH 15 0
BBX 13 7 1 0
BITMAP
1040
2020
7FF0
C018
7FF0
2020
1040
ENDCHAR
STARTCHAR universal
ENCODING 8704
SWIDTH 713 0
DWIDTH 9 0
BBX 9 10 0 0
BITMAP
8080
4100
4100
3E00
2200
2200
1400
1400
0800
0800
ENDCHAR
STARTCHAR partialdiff
ENCODING 8706
SWIDTH 494 0
DWIDTH 7 0
BBX 6 11 0 0
BITMAP
70
88
04
04
04
74
CC
84
84
C8
70
ENDCHAR
STARTCHAR existential
ENCODING 8707
SWIDTH 549 0
DWIDTH 8 0
BBX 6 10 1 0
BITMAP
FC
04
04
04
FC
04
04
04
04
FC
ENDCHAR
STARTCHAR uni2204
ENCODING 8708
SWIDTH 549 0
DWIDTH 8 0
BBX 6 12 1 -1
BITMAP
08
FC
0C
14
14
FC
24
24
24
44
FC
40
ENDCHAR
STARTCHAR emptyset
ENCODING 8709
SWIDTH 823 0
DWIDTH 12 0
BBX 11 11 0 0
BITMAP
1F20
60C0
40C0
8120
8220
8420
8820
9020
6040
60C0
9F00
ENDCHAR
STARTCHAR Delta
ENCODING 8710
SWIDTH 612 0
DWIDTH 9 0
BBX 7 10 1 0
BITMAP
10
10
28
28
28
44
44
44
82
FE
ENDCHAR
STARTCHAR gradient
ENCODING 8711
SWIDTH 713 0
DWIDTH 10 0
BBX 9 11 0 0
BITMAP
FF80
8080
4100
4100
2200
2200
2200
1400
1400
0800
0800
ENDCHAR
STARTCHAR element
ENCODING 8712
SWIDTH 713 0
DWIDTH 10 0
BBX 7 7 1 0
BITMAP
3E
40
80
FE
80
40
3E
ENDCHAR
STARTCHAR notelement
ENCODING 8713
SWIDTH 713 0
DWIDTH 10 0
BBX 7 9 0 -1
BITMAP
04
3E
48
90
FE
90
60
3E
40
ENDCHAR
STARTCHAR uni220A
ENCODING 8714
SWIDTH 439 0
DWIDTH 6 0
BBX 5 7 0 0
BITMAP
38
40
80
F0
80
40
38
ENDCHAR
STARTCHAR suchthat
ENCODING 8715
SWIDTH 713 0
DWIDTH 10 0
BBX 7 7 1 0
BITMAP
F8
04
02
FE
02
04
F8
ENDCHAR
STARTCHAR uni220C
ENCODING 8716
SWIDTH 713 0
DWIDTH 10 0
BBX 7 12 1 -2
BITMAP
04
04
04
F8
0C
0A
FE
12
14
F8
20
20
ENDCHAR
STARTCHAR uni220D
ENCODING 8717
SWIDTH 439 0
DWIDTH 6 0
BBX 5 7 0 0
BITMAP
E0
10
08
78
08
10
E0
ENDCHAR
STARTCHAR product
ENCODING 8719
SWIDTH 823 0
DWIDTH 12 0
BBX 10 12 1 -1
BITMAP
FFC0
4080
4080
4080
4080
4080
4080
4080
4080
4080
4080
E1C0
ENDCHAR
STARTCHAR summation
ENCODING 8721
SWIDTH 713 0
DWIDTH 10 0
BBX 9 12 0 -1
BITMAP
FF00
8100
4000
2000
1000
0800
0800
1000
2000
4000
8080
FF80
ENDCHAR
STARTCHAR minus
ENCODING 8722
SWIDTH 564 0
DWIDTH 9 0
BBX 6 1 1 3
BITMAP
FC
ENDCHAR
STARTCHAR fraction
ENCODING 8725
SWIDTH 167 0
DWIDTH 5 0
BBX 6 10 -1 0
BITMAP
0C
08
18
10
30
20
60
40
C0
80
ENDCHAR
STARTCHAR asteriskmath
ENCODING 8727
SWIDTH 500 0
DWIDTH 7 0
BBX 5 6 1 2
BITMAP
20
A8
70
70
A8
20
ENDCHAR
STARTCHAR periodcentered
ENCODING 8729
SWIDTH 250 0
DWIDTH 4 0
BBX 1 2 2 3
BITMAP
80
80
ENDCHAR
STARTCHAR radical
ENCODING 8730
SWIDTH 549 0
DWIDTH 8 0
BBX 8 12 0 0
BITMAP
01
01
01
02
02
62
A4
24
14
14
08
08
ENDCHAR
STARTCHAR proportional
ENCODING 8733
SWIDTH 713 0
DWIDTH 10 0
BBX 8 4 0 2
BITMAP
77
88
88
77
ENDCHAR
STARTCHAR infinity
ENCODING 8734
SWIDTH 713 0
DWIDTH 10 0
BBX 9 4 0 2
BITMAP
7700
9880
8C80
7700
ENDCHAR
STARTCHAR angle
ENCODING 8736
SWIDTH 768 0
DWIDTH 11 0
BBX 11 10 0 0
BITMAP
0040
0080
0100
0200
0400
0800
1000
2000
4000
FFE0
ENDCHAR
STARTCHAR logicaland
ENCODING 8743
SWIDTH 603 0
DWIDTH 9 0
BBX 8 7 0 0
BITMAP
18
18
24
24
42
42
81
ENDCHAR
STARTCHAR logicalor
ENCODING 8744
SWIDTH 603 0
DWIDTH 9 0
BBX 8 7 0 0
BITMAP
81
42
42
24
24
18
18
ENDCHAR
STARTCHAR intersection
ENCODING 8745
SWIDTH 768 0
DWIDTH 10 0
BBX 10 7 0 0
BITMAP
1E00
6180
4080
8040
8040
8040
8040
ENDCHAR
STARTCHAR union
ENCODING 8746
SWIDTH 768 0
DWIDTH 10 0
BBX 10 7 0 0
BITMAP
8040
8040
8040
8040
4080
6180
1E00
ENDCHAR
STARTCHAR integral
ENCODING 8747
SWIDTH 274 0
DWIDTH 4 0
BBX 5 13 0 -1
BITMAP
18
28
20
20
20
20
20
20
20
20
20
A0
C0
ENDCHAR
STARTCHAR therefore
ENCODING 8756
SWIDTH 863 0
DWIDTH 10 0
BBX 8 7 1 0
BITMAP
18
18
00
00
00
C3
C3
ENDCHAR
STARTCHAR uni2235
ENCODING 8757
SWIDTH 863 0
DWIDTH 10 0
BBX 8 7 1 0
BITMAP
C3
C3
00
00
00
18
18
ENDCHAR
STARTCHAR uni2236
ENCODING 8758
SWIDTH 278 0
DWIDTH 4 0
BBX 2 7 1 0
BITMAP
C0
00
00
00
00
00
C0
ENDCHAR
STARTCHAR similar
ENCODING 8764
SWIDTH 549 0
DWIDTH 8 0
BBX 6 2 1 3
BITMAP
64
98
ENDCHAR
STARTCHAR uni2241
ENCODING 8769
SWIDTH 549 0
DWIDTH 8 0
BBX 6 12 1 -2
BITMAP
08
08
08
10
10
74
B8
20
20
40
40
40
ENDCHAR
STARTCHAR congruent
ENCODING 8773
SWIDTH 549 0
DWIDTH 8 0
BBX 7 7 0 0
BITMAP
72
9C
00
FE
00
00
FE
ENDCHAR
STARTCHAR uni2247
ENCODING 8775
SWIDTH 549 0
DWIDTH 8 0
BBX 7 12 0 -2
BITMAP
04
04
04
7A
9C
08
FE
10
10
FE
20
20
ENDCHAR
STARTCHAR approxequal
ENCODING 8776
SWIDTH 549 0
DWIDTH 8 0
BBX 7 5 0 2
BITMAP
72
9C
00
72
9C
ENDCHAR
STARTCHAR uni2249
ENCODING 8777
SWIDTH 549 0
DWIDTH 8 0
BBX 7 12 0 -1
BITMAP
04
04
04
08
7A
9C
10
72
9C
20
20
20
ENDCHAR
STARTCHAR uni2259
ENCODING 8793
SWIDTH 564 0
DWIDTH 8 0
BBX 7 7 0 2
BITMAP
10
38
44
00
FE
00
FE
ENDCHAR
STARTCHAR uni225A
ENCODING 8794
SWIDTH 564 0
DWIDTH 8 0
BBX 7 7 0 2
BITMAP
44
38
10
00
FE
00
FE
ENDCHAR
STARTCHAR notequal
ENCODING 8800
SWIDTH 549 0
DWIDTH 8 0
BBX 7 7 0 0
BITMAP
04
08
FE
10
FE
20
40
ENDCHAR
STARTCHAR equivalence
ENCODING 8801
SWIDTH 549 0
DWIDTH 8 0
BBX 7 5 0 1
BITMAP
FE
00
FE
00
FE
ENDCHAR
STARTCHAR uni2262
ENCODING 8802
SWIDTH 549 0
DWIDTH 8 0
BBX 7 12 0 -2
BITMAP
04
04
04
08
FE
08
FE
10
FE
20
20
20
ENDCHAR
STARTCHAR lessequal
ENCODING 8804
SWIDTH 549 0
DWIDTH 8 0
BBX 7 9 0 0
BITMAP
02
0C
30
C0
30
0C
02
00
FE
ENDCHAR
STARTCHAR greaterequal
ENCODING 8805
SWIDTH 549 0
DWIDTH 8 0
BBX 7 9 0 0
BITMAP
80
60
18
06
18
60
80
00
FE
ENDCHAR
STARTCHAR uni226E
ENCODING 8814
SWIDTH 564 0
DWIDTH 8 0
BBX 7 12 0 -2
BITMAP
04
04
04
0E
18
68
D0
70
18
26
20
20
ENDCHAR
STARTCHAR uni226F
ENCODING 8815
SWIDTH 564 0
DWIDTH 8 0
BBX 7 12 0 -2
BITMAP
04
04
04
C8
38
0C
16
1C
30
E0
20
20
ENDCHAR
STARTCHAR uni2270
ENCODING 8816
SWIDTH 549 0
DWIDTH 8 0
BBX 7 12 0 -1
BITMAP
04
04
06
0C
38
C8
30
1C
12
20
FE
20
ENDCHAR
STARTCHAR uni2271
ENCODING 8817
SWIDTH 549 0
DWIDTH 8 0
BBX 7 12 0 -1
BITMAP
04
04
84
68
18
0E
18
70
90
20
FE
20
ENDCHAR
STARTCHAR propersubset
ENCODING 8834
SWIDTH 713 0
DWIDTH 10 0
BBX 9 7 1 0
BITMAP
3F80
4000
8000
8000
8000
4000
3F80
ENDCHAR
STARTCHAR propersuperset
ENCODING 8835
SWIDTH 713 0
DWIDTH 10 0
BBX 9 7 0 0
BITMAP
FE00
0100
0080
0080
0080
0100
FE00
ENDCHAR
STARTCHAR notsubset
ENCODING 8836
SWIDTH 713 0
DWIDTH 10 0
BBX 9 9 0 -1
BITMAP
0100
3F80
4200
8200
8400
8400
4800
3F80
1000
ENDCHAR
STARTCHAR uni2285
ENCODING 8837
SWIDTH 713 0
DWIDTH 10 0
BBX 9 12 0 -2
BITMAP
0200
0200
0200
FE00
0500
0480
0880
0880
0900
FE00
1000
1000
ENDCHAR
STARTCHAR reflexsubset
ENCODING 8838
SWIDTH 713 0
DWIDTH 10 0
BBX 9 9 0 -2
BITMAP
3F80
4000
8000
8000
8000
4000
3F80
0000
FF80
ENDCHAR
STARTCHAR reflexsuperset
ENCODING 8839
SWIDTH 713 0
DWIDTH 10 0
BBX 9 9 1 -2
BITMAP
FE00
0100
0080
0080
0080
0100
FE00
0000
FF80
ENDCHAR
STARTCHAR uni2288
ENCODING 8840
SWIDTH 713 0
DWIDTH 10 0
BBX 9 12 0 -3
BITMAP
0200
0200
3F80
4400
8400
8400
8800
4800
3F80
1000
FF80
1000
ENDCHAR
STARTCHAR uni2289
ENCODING 8841
SWIDTH 713 0
DWIDTH 10 0
BBX 9 12 1 -3
BITMAP
0200
0200
FE00
0500
0480
0480
0880
0900
FE00
1000
FF80
1000
ENDCHAR
STARTCHAR circleplus
ENCODING 8853
SWIDTH 768 0
DWIDTH 11 0
BBX 9 9 1 0
BITMAP
1C00
6300
4900
8880
BE80
8880
4900
6300
1C00
ENDCHAR
STARTCHAR circlemultiply
ENCODING 8855
SWIDTH 768 0
DWIDTH 11 0
BBX 9 9 1 0
BITMAP
1C00
6300
6300
9480
8880
9480
6300
6300
1C00
ENDCHAR
STARTCHAR uni22A4
ENCODING 8868
SWIDTH 658 0
DWIDTH 10 0
BBX 9 10 0 0
BITMAP
FF80
0800
0800
0800
0800
0800
0800
0800
0800
0800
ENDCHAR
STARTCHAR perpendicular
ENCODING 8869
SWIDTH 658 0
DWIDTH 10 0
BBX 9 10 0 0
BITMAP
0800
0800
0800
0800
0800
0800
0800
0800
0800
FF80
ENDCHAR
STARTCHAR dotmath
ENCODING 8901
SWIDTH 250 0
DWIDTH 4 0
BBX 1 2 1 3
BITMAP
80
80
ENDCHAR
STARTCHAR integraltp
ENCODING 8992
SWIDTH 686 0
DWIDTH 10 0
BBX 5 15 5 -3
BITMAP
38
58
40
80
80
80
80
80
80
80
80
80
80
80
80
ENDCHAR
STARTCHAR integralbt
ENCODING 8993
SWIDTH 686 0
DWIDTH 10 0
BBX 5 15 1 -3
BITMAP
08
08
08
08
08
08
08
08
08
08
08
08
10
D0
E0
ENDCHAR
STARTCHAR angleleft
ENCODING 9001
SWIDTH 329 0
DWIDTH 5 0
BBX 4 15 0 -3
BITMAP
10
20
20
40
40
40
80
80
80
40
40
40
20
20
10
ENDCHAR
STARTCHAR angleright
ENCODING 9002
SWIDTH 329 0
DWIDTH 5 0
BBX 4 15 1 -3
BITMAP
80
40
40
20
20
20
10
10
10
20
20
20
40
40
80
ENDCHAR
STARTCHAR lozenge
ENCODING 9674
SWIDTH 494 0
DWIDTH 7 0
BBX 7 11 0 0
BITMAP
10
28
28
44
44
82
44
44
28
28
10
ENDCHAR
STARTCHAR spade
ENCODING 9824
SWIDTH 753 0
DWIDTH 11 0
BBX 9 7 1 0
BITMAP
0800
1C00
3E00
7F00
FF80
6B00
0800
ENDCHAR
STARTCHAR club
ENCODING 9827
SWIDTH 753 0
DWIDTH 11 0
BBX 9 7 1 0
BITMAP
1C00
1C00
1C00
EB80
FF80
EB80
0800
ENDCHAR
STARTCHAR heart
ENCODING 9829
SWIDTH 753 0
DWIDTH 11 0
BBX 7 7 2 0
BITMAP
6C
FE
FE
FE
7C
38
10
ENDCHAR
STARTCHAR diamond
ENCODING 9830
SWIDTH 753 0
DWIDTH 11 0
BBX 7 7 2 0
BITMAP
10
38
7C
FE
7C
38
10
ENDCHAR
STARTCHAR fi
ENCODING -1
SWIDTH 556 0
DWIDTH 7 0
BBX 7 10 0 0
BITMAP
3C
64
40
FC
44
44
44
44
44
EE
ENDCHAR
STARTCHAR fl
ENCODING -1
SWIDTH 556 0
DWIDTH 7 0
BBX 7 10 0 0
BITMAP
3C
64
44
FC
44
44
44
44
44
EE
ENDCHAR
ENDFONT
